<?xml version="1.0" encoding="UTF-8"?>
<svg width="316.61mm" height="77.898mm" version="1.1" viewBox="0 0 316.61 77.898" xmlns="http://www.w3.org/2000/svg" xmlns:cc="http://creativecommons.org/ns#" xmlns:dc="http://purl.org/dc/elements/1.1/" xmlns:rdf="http://www.w3.org/1999/02/22-rdf-syntax-ns#">
<metadata>
<rdf:RDF>
<cc:Work rdf:about="">
<dc:format>image/svg+xml</dc:format>
<dc:type rdf:resource="http://purl.org/dc/dcmitype/StillImage"/>
<dc:title/>
</cc:Work>
</rdf:RDF>
</metadata>
<g transform="translate(-30.486 -.59282)">
<rect x="30.675" y=".78197" width="77.52" height="77.52" fill="#313f8b" stroke-opacity="0"/>
<text transform="scale(1.0116 .9885)" x="40.986599" y="49.25639" fill="#ffffff" font-family="sans-serif" font-size="25.459px" stroke-width=".63647" style="line-height:1.25" xml:space="preserve"><tspan x="40.986599" y="49.25639" fill="#ffffff" font-family="sans-serif" font-weight="bold" stroke-width=".63647">BBA</tspan></text>
<g transform="matrix(1.0018 0 0 1.0018 156.35 13.64)">
<path d="m180.69 33.936h7.4405v7.7467h-7.4405z" fill="#ff7f2a" stroke-opacity="0"/>
</g>
<g transform="matrix(1.8635 0 0 1.8635 -19.021 -12.275)" stroke-width=".21972" aria-label="FAKULTET ZA BANKARSTVO OSIGURANJE I FINANSIJE">
<path d="m80.765 20.09h-3.1433v1.7532h2.7008v0.73469h-2.7008v2.993h-0.82653v-6.2156h3.9698z"/>
<path d="m86.192 25.571h-0.88079l-0.60946-1.7324h-2.6883l-0.60946 1.7324h-0.83905l2.2625-6.2156h1.102zm-1.7449-2.442-1.0895-3.0515-1.0937 3.0515z"/>
<path d="m92.132 25.571h-1.0728l-2.4587-2.7676-0.61781 0.65955v2.1081h-0.82653v-6.2156h0.82653v3.2435l3.0181-3.2435h1.0018l-2.776 2.9221z"/>
<path d="m97.738 23.074q0 0.67625-0.15028 1.1813-0.1461 0.50092-0.48423 0.83488-0.32143 0.31725-0.75139 0.46336-0.42996 0.1461-1.0018 0.1461-0.58441 0-1.0185-0.15445-0.43414-0.15445-0.73052-0.45501-0.33812-0.3423-0.4884-0.82653-0.1461-0.48423-0.1461-1.1897v-3.7194h0.82653v3.7611q0 0.5051 0.06679 0.79731 0.07096 0.29221 0.23376 0.53014 0.18367 0.27134 0.49675 0.40909 0.31725 0.13776 0.75974 0.13776 0.44666 0 0.75974-0.13358 0.31308-0.13776 0.50092-0.41326 0.1628-0.23794 0.22959-0.54267 0.07096-0.3089 0.07096-0.76391v-3.782h0.82653z"/>
<path d="m103.25 25.571h-3.9323v-6.2156h0.82653v5.481h3.1057z"/>
<path d="m107.8 20.09h-2.2208v5.481h-0.82653v-5.481h-2.2208v-0.73469h5.2681z"/>
<path d="m112.73 25.571h-4.0951v-6.2156h4.0951v0.73469h-3.2685v1.7031h3.2685v0.73469h-3.2685v2.3084h3.2685z"/>
<path d="m118.47 20.09h-2.2208v5.481h-0.82652v-5.481h-2.2208v-0.73469h5.2681z"/>
<path d="m126.85 25.571h-4.8506v-0.76808l3.8112-4.7129h-3.6693v-0.73469h4.6169v0.74721l-3.8488 4.7337h3.9406z"/>
<path d="m133.07 25.571h-0.8808l-0.60945-1.7324h-2.6883l-0.60946 1.7324h-0.83905l2.2625-6.2156h1.102zm-1.7449-2.442-1.0895-3.0515-1.0937 3.0515z"/>
<path d="m141.71 23.659q0 0.46336-0.17532 0.81818-0.17532 0.35482-0.47171 0.58441-0.35064 0.27551-0.77225 0.39239-0.41744 0.11688-1.0645 0.11688h-2.2041v-6.2156h1.8409q0.68042 0 1.0186 0.05009 0.33812 0.05009 0.64702 0.20872 0.3423 0.1795 0.49676 0.46336 0.15445 0.27968 0.15445 0.67208 0 0.44248-0.22542 0.75556-0.22542 0.3089-0.60111 0.49675v0.03339q0.63033 0.12941 0.9935 0.55519 0.36317 0.42161 0.36317 1.0686zm-1.3901-2.801q0-0.22542-0.0751-0.37987t-0.24212-0.25046q-0.19619-0.11271-0.47588-0.13776-0.27968-0.02922-0.69294-0.02922h-0.98515v1.795h1.0686q0.38821 0 0.6178-0.03757 0.22959-0.04174 0.42579-0.16698 0.1962-0.12523 0.27551-0.32143 0.0835-0.20037 0.0835-0.4717zm0.53014 2.8344q0-0.37569-0.11271-0.59694-0.1127-0.22124-0.40909-0.37569-0.20037-0.10436-0.4884-0.13358-0.28385-0.0334-0.69294-0.0334h-1.2982v2.3126h1.0937q0.54267 0 0.88914-0.05427 0.34648-0.05844 0.56772-0.20872 0.23376-0.1628 0.3423-0.37152 0.10853-0.20872 0.10853-0.53849z"/>
<path d="m147.78 25.571h-0.88079l-0.60946-1.7324h-2.6883l-0.60946 1.7324h-0.83905l2.2625-6.2156h1.102zm-1.7449-2.442-1.0895-3.0515-1.0937 3.0515z"/>
<path d="m153.47 25.571h-1.0227l-2.9471-5.5603v5.5603h-0.77226v-6.2156h1.2815l2.6883 5.076v-5.076h0.77226z"/>
<path d="m160.12 25.571h-1.0728l-2.4587-2.7676-0.61781 0.65955v2.1081h-0.82653v-6.2156h0.82653v3.2435l3.0181-3.2435h1.0018l-2.776 2.9221z"/>
<path d="m165.94 25.571h-0.88079l-0.60946-1.7324h-2.6883l-0.60946 1.7324h-0.83905l2.2625-6.2156h1.102zm-1.7449-2.442-1.0895-3.0515-1.0937 3.0515z"/>
<path d="m172.03 25.571h-1.0728l-2.0788-2.4712h-1.1646v2.4712h-0.82653v-6.2156h1.7407q0.56354 0 0.93923 0.07514 0.37569 0.07096 0.67625 0.25881 0.33812 0.21289 0.52597 0.5385 0.19202 0.32143 0.19202 0.81818 0 0.67208-0.33812 1.1271-0.33813 0.45083-0.93089 0.68042zm-1.9327-4.4666q0-0.26716-0.096-0.4717-0.0918-0.20872-0.30891-0.35065-0.1795-0.12106-0.42578-0.16698-0.24629-0.05009-0.58024-0.05009h-0.97263v2.346h0.83487q0.39239 0 0.6846-0.06679 0.29221-0.07097 0.49675-0.25881 0.18785-0.17532 0.27551-0.40074 0.0918-0.22959 0.0918-0.58024z"/>
<path d="m177.35 23.796q0 0.36317-0.17115 0.71799-0.16697 0.35482-0.4717 0.60111-0.33395 0.26716-0.78061 0.41744-0.44248 0.15028-1.0686 0.15028-0.67207 0-1.2106-0.12523-0.53432-0.12523-1.0895-0.37152v-1.0352h0.0584q0.4717 0.39239 1.0895 0.60528 0.61781 0.21289 1.1605 0.21289 0.76808 0 1.1939-0.28803 0.42996-0.28803 0.42996-0.76808 0-0.41326-0.20454-0.60946-0.20037-0.1962-0.61364-0.30473-0.31308-0.08349-0.68042-0.13776-0.36317-0.05427-0.77226-0.13775-0.82653-0.17532-1.2273-0.59694-0.39656-0.42579-0.39656-1.1062 0-0.78061 0.65955-1.2774 0.65955-0.50092 1.6739-0.50092 0.65538 0 1.2022 0.12523 0.54685 0.12523 0.96846 0.3089v0.9768h-0.0584q-0.35482-0.30056-0.93506-0.49675-0.57607-0.20037-1.1814-0.20037-0.66373 0-1.0686 0.27551-0.40074 0.27551-0.40074 0.70964 0 0.38822 0.20037 0.60946 0.20037 0.22124 0.70547 0.33812 0.26716 0.05844 0.75974 0.14193 0.49257 0.08349 0.83487 0.17115 0.69295 0.18367 1.0436 0.55519 0.35065 0.37152 0.35065 1.0394z"/>
<path d="m183.11 20.09h-2.2208v5.481h-0.82653v-5.481h-2.2208v-0.73469h5.2681z"/>
<path d="m188.84 19.355-2.2625 6.2156h-1.102l-2.2625-6.2156h0.88496l1.9494 5.4684 1.9494-5.4684z"/>
<path d="m194.42 20.069q0.37987 0.41744 0.58024 1.0227 0.20454 0.60528 0.20454 1.3734t-0.20872 1.3775q-0.20454 0.60528-0.57606 1.0102-0.38404 0.42161-0.91002 0.6345-0.52179 0.21289-1.1939 0.21289-0.65537 0-1.1939-0.21707-0.53432-0.21707-0.91001-0.63033-0.3757-0.41326-0.58024-1.0144-0.20037-0.60111-0.20037-1.3734 0-0.75974 0.20037-1.3608 0.20037-0.60528 0.58441-1.0352 0.36735-0.40909 0.91002-0.62616 0.54684-0.21707 1.1897-0.21707 0.6679 0 1.198 0.22124 0.53432 0.21707 0.90584 0.62198zm-0.0751 2.3961q0-1.2106-0.54267-1.8659-0.54267-0.65955-1.4819-0.65955-0.94759 0-1.4902 0.65955-0.5385 0.65538-0.5385 1.8659 0 1.2231 0.55102 1.8743 0.55102 0.64703 1.4777 0.64703t1.4736-0.64703q0.55102-0.6512 0.55102-1.8743z"/>
<path d="m81.429 30.755q0.37987 0.41744 0.58024 1.0227 0.20454 0.60528 0.20454 1.3734t-0.20872 1.3775q-0.20454 0.60528-0.57606 1.0102-0.38404 0.42161-0.91001 0.6345-0.5218 0.21289-1.1939 0.21289-0.65538 0-1.1939-0.21707-0.53432-0.21707-0.91001-0.63033t-0.58024-1.0144q-0.20037-0.60111-0.20037-1.3734 0-0.75974 0.20037-1.3608 0.20037-0.60528 0.58441-1.0352 0.36734-0.40909 0.91001-0.62616 0.54684-0.21707 1.1897-0.21707 0.6679 0 1.198 0.22124 0.53432 0.21707 0.90584 0.62198zm-0.07514 2.3961q0-1.2106-0.54267-1.8659-0.54267-0.65955-1.4819-0.65955-0.94758 0-1.4903 0.65955-0.53849 0.65538-0.53849 1.8659 0 1.2231 0.55102 1.8743 0.55102 0.64703 1.4777 0.64703t1.4736-0.64703q0.55102-0.6512 0.55102-1.8743z"/>
<path d="m88.041 34.483q0 0.36317-0.17115 0.71799-0.16698 0.35482-0.4717 0.60111-0.33395 0.26716-0.78061 0.41744-0.44248 0.15028-1.0686 0.15028-0.67207 0-1.2106-0.12523-0.53432-0.12523-1.0895-0.37152v-1.0352h0.05844q0.4717 0.39239 1.0895 0.60528 0.61781 0.21289 1.1605 0.21289 0.76808 0 1.1939-0.28803 0.42996-0.28803 0.42996-0.76808 0-0.41326-0.20454-0.60946-0.20037-0.1962-0.61363-0.30473-0.31308-0.08349-0.68042-0.13776-0.36317-0.05427-0.77226-0.13775-0.82653-0.17532-1.2273-0.59694-0.39656-0.42579-0.39656-1.1062 0-0.78061 0.65955-1.2774 0.65955-0.50092 1.6739-0.50092 0.65538 0 1.2022 0.12523 0.54684 0.12523 0.96846 0.3089v0.9768h-0.05844q-0.35482-0.30056-0.93506-0.49675-0.57606-0.20037-1.1813-0.20037-0.66373 0-1.0686 0.27551-0.40074 0.27551-0.40074 0.70964 0 0.38822 0.20037 0.60946 0.20037 0.22124 0.70547 0.33812 0.26716 0.05844 0.75974 0.14193 0.49258 0.08349 0.83488 0.17115 0.69295 0.18367 1.0436 0.55519 0.35065 0.37152 0.35065 1.0394z"/>
<path d="m91.56 36.257h-2.4545v-0.6345h0.814v-4.9466h-0.814v-0.6345h2.4545v0.6345h-0.814v4.9466h0.814z"/>
<path d="m98.152 35.798q-0.50927 0.23376-1.1146 0.40909-0.60111 0.17115-1.1647 0.17115-0.72634 0-1.3316-0.20037-0.60528-0.20037-1.0311-0.60111-0.42996-0.40491-0.66373-1.0102-0.23376-0.60946-0.23376-1.4235 0-1.4903 0.86827-2.3502 0.87244-0.8641 2.3919-0.8641 0.53015 0 1.0812 0.12941 0.55519 0.12523 1.1939 0.42996v0.98098h-0.07514q-0.12941-0.10018-0.37569-0.26298t-0.48423-0.27133q-0.28803-0.12941-0.65538-0.21289-0.36317-0.08766-0.82653-0.08766-1.0436 0-1.6531 0.67207-0.60528 0.6679-0.60528 1.8117 0 1.2064 0.6345 1.8785 0.6345 0.6679 1.7282 0.6679 0.40074 0 0.79731-0.07931 0.40074-0.07931 0.7013-0.20454v-1.5237h-1.6656v-0.72634h2.4838z"/>
<path d="m104.28 33.761q0 0.67625-0.15028 1.1813-0.1461 0.50092-0.48422 0.83488-0.32143 0.31725-0.75139 0.46336t-1.0018 0.1461q-0.58441 0-1.0186-0.15445-0.43413-0.15445-0.73051-0.45501-0.33813-0.3423-0.48841-0.82653-0.1461-0.48423-0.1461-1.1897v-3.7194h0.82653v3.7611q0 0.5051 0.0668 0.79731 0.071 0.29221 0.23376 0.53014 0.18367 0.27134 0.49675 0.40909 0.31725 0.13775 0.75974 0.13775 0.44666 0 0.75973-0.13358 0.31308-0.13775 0.50093-0.41326 0.1628-0.23794 0.22959-0.54267 0.071-0.3089 0.071-0.76391v-3.782h0.82653z"/>
<path d="m111 36.257h-1.0728l-2.0788-2.4712h-1.1646v2.4712h-0.82652v-6.2156h1.7407q0.56354 0 0.93923 0.07514 0.3757 0.07096 0.67625 0.25881 0.33813 0.21289 0.52597 0.5385 0.19203 0.32143 0.19203 0.81818 0 0.67207-0.33813 1.1271-0.33812 0.45083-0.93088 0.68042zm-1.9327-4.4666q0-0.26716-0.096-0.4717-0.0918-0.20872-0.3089-0.35065-0.1795-0.12106-0.42579-0.16698-0.24629-0.05009-0.58024-0.05009h-0.97263v2.346h0.83488q0.39239 0 0.68459-0.06679 0.29221-0.07097 0.49675-0.25881 0.18785-0.17532 0.27551-0.40074 0.0918-0.22959 0.0918-0.58024z"/>
<path d="m116.7 36.257h-0.88079l-0.60946-1.7324h-2.6883l-0.60946 1.7324h-0.83904l2.2625-6.2156h1.102zm-1.7449-2.442-1.0895-3.0515-1.0937 3.0515z"/>
<path d="m122.38 36.257h-1.0227l-2.9471-5.5603v5.5603h-0.77226v-6.2156h1.2815l2.6883 5.076v-5.076h0.77226z"/>
<path d="m126.32 34.641q0 0.81818-0.50092 1.2607-0.49675 0.44248-1.3358 0.44248-0.20037 0-0.53432-0.03757-0.33395-0.0334-0.55937-0.08349v-0.77226h0.0459q0.17115 0.05844 0.42161 0.12106 0.25046 0.06262 0.51345 0.06262 0.38404 0 0.60946-0.08766 0.22959-0.08766 0.33812-0.25046 0.11271-0.16698 0.14193-0.40909 0.0334-0.24211 0.0334-0.55937v-3.6275h-1.3149v-0.65955h2.1414z"/>
<path d="m132.02 36.257h-4.0951v-6.2156h4.0951v0.73469h-3.2685v1.7031h3.2685v0.73469h-3.2685v2.3084h3.2685z"/>
<path d="m138.53 36.257h-2.4545v-0.6345h0.814v-4.9466h-0.814v-0.6345h2.4545v0.6345h-0.814v4.9466h0.814z"/>
<path d="m146.91 30.776h-3.1433v1.7532h2.7008v0.73469h-2.7008v2.993h-0.82652v-6.2156h3.9698z"/>
<path d="m150.04 36.257h-2.4545v-0.6345h0.814v-4.9466h-0.814v-0.6345h2.4545v0.6345h-0.814v4.9466h0.814z"/>
<path d="m156.19 36.257h-1.0227l-2.9471-5.5603v5.5603h-0.77226v-6.2156h1.2815l2.6883 5.076v-5.076h0.77226z"/>
<path d="m162.75 36.257h-0.88079l-0.60946-1.7324h-2.6883l-0.60945 1.7324h-0.83905l2.2625-6.2156h1.102zm-1.7449-2.442-1.0895-3.0515-1.0937 3.0515z"/>
<path d="m168.43 36.257h-1.0227l-2.9471-5.5603v5.5603h-0.77226v-6.2156h1.2815l2.6883 5.076v-5.076h0.77226z"/>
<path d="m174.6 34.483q0 0.36317-0.17115 0.71799-0.16698 0.35482-0.47171 0.60111-0.33395 0.26716-0.7806 0.41744-0.44249 0.15028-1.0686 0.15028-0.67208 0-1.2106-0.12523-0.53432-0.12523-1.0895-0.37152v-1.0352h0.0584q0.4717 0.39239 1.0895 0.60528 0.61781 0.21289 1.1605 0.21289 0.76809 0 1.1939-0.28803 0.42996-0.28803 0.42996-0.76808 0-0.41326-0.20455-0.60946-0.20037-0.1962-0.61363-0.30473-0.31308-0.08349-0.68042-0.13776-0.36318-0.05427-0.77226-0.13775-0.82653-0.17532-1.2273-0.59694-0.39657-0.42579-0.39657-1.1062 0-0.78061 0.65956-1.2774 0.65955-0.50092 1.6739-0.50092 0.65538 0 1.2022 0.12523 0.54684 0.12523 0.96845 0.3089v0.9768h-0.0584q-0.35482-0.30056-0.93506-0.49675-0.57606-0.20037-1.1813-0.20037-0.66373 0-1.0686 0.27551-0.40074 0.27551-0.40074 0.70964 0 0.38822 0.20037 0.60946 0.20037 0.22124 0.70546 0.33812 0.26716 0.05844 0.75974 0.14193 0.49258 0.08349 0.83488 0.17115 0.69294 0.18367 1.0436 0.55519 0.35065 0.37152 0.35065 1.0394z"/>
<path d="m178.12 36.257h-2.4545v-0.6345h0.814v-4.9466h-0.814v-0.6345h2.4545v0.6345h-0.814v4.9466h0.814z"/>
<path d="m181.81 34.641q0 0.81818-0.50093 1.2607-0.49675 0.44248-1.3358 0.44248-0.20037 0-0.53432-0.03757-0.33395-0.0334-0.55936-0.08349v-0.77226h0.0459q0.17114 0.05844 0.42161 0.12106 0.25046 0.06262 0.51345 0.06262 0.38404 0 0.60945-0.08766 0.22959-0.08766 0.33813-0.25046 0.11271-0.16698 0.14193-0.40909 0.0334-0.24211 0.0334-0.55937v-3.6275h-1.3149v-0.65955h2.1415z"/>
<path d="m187.51 36.257h-4.0951v-6.2156h4.0951v0.73469h-3.2685v1.7031h3.2685v0.73469h-3.2685v2.3084h3.2685z"/>
</g>
</g>
</svg>
