<?xml version="1.0" encoding="UTF-8" standalone="no"?>
<svg
   xmlns:dc="http://purl.org/dc/elements/1.1/"
   xmlns:cc="http://creativecommons.org/ns#"
   xmlns:rdf="http://www.w3.org/1999/02/22-rdf-syntax-ns#"
   xmlns:svg="http://www.w3.org/2000/svg"
   xmlns="http://www.w3.org/2000/svg"
   xmlns:sodipodi="http://sodipodi.sourceforge.net/DTD/sodipodi-0.dtd"
   xmlns:inkscape="http://www.inkscape.org/namespaces/inkscape"
   width="1213.5559mm"
   height="270.61871mm"
   viewBox="0 0 1213.5559 270.61871"
   version="1.1"
   id="svg8"
   inkscape:version="1.0.1 (3bc2e813f5, 2020-09-07)"
   sodipodi:docname="belgrade.svg">
  <defs
     id="defs2">
    <clipPath
       clipPathUnits="userSpaceOnUse"
       id="clipPath849">
      <path
         d="M 0,2580 H 3440 V 0 H 0 Z"
         id="path847" />
    </clipPath>
  </defs>
  <sodipodi:namedview
     id="base"
     pagecolor="#ffffff"
     bordercolor="#666666"
     borderopacity="1.0"
     inkscape:pageopacity="0.0"
     inkscape:pageshadow="2"
     inkscape:zoom="0.29058099"
     inkscape:cx="2392.7744"
     inkscape:cy="316.85318"
     inkscape:document-units="mm"
     inkscape:current-layer="layer1"
     inkscape:document-rotation="0"
     showgrid="false"
     inkscape:window-width="2560"
     inkscape:window-height="1377"
     inkscape:window-x="1912"
     inkscape:window-y="-8"
     inkscape:window-maximized="1" />
  <metadata
     id="metadata5">
    <rdf:RDF>
      <cc:Work
         rdf:about="">
        <dc:format>image/svg+xml</dc:format>
        <dc:type
           rdf:resource="http://purl.org/dc/dcmitype/StillImage" />
        <dc:title></dc:title>
      </cc:Work>
    </rdf:RDF>
  </metadata>
  <g
     inkscape:label="Layer 1"
     inkscape:groupmode="layer"
     id="layer1"
     transform="translate(417.56637,-51.64972)">
    <path
       d="m 177.87882,273.25884 h -0.22648 L 58.672393,217.77325 178.63625,273.06834 c -0.2512,0.0624 -0.50377,0.1256 -0.75743,0.1905 m -7.43762,0 -227.678167,-107.64944 -0.0882,-1.35326 233.739267,109.0027 z m -2.67264,0 -116.953577,-55.98195 118.401727,55.98195 z m -9.61212,7.21923 c -10.51386,5.46807 -20.69677,15.2908 -26.67918,21.67044 H -54.038677 v -15.70144 l -0.16261,-10.04816 H 167.57455 c -3.20638,1.15959 -6.39869,2.50897 -9.41774,4.07916 m -212.456897,-10.19598 -1.30844,-51.89432 -0.23673,-7.81436 23.58708,62.68543 h -21.99391 z m 23.27346,2.97675 h -0.67238 l -10.82641,-28.77325 z m -24.98267,-68.11328 35.56037,68.11328 h -10.01395 l -25.40952,-63.58044 z m 36.76333,68.11328 h -0.61278 l -15.10877,-28.93978 z m -36.89313,-72.40024 47.2609295,72.40024 h -9.7723095 l -37.37999,-68.80895 z m 48.6871895,72.40024 h -0.80116 L -31.250987,238.02798 Z M -56.234347,197.70477 2.6982225,273.25884 h -9.51865 l -49.3380895,-73.0377 z m 60.8333395,75.55407 h -1.23685 l -34.7912795,-44.6038 z m -60.9158895,-78.27751 70.85645,78.27751 H 5.2717225 L -56.253057,197.08953 Z m 72.71737,78.27751 h -1.15465 l -39.99581,-44.18436 z m -72.78828,-80.62524 82.26142,80.62524 h -8.75808 l -73.45042,-78.86594 z m 84.59361,80.62524 h -1.58467 l -52.16771,-51.13055 z m -84.66277,-82.91055 93.41625,82.91055 h -7.99394 l -85.3708,-81.20592 z m 95.96577,82.91055 h -1.76106 l -60.81112,-53.97217 z m -96.03419,-85.16268 105.09247,85.16268 h -8.25675 l -96.78492,-83.48274 z m 107.85721,85.16268 h -1.93358 l -69.80097,-56.56403 z m -107.91614,-87.11671 116.24662,87.11671 h -7.48525 l -108.71938,-85.72746 z m 119.22795,87.11671 h -2.10855 l -78.57736,-58.88707 z m -119.29462,-89.31415 127.16404,89.31415 h -6.98148 l -120.13282,-87.67622 z m 130.10972,89.31415 h -2.03517 l -84.02037,-59.01195 z m -130.17568,-91.49961 138.60179,91.49961 h -7.50041 l -131.05201,-89.86803 z m 141.51043,91.49961 h -1.95863 L -6.4884475,214.29097 Z m -141.5683,-93.40673 149.77322,93.40673 h -7.24043 l -142.49151,-92.04926 z m 152.64482,93.40673 h -1.88277 L -0.04848747,214.6127 Z m -152.71009,-95.57102 161.221917,95.57102 h -7.508527 l -153.66471,-93.95283 z m 164.058257,95.57102 h -1.81012 L 6.8243025,214.81907 Z M -56.897237,175.79798 115.24808,273.25884 h -6.98957 L -56.856647,177.14489 Z m 174.947787,97.46086 h -1.7399 L 13.835073,215.24206 Z M -56.954387,173.9152 125.60388,273.25884 h -6.47735 L -56.913797,175.25717 Z m 185.329697,99.34364 h -1.6764 L 20.781253,215.62095 Z M -57.019287,171.77137 136.48672,273.25884 h -7.00299 L -56.970607,173.37617 Z M 139.2278,273.25884 h -1.6143 L 28.269673,215.91127 Z M -57.076097,169.89706 146.85063,273.25884 h -6.48266 L -57.035507,171.23373 Z M 149.56243,273.25884 h -1.55435 L 35.826173,216.39811 Z M -57.132527,168.02629 156.96018,273.25884 h -6.22724 L -57.092317,169.36048 Z M 159.64482,273.25884 h -1.4986 L 43.434883,216.87473 Z m -216.823577,-106.76501 -0.0222,-0.34079 223.757777,107.1058 h -5.71325 L -57.148747,167.49112 Z m -4.37232,-0.38489 -152.507593,107.1499 h -5.30331 L -61.460767,164.72112 Z m -0.0712,1.90817 -145.213573,105.24173 h -5.38656 L -61.581417,166.65893 Z m -0.0575,1.90077 -138.362613,103.34096 h -4.95758 L -61.638917,168.55898 Z m -0.066,2.17382 -131.327523,101.16714 h -5.39186 L -61.696407,170.45975 Z m -0.0579,1.91804 -123.961523,99.2491 h -5.7316 L -61.762397,172.63462 Z m -0.0582,1.92336 -116.944413,97.32574 h -5.38269 l 122.368743,-98.7044 z m -0.0589,1.93744 -109.583013,95.3883 h -5.727 l 115.352353,-96.77858 z m -0.0667,2.21369 -102.381423,93.17461 h -5.56012 l 107.991973,-94.83865 z m -0.0596,1.96461 -95.110293,91.21 h -5.89492 l 101.048263,-92.62605 z m -0.0681,2.25285 -87.657173,88.95715 h -6.06918 l 93.777873,-90.65755 z m -0.0688,2.27682 -80.295753,86.68033 h -6.23464 l 86.582593,-88.40647 z m -0.0614,2.03271 -73.375653,84.64762 h -5.80144 l 79.221543,-86.1254 z m -0.0709,2.32905 -66.615023,82.31857 h -5.54921 l 72.217863,-84.0853 z m -0.0642,2.13217 -59.443753,80.1864 h -5.88293 l 65.373973,-81.74567 z m -0.0748,2.4638 -52.431603,77.7226 h -5.8868 l 58.375553,-79.61067 z m -0.085,2.81588 -45.643803,74.90672 h -5.48497 l 51.195813,-77.12321 z m -0.0977,3.22474 -38.871193,71.68198 h -5.45782 l 44.408043,-74.28513 z m -0.12137,4.00791 -31.90451,67.67407 h -5.373163 l 37.378583,-70.99758 z m -0.12912,4.27178 -24.60236,63.40229 h -5.7912 l 30.50046,-66.93112 z m -0.25823,8.53122 -1.30844,51.89432 -0.048,2.97675 h -21.77981 l 23.36943,-62.56515 z m -23.78287,54.87107 2.35305,-6.06391 -2.2652,6.06391 z m -7.15573,0 6.83294,-14.49388 -6.60468,14.49388 z m -6.828373,0 9.787813,-18.04953 -9.502773,18.04953 z m -105.03041,0 7.38646,-5.3534 -7.33001,5.3534 z m -7.20407,0 2.78165,-1.95474 -2.7619,1.95474 z m 148.431603,28.88967 H -253.89365 v -25.7496 h 189.339373 l -0.16264,10.04816 z m -254.285043,0.80716 c 0,0.06 -0.0483,0.10795 -0.1083,0.10795 h -17.3041 c -0.06,0 -0.10831,-0.048 -0.10831,-0.10795 V 153.6894 c 0,-0.0498 0.0335,-0.0931 0.0815,-0.10549 2.82822,-0.71189 5.97359,-1.10948 9.28829,-1.10948 2.84445,0 5.56366,0.29281 8.0652,0.82584 0.0501,0.0106 0.0857,0.0547 0.0857,0.10621 z M 262.59666,153.41211 c 0,-0.10723 0.103,-0.26069 0.16899,-0.23741 0.0564,0.0209 0.0921,0.0991 0.1157,0.12629 -0.01,0.14322 -0.022,0.23741 -0.14676,0.24482 -0.0903,0.006 -0.13793,-0.0455 -0.13793,-0.1337 m 0.30657,1.69193 c 0.01,-0.0364 0.0487,-0.0864 0.0801,-0.0903 0.0325,-0.004 0.10197,0.0395 0.10197,0.0621 0,0.14322 -0.0124,0.28753 -0.0296,0.4304 -0.003,0.0236 -0.0519,0.042 -0.0794,0.0631 -0.0201,-0.0279 -0.0526,-0.0533 -0.0579,-0.0836 -0.0127,-0.0716 -0.0124,-0.14533 -0.0188,-0.2441 0,-0.029 -0.0103,-0.0864 0.003,-0.13759 m -0.091,8.41939 c -0.0106,-0.0653 -0.043,-0.13687 -0.0272,-0.19508 0.0392,-0.14181 0.18486,-0.55634 0.24625,-0.71966 0.006,0.20354 0.0702,0.77681 0.073,0.84984 -0.0871,0.0156 -0.2078,0.0296 -0.2921,0.0649 m 0.79058,-2.12513 c 0.12311,-0.14851 0.14393,-0.32703 0.14745,-0.50729 0.008,-0.39687 0.0161,-0.79375 0.0103,-1.19028 -0.005,-0.3175 0.10334,-0.60714 0.19367,-0.90099 0.0409,-0.13335 0.14991,-0.13266 0.23424,-0.003 0.0547,0.0847 0.10054,0.1764 0.14147,0.26882 0.0649,0.14745 0.11499,0.30163 0.18555,0.4459 0.0455,0.0935 0.10655,0.18346 0.17746,0.25929 0.13192,0.14042 0.22294,0.3048 0.22505,0.49107 0.007,0.64558 0.14499,1.27249 0.24308,1.90572 0.0275,0.17745 0.0356,0.35737 0.0529,0.53657 0.007,0.003 0.014,0.003 0.0212,0.005 -0.0335,0.23638 -0.0656,0.47273 -0.10089,0.70874 -0.0172,0.11676 -0.0896,0.15981 -0.20603,0.151 -0.43145,-0.0311 -0.99166,-0.0752 -1.42346,-0.10478 -0.018,-0.09 -0.0751,-1.04423 -0.0981,-1.50495 -0.0106,-0.20886 0.0614,-0.39865 0.19617,-0.56057 m -1.37833,-9.41777 c -0.10017,-0.0441 -0.19296,-0.10371 -0.29104,-0.15346 -0.0723,-0.0363 -0.10017,-0.0832 -0.0434,-0.15134 0.0935,-0.11112 0.0378,-0.19579 -0.0335,-0.2921 -0.10092,-0.13509 -0.19156,-0.27903 -0.27729,-0.42439 -0.0212,-0.0356 -0.007,-0.0924 -0.009,-0.1397 0.0469,0.003 0.0991,-0.006 0.13936,0.0116 0.1679,0.0734 0.33512,0.14923 0.49493,0.23744 0.0423,0.0233 0.0582,0.0942 0.072,0.11816 -0.0156,0.11573 -0.048,0.20146 -0.0328,0.27834 0.0235,0.12243 0.0815,0.2385 0.1203,0.35844 0.0204,0.0645 0.0317,0.13157 0.0473,0.1979 -0.0624,-0.013 -0.12948,-0.0159 -0.18663,-0.0409 m -0.69779,-0.43391 c -0.0114,-0.009 -0.0233,-0.018 -0.0349,-0.0268 -0.0638,0 -0.12946,0.007 -0.19261,-0.003 -0.0579,-0.007 -0.16158,-0.03 -0.16193,-0.0483 -0.003,-0.0963 0.01,-0.19791 0.0434,-0.28718 0.007,-0.0169 0.15312,-0.0106 0.20392,0.0268 0.0779,0.0571 0.13441,0.14779 0.18767,0.23177 0.0116,0.0183 -0.0289,0.0695 -0.0455,0.10546 m -0.64101,-0.0455 c -0.0251,0.0547 -0.11641,0.0783 -0.1778,0.11608 -0.006,-0.007 -0.0116,-0.0151 -0.0172,-0.0222 -0.0589,-0.008 -0.12454,-0.003 -0.17497,-0.0279 -0.0406,-0.0198 -0.0854,-0.0766 -0.0857,-0.11679 0,-0.0398 0.0487,-0.0847 0.0843,-0.11922 0.0204,-0.0201 0.0642,-0.0161 0.0854,-0.0363 0.049,-0.0462 0.0931,-0.12946 0.16687,-0.0624 0.0744,0.0685 0.17285,0.15346 0.11922,0.26881 m 535.10403,121.7262 c -20.6749,-4.0654 -41.6126,-6.3274 -62.5807,-6.78884 l -0.06,-0.14147 -4.1585,-21.62633 v -72.57804 l 3.9934,-3.26144 h 0.3471 c 0.1415,0 0.2636,-0.10054 0.29,-0.23952 l 0.9571,-4.99462 c 0.02,-0.1016 -0.016,-0.20603 -0.092,-0.27517 l -0.3602,-0.32491 c -0.049,-0.0445 -0.1125,-0.0709 -0.1785,-0.0755 l -3.7895,-0.24728 c -0.1556,-0.01 -0.2766,-0.13901 -0.2766,-0.29493 v -4.97382 c 0,-0.10512 0.056,-0.20215 0.146,-0.25506 l 4.2771,-2.50576 c 0.097,-0.0571 0.1528,-0.16336 0.1453,-0.27554 l -0.5729,-8.34001 c 0,-0.0536 -0.022,-0.10443 -0.052,-0.14817 l -0.7874,-1.13419 c -0.034,-0.0497 -0.053,-0.10829 -0.053,-0.16862 v -1.99355 c 0,-0.11536 -0.067,-0.22048 -0.1721,-0.26882 l -1.8377,-0.84312 c -0.042,-0.009 -0.082,-0.018 -0.1234,-0.0272 h -1.7061 c 0.163,0 0.2953,-0.1323 0.2953,-0.29528 v -4.92972 h 1.8016 c 0.1634,0 0.2957,-0.13229 0.2957,-0.29561 v -0.76343 c 0,-0.16333 -0.1323,-0.29562 -0.2957,-0.29562 h -1.802 c 0,-0.003 0,-0.007 0,-0.01 l -0.4236,-6.19797 c -0.011,-0.15486 -0.139,-0.27517 -0.295,-0.27517 h -1.7233 v -35.2693 h 0.8894 c 0.1633,0 0.2956,-0.13229 0.2956,-0.29562 V 91.037 c 0,-0.16299 -0.1323,-0.29528 -0.2956,-0.29528 h -0.8894 v -1.68804 c 0,-0.16333 -0.1326,-0.29562 -0.2956,-0.29562 h -0.6964 V 71.19608 h 0.7927 c 0.1633,0 0.2956,-0.13229 0.2956,-0.29562 v -1.0541 c 0,-0.16335 -0.1323,-0.29565 -0.2956,-0.29565 h -0.7927 v -0.67204 c 0,-0.14462 -0.1044,-0.26493 -0.2417,-0.28998 V 51.94534 c 0,-0.16298 -0.1326,-0.29562 -0.2956,-0.29562 h -0.6188 c -0.1629,0 -0.2952,0.13264 -0.2952,0.29562 v 16.64335 c -0.138,0.0251 -0.2424,0.14536 -0.2424,0.28998 v 0.67204 h -0.793 c -0.163,0 -0.2953,0.1323 -0.2953,0.29565 v 1.0541 c 0,0.16333 0.1323,0.29562 0.2953,0.29562 h 0.793 v 17.56198 h -0.696 c -0.163,0 -0.2953,0.13229 -0.2953,0.29562 v 1.68804 h -0.89 c -0.1634,0 -0.2957,0.13229 -0.2957,0.29528 v 1.77977 c 0,0.16333 0.1323,0.29562 0.2957,0.29562 h 0.89 v 35.2693 h -1.7244 c -0.1552,0 -0.2843,0.12031 -0.2945,0.27517 l -0.4237,6.19797 c 0,0.003 0,0.006 0,0.01 h -1.8017 c -0.1633,0 -0.2956,0.13229 -0.2956,0.29562 v 0.76343 c 0,0.16332 0.1323,0.29561 0.2956,0.29561 h 1.8013 v 4.92972 c 0,0.16298 0.1323,0.29528 0.2953,0.29528 h -1.706 c -0.041,0.009 -0.082,0.018 -0.1231,0.0272 l -1.838,0.84312 c -0.1048,0.0483 -0.1722,0.15346 -0.1722,0.26882 v 1.99355 c 0,0.0603 -0.018,0.11925 -0.053,0.16862 l -0.7874,1.13419 c -0.031,0.0437 -0.048,0.0945 -0.052,0.14817 l -0.573,8.34001 c -0.01,0.11218 0.049,0.21839 0.1457,0.27554 l 4.2764,2.50576 c 0.091,0.0529 0.1461,0.14994 0.1461,0.25506 v 4.97382 c 0,0.15592 -0.1211,0.28503 -0.2763,0.29493 l -3.7895,0.24728 c -0.066,0.005 -0.1295,0.0311 -0.1785,0.0755 l -0.3605,0.32491 c -0.077,0.0691 -0.1119,0.17357 -0.092,0.2748 l 0.9567,4.99499 c 0.027,0.13898 0.1485,0.23952 0.2903,0.23952 h 0.3468 l 3.9935,3.26144 v 72.57804 l -4.1586,21.62633 -0.06,0.14147 c -15.8376,0.34854 -31.6576,1.72614 -47.3601,4.12996 v -3.46816 h 2.5284 l -0.8026,-14.74398 h -3.4776 l -0.8025,-14.74401 h -3.477 l -0.8029,-14.74399 h -3.4774 l -0.8025,-14.74398 h -3.4774 l -0.8022,-14.74402 h -4.5109 v -16.34913 h -10.8328 -1.8045 -15.4213 l -0.3439,16.34913 h -4.7901 v 71.95185 h 1.2919 v 5.92527 h -1.2919 v 6.67279 c -1.912,-0.0384 -3.8498,-0.0723 -5.812,-0.10126 v -7.90892 h -3.1803 v -5.32622 h 0.9367 l -0.2678,-16.24965 -0.2674,-14.74436 h -0.1337 l -0.2678,-14.74398 -0.267,-14.74402 h -0.4015 l -0.2677,-14.74398 h -0.1937 v -16.34879 h -12.6372 -15.0968 v 16.34879 h -0.32736 v 74.6266 h 1.29151 v 5.92561 h -1.29151 v 7.88 c -5.68291,0.0741 -11.1633,0.18804 -16.43452,0.33515 v -6.87776 h -1.29185 v -5.92527 h 1.29185 v -71.95185 h -4.79002 L 556.7747,177.03025 H 541.67792 529.0407 v 16.34913 h -4.51096 l -0.80221,14.74402 h -3.47734 l -0.80256,14.74398 h -3.47734 l -0.80256,14.74399 h -3.47734 l -0.80256,14.74401 h -3.47734 l -0.80222,14.74398 h 2.52801 v 4.15714 h -6.79802 v -12.01492 c 0,-0.0554 -0.0445,-0.0998 -0.0995,-0.0998 h -1.72932 c -0.0554,0 -0.10019,-0.0448 -0.10019,-0.0998 v -2.5753 c 0,-0.055 -0.0445,-0.0995 -0.0995,-0.0995 h -0.48154 c -0.0469,0 -0.0861,-0.0331 -0.0963,-0.079 -0.27868,-1.28236 -1.45449,-2.2846 -2.93722,-2.48958 -0.0487,-0.007 -0.0857,-0.0476 -0.0857,-0.0974 v -0.3951 h -0.27694 v -1.81399 c 0,-0.0434 0.0279,-0.0818 0.0688,-0.0952 l 0.28258,-0.091 c 0.0409,-0.0135 0.0688,-0.0515 0.0688,-0.0949 v -0.1411 c 0,-0.0674 -0.0656,-0.1157 -0.13018,-0.0945 l -0.1598,0.0512 c -0.0646,0.0212 -0.13018,-0.0272 -0.13018,-0.0945 v -0.68546 c 0,-0.0554 -0.0448,-0.0998 -0.0998,-0.0998 h -0.1951 c -0.0547,0 -0.0995,0.0444 -0.0995,0.0998 v 0.87702 c 0,0.0434 -0.0279,0.0815 -0.0691,0.0949 l -0.28223,0.091 c -0.0416,0.0135 -0.0691,0.0519 -0.0691,0.0952 v 0.14076 c 0,0.0677 0.066,0.11573 0.13018,0.0952 l 0.16015,-0.0519 c 0.0642,-0.0209 0.13018,0.0272 0.13018,0.0949 v 1.5226 c 0,0.055 -0.0444,0.0998 -0.0995,0.0998 h -0.20142 c -0.055,0 -0.0995,0.0445 -0.0995,0.0998 v 0.3147 c 0,0.0483 -0.0356,0.0885 -0.0829,0.0967 -1.42595,0.2413 -2.54601,1.22343 -2.81729,2.47121 -0.01,0.0458 -0.0487,0.0787 -0.0952,0.0787 h -0.22296 c -0.0554,0 -0.10054,-0.0455 -0.0995,-0.10123 l 0.0667,-4.72583 c 0.0127,-0.0262 0.0236,-0.0487 0.036,-0.0751 l 0.84949,-0.70765 c 0.0124,-0.0282 0.023,-0.0522 0.0356,-0.0804 l -0.0349,-0.91334 c -0.009,-0.022 -0.0177,-0.042 -0.0268,-0.0639 l -1.52577,-1.63724 c -0.0209,-0.0106 -0.0395,-0.0204 -0.0603,-0.031 l -1.29786,-0.16616 c -0.042,-0.005 -0.0755,-0.037 -0.0836,-0.0783 -0.6999,-3.48581 -3.67064,-6.3387 -7.6186,-7.49689 -0.042,-0.0119 -0.0712,-0.0508 -0.0712,-0.0945 v -11.04265 c 0,-0.0554 -0.0445,-0.0998 -0.0995,-0.0998 h -0.37748 c -0.0547,0 -0.0995,-0.0448 -0.0995,-0.0999 v -4.75721 c 0,-0.055 -0.0448,-0.0998 -0.0995,-0.0998 h -0.94543 c -0.0455,0 -0.0843,-0.031 -0.0952,-0.0752 -0.59055,-2.37595 -2.82152,-4.17017 -5.52908,-4.3053 -0.0533,-0.003 -0.0949,-0.0452 -0.0949,-0.0984 v -2.64935 c 0,-0.055 0.0448,-0.0999 0.0998,-0.0999 h 0.13724 c 0.055,0 0.0995,-0.0444 0.0995,-0.0995 v -0.14568 c 0,-0.0547 0.0448,-0.0995 0.0995,-0.0995 h 0.66428 c 0.0554,0 0.0998,-0.0448 0.0998,-0.0999 v -0.21801 c 0,-0.055 -0.0444,-0.0998 -0.0998,-0.0998 h -0.66428 c -0.0547,0 -0.0995,-0.0444 -0.0995,-0.0995 v -0.14571 c 0,-0.055 -0.0445,-0.0995 -0.0995,-0.0995 h -0.13724 c -0.055,0 -0.0998,-0.0448 -0.0998,-0.10017 v -0.62937 c 0,-0.055 -0.0445,-0.0995 -0.0995,-0.0995 h -0.27022 c -0.055,0 -0.0998,0.0445 -0.0998,0.0995 v 0.62937 c 0,0.0554 -0.0444,0.10017 -0.0995,0.10017 h -0.13721 c -0.055,0 -0.0995,0.0444 -0.0995,0.0995 v 0.14571 c 0,0.055 -0.0448,0.0995 -0.0999,0.0995 h -0.66392 c -0.055,0 -0.0998,0.0448 -0.0998,0.0998 v 0.21801 c 0,0.055 0.0448,0.0999 0.0998,0.0999 h 0.66392 c 0.055,0 0.0999,0.0448 0.0999,0.0995 v 0.14568 c 0,0.055 0.0444,0.0995 0.0995,0.0995 h 0.13721 c 0.055,0 0.0995,0.0448 0.0995,0.0999 v 2.64935 c 0,0.0533 -0.0416,0.0956 -0.0945,0.0984 -2.70756,0.13513 -4.93853,1.92935 -5.52908,4.3053 -0.0109,0.0441 -0.0497,0.0752 -0.0952,0.0752 h -1.4732 c -0.055,0 -0.0995,-0.0445 -0.0995,-0.0998 v -7.35965 c 0,-0.0434 -0.0282,-0.0819 -0.0695,-0.0952 l -1.54466,-0.49349 c -0.0335,-0.0106 -0.0586,-0.0378 -0.0663,-0.072 -2.41266,-10.61016 -11.63249,-18.63233 -22.82436,-19.22923 -0.0526,-0.003 -0.0938,-0.0458 -0.0938,-0.0984 v -1.4605 c 0,-0.055 -0.0444,-0.0995 -0.0998,-0.0995 h -0.4745 c -0.0554,0 -0.0998,-0.0448 -0.0998,-0.0998 v -3.5574 c 0,-0.055 0.0444,-0.0999 0.0998,-0.0999 h 0.45297 c 0.0547,0 0.0995,-0.0444 0.0995,-0.0998 v -1.07209 c 0,-0.055 0.0448,-0.0998 0.0999,-0.0998 h 1.6256 c 0.055,0 0.0995,-0.0444 0.0995,-0.0995 v -1.01672 c 0,-0.0547 -0.0444,-0.0995 -0.0995,-0.0995 h -1.6256 c -0.055,0 -0.0999,-0.0448 -0.0999,-0.0995 v -1.07209 c 0,-0.0554 -0.0448,-0.1002 -0.0995,-0.1002 h -0.45297 c -0.0554,0 -0.0998,-0.0444 -0.0998,-0.0995 v -1.6129 c 0,-0.055 -0.0448,-0.0998 -0.0998,-0.0998 h -0.9458 c -0.0554,0 -0.1002,0.0448 -0.1002,0.0998 v 1.6129 c 0,0.055 -0.0444,0.0995 -0.0995,0.0995 h -0.45297 c -0.055,0 -0.0995,0.0448 -0.0995,0.1002 v 1.07209 c 0,0.055 -0.0448,0.0995 -0.0998,0.0995 h -1.6256 c -0.055,0 -0.0995,0.0448 -0.0995,0.0998 v 1.01637 c 0,0.055 0.0444,0.0995 0.0995,0.0995 h 1.6256 c 0.055,0 0.0998,0.0448 0.0998,0.0998 v 1.07209 c 0,0.0554 0.0444,0.0998 0.0995,0.0998 h 0.45297 c 0.055,0 0.0995,0.0448 0.0995,0.0999 v 3.5574 c 0,0.055 -0.0444,0.0998 -0.0995,0.0998 h -0.47482 c -0.055,0 -0.0995,0.0444 -0.0995,0.0995 v 1.4605 c 0,0.0526 -0.0413,0.0956 -0.0938,0.0984 -11.32769,0.60396 -20.63573,8.81417 -22.90975,19.61658 -0.007,0.0342 -0.0328,0.0624 -0.0663,0.0734 l -0.32737,0.10443 c -0.0413,0.0135 -0.0691,0.0519 -0.0691,0.0952 v 2.98662 c 0,0.003 0,0.005 0,0.007 -0.0458,0.61526 -0.0698,1.23685 -0.0698,1.86409 0,0.62723 0.0241,1.24884 0.0698,1.86407 0,0.003 0,0.005 0,0.007 v 0.63076 c 0,0.0554 -0.0448,0.0998 -0.1002,0.0998 h -1.47249 c -0.0459,0 -0.0847,-0.031 -0.0956,-0.0751 -0.59055,-2.37596 -2.82151,-4.17018 -5.52907,-4.3053 -0.0529,-0.003 -0.0945,-0.0452 -0.0945,-0.0984 v -2.64935 c 0,-0.055 0.0448,-0.0998 0.0998,-0.0998 h 0.13687 c 0.055,0 0.0998,-0.0445 0.0998,-0.0995 v -0.14568 c 0,-0.0547 0.0444,-0.0995 0.0995,-0.0995 h 0.66427 c 0.055,0 0.0995,-0.0448 0.0995,-0.0999 v -0.21802 c 0,-0.055 -0.0444,-0.0998 -0.0995,-0.0998 h -0.66427 c -0.055,0 -0.0995,-0.0444 -0.0995,-0.0995 v -0.1457 c 0,-0.055 -0.0448,-0.0995 -0.0998,-0.0995 h -0.13687 c -0.055,0 -0.0998,-0.0448 -0.0998,-0.10017 v -0.62936 c 0,-0.055 -0.0448,-0.0995 -0.0995,-0.0995 h -0.27025 c -0.055,0 -0.0998,0.0445 -0.0998,0.0995 v 0.62936 c 0,0.0554 -0.0444,0.10017 -0.0998,0.10017 h -0.1369 c -0.055,0 -0.0998,0.0444 -0.0998,0.0995 v 0.1457 c 0,0.055 -0.0444,0.0995 -0.0998,0.0995 h -0.66395 c -0.0554,0 -0.0998,0.0448 -0.0998,0.0998 v 0.21802 c 0,0.055 0.0444,0.0999 0.0998,0.0999 h 0.66395 c 0.0554,0 0.0998,0.0448 0.0998,0.0995 v 0.14568 c 0,0.055 0.0448,0.0995 0.0998,0.0995 h 0.1369 c 0.0554,0 0.0998,0.0448 0.0998,0.0998 v 2.64935 c 0,0.0533 -0.0416,0.0956 -0.0945,0.0984 -2.70793,0.13512 -4.93855,1.92934 -5.52945,4.3053 -0.0109,0.0441 -0.0494,0.0751 -0.0949,0.0751 h -0.94544 c -0.055,0 -0.0998,0.0448 -0.0998,0.0998 v 4.75721 c 0,0.055 -0.0444,0.0999 -0.0995,0.0999 h -0.37714 c -0.055,0 -0.0998,0.0444 -0.0998,0.0998 v 11.04265 c 0,0.0437 -0.0289,0.0826 -0.0713,0.0945 -1.18321,0.34714 -2.27613,0.84916 -3.24874,1.47215 H 380.96063 V 107.25029 l -8.9722,-7.56074 h -14.24975 v -4.39454 c 0,-0.0603 0.0487,-0.10901 0.10901,-0.10901 h 0.56304 c 0.0603,0 0.109,-0.049 0.109,-0.10935 V 83.20921 c 0,-0.0603 -0.0487,-0.10901 -0.109,-0.10901 h -0.97402 c -0.0603,0 -0.10937,-0.049 -0.10937,-0.10938 V 63.31289 c 0,-0.0603 -0.0487,-0.10935 -0.10864,-0.10935 h -0.60397 c -0.0603,0 -0.10935,0.049 -0.10935,0.10935 v 19.67793 c 0,0.0603 -0.0487,0.10938 -0.10901,0.10938 h -0.97403 c -0.0603,0 -0.10936,0.0487 -0.10936,0.10901 v 11.86744 c 0,0.0603 0.049,0.10935 0.10936,0.10935 h 0.56303 c 0.0603,0 0.10901,0.0487 0.10901,0.10901 v 4.39454 h -14.24975 l -8.97218,10.54807 v 110.19895 h -18.13454 l -0.0512,-6.73806 c 0,-0.0349 0.0193,-0.0667 0.0505,-0.0818 l 0.98988,-0.4953 c 0.0307,-0.0156 0.0505,-0.0469 0.0505,-0.0811 v -1.44497 c 0,-0.0437 -0.031,-0.0808 -0.0737,-0.0892 l -1.42875,-0.27482 c -0.0427,-0.008 -0.0737,-0.0455 -0.0737,-0.0892 v -1.65278 c 0,-0.0501 -0.0406,-0.091 -0.091,-0.091 h -0.54541 c -0.0504,0 -0.091,-0.0406 -0.091,-0.0907 v -24.58191 c 0,-0.0367 0.022,-0.0698 0.0561,-0.084 l 1.38396,-0.57644 0.0268,-0.0177 0.74084,-0.68757 c 0.0462,-0.043 0.0353,-0.11959 -0.0214,-0.14783 l -2.25708,-1.12852 c -0.0307,-0.0156 -0.0504,-0.0473 -0.0504,-0.0818 v -1.42875 c 0,-0.0501 -0.0406,-0.0907 -0.091,-0.0907 h -1.68664 c -0.0236,-0.0109 -0.0441,-0.0201 -0.0677,-0.0307 l -0.88193,-0.99238 c -0.0339,-0.0374 -0.03,-0.0953 0.008,-0.12874 l 0.86995,-0.76094 c 0.0108,-0.0241 0.0201,-0.0445 0.031,-0.0688 v -1.47603 c 0,-0.036 -0.0204,-0.0677 -0.0529,-0.0825 -0.16192,-0.0734 -0.67379,-0.30268 -1.23224,-0.53094 v -0.0924 c 0.18169,-0.0998 0.3062,-0.2907 0.3062,-0.51295 v -1.52257 c -0.008,-0.0214 -0.0169,-0.043 -0.0257,-0.0646 -0.51435,-0.55034 -1.1504,-0.19405 -1.1504,0.31078 v 1.27635 c 0,0.11043 0.0325,0.21238 0.0854,0.30056 -0.31221,-0.11287 -0.59198,-0.20036 -0.77931,-0.23177 -0.72742,-0.12134 -1.03044,-2.42464 -0.90945,-3.75814 0.11819,-1.30069 1.10101,-1.79388 1.14969,-1.81822 0.003,0 0,0 0.004,0 0.0903,-0.0212 2.89703,-0.69744 2.24086,-2.6063 -0.62513,-1.81788 -2.84763,-1.82563 -3.12386,-1.81928 -0.0198,-0.007 -0.0325,-0.0109 -0.0515,-0.0172 -0.21167,-0.1651 -1.79951,-1.42486 -1.85595,-2.10359 -0.0586,-0.70062 0.27657,-0.95144 0.30126,-0.96909 0.003,-0.003 0.003,-0.003 0.005,-0.003 l 0.46427,-0.2748 c 0.0275,-0.0161 0.0445,-0.0462 0.0445,-0.0783 v -1.06222 c 0,-0.0526 -0.0438,-0.0942 -0.0963,-0.0903 -0.19367,0.014 -0.63817,0.0381 -0.96134,-0.008 -0.39616,-0.0564 -0.58102,-0.74684 -0.60393,-0.83855 -0.003,-0.007 -0.003,-0.0138 -0.003,-0.0209 v -3.42442 c 0.003,-0.013 0.006,-0.0257 0.009,-0.0388 l 0.51401,-1.08516 c 0.0135,-0.0282 0.0388,-0.048 0.0699,-0.0515 0.18907,-0.0193 0.88722,-0.16298 1.04386,-1.20899 0.16298,-1.08585 -0.45262,-1.63724 -0.58243,-1.74024 -0.0193,-0.006 -0.0353,-0.0114 -0.0543,-0.018 h -0.92393 c -0.0103,-0.003 -0.019,-0.003 -0.0296,-0.005 -0.14005,-0.0494 -1.26259,-0.46498 -1.31937,-1.14689 -0.0501,-0.60396 0.27516,-0.83185 0.38735,-0.89183 0.0254,-0.003 0.0462,-0.003 0.0716,-0.003 0.19722,0.073 1.17793,0.36055 1.17793,-1.16594 0,-1.27915 -0.89535,-1.49119 -1.33631,-1.51765 -0.0819,-0.005 -0.11678,-0.10546 -0.0557,-0.15909 l 0.26954,-0.23601 c 0.0201,-0.0172 0.0314,-0.042 0.0314,-0.0681 v -0.5207 c -0.0124,-0.0251 -0.023,-0.0466 -0.0356,-0.0716 l -1.26719,-0.9793 c -0.0124,-0.022 -0.023,-0.0413 -0.0349,-0.0628 l -0.62971,-6.11679 c -0.007,-0.0169 -0.0137,-0.0325 -0.0212,-0.0494 l -0.76235,-0.90064 c -0.007,-0.0204 -0.014,-0.0388 -0.0212,-0.0589 v -1.55538 c 0,-0.0427 0.0303,-0.0776 0.072,-0.0875 0.5828,-0.13407 1.01741,-0.65511 1.01741,-1.27881 0,-0.62302 -0.43461,-1.14406 -1.01741,-1.27847 -0.0416,-0.01 -0.072,-0.0448 -0.072,-0.0878 v -4.06506 c 0,-0.0596 0.0564,-0.10303 0.11395,-0.0878 l 0.57362,0.1524 c 0.0575,0.0156 0.1143,-0.0282 0.1143,-0.0878 V 130.064 c 0,-0.0409 -0.0279,-0.0773 -0.0674,-0.0878 l -0.66709,-0.17709 c -0.0399,-0.0106 -0.0674,-0.0469 -0.0674,-0.0882 v -1.56565 c 0,-0.0501 -0.0409,-0.0907 -0.091,-0.0907 h -0.26599 c -0.0505,0 -0.091,0.0406 -0.091,0.0907 v 1.39806 c 0,0.06 -0.0565,0.10337 -0.1143,0.0882 l -0.57328,-0.1524 c -0.0579,-0.0156 -0.1143,0.0282 -0.1143,0.0878 v 0.44591 c 0,0.0409 0.0279,0.0772 0.0674,0.0878 l 0.6671,0.17745 c 0.0399,0.0106 0.0674,0.0466 0.0674,0.0878 v 4.23228 c 0,0.043 -0.0303,0.0783 -0.072,0.0878 -0.5828,0.13441 -1.01777,0.65545 -1.01777,1.27847 0,0.6237 0.43497,1.14474 1.01777,1.27881 0.0416,0.01 0.072,0.0448 0.072,0.0875 v 1.55643 c 0,0.0209 -0.006,0.0399 -0.0199,0.0557 -0.2681,0.31679 -0.67415,0.79693 -0.76411,0.90276 -0.0119,0.014 -0.0191,0.031 -0.0209,0.0494 l -0.6297,6.11679 c -0.0124,0.0214 -0.023,0.0409 -0.0349,0.0628 l -1.26751,0.97895 c -0.0124,0.0254 -0.023,0.0469 -0.0353,0.072 v 0.5207 c 0,0.0262 0.0114,0.0508 0.0311,0.0681 l 0.26916,0.23601 c 0.0617,0.0536 0.0264,0.1538 -0.055,0.15909 -0.44098,0.0265 -1.33633,0.2385 -1.33633,1.51765 0,1.53001 0.98462,1.23791 1.17936,1.16523 0.0243,0.003 0.0441,0.003 0.0688,0.003 0.11075,0.0589 0.43883,0.28643 0.38875,0.89251 -0.0571,0.68192 -1.1797,1.0975 -1.31974,1.14689 -0.0103,0.003 -0.019,0.003 -0.0296,0.005 h -0.92392 c -0.0198,0 -0.0381,0.006 -0.054,0.018 -0.13017,0.10301 -0.74541,0.6544 -0.58242,1.74025 0.15592,1.04071 0.84807,1.18816 1.04103,1.20898 0.0317,0.003 0.0589,0.0225 0.0727,0.0515 l 0.514,1.08516 c 0.003,0.013 0.006,0.0257 0.009,0.0388 v 3.42443 c 0,0.007 -0.003,0.0127 -0.003,0.0201 -0.022,0.0886 -0.20675,0.78283 -0.60397,0.83926 -0.32313,0.0462 -0.76729,0.0222 -0.96096,0.008 -0.0529,-0.004 -0.0966,0.0377 -0.0966,0.0903 v 1.06222 c 0,0.0321 0.0169,0.0621 0.0444,0.0783 l 0.4646,0.27479 c 0.003,0 0.003,0.003 0.005,0.003 0.0307,0.022 0.35877,0.2748 0.30091,0.96838 -0.0568,0.68331 -1.66582,1.95543 -1.86021,2.10677 -0.0159,0.005 -0.0265,0.009 -0.0427,0.014 -0.25434,-0.006 -2.50012,-0.01 -3.12877,1.81928 -0.64736,1.88346 2.07645,2.5668 2.23588,2.60524 0.006,0.003 0.007,0.003 0.0127,0.004 0.0822,0.0409 1.03013,0.54012 1.14618,1.8161 0.12136,1.3335 -0.18166,3.6368 -0.90911,3.75814 -0.18732,0.0314 -0.46707,0.1189 -0.77962,0.23177 0.0533,-0.0882 0.085,-0.19013 0.085,-0.30056 v -1.52258 c -0.008,-0.0214 -0.0167,-0.043 -0.0254,-0.0645 -0.51435,-0.55034 -1.15041,-0.19405 -1.15041,0.31078 v 1.27635 c 0,0.22225 0.12488,0.41312 0.30657,0.51294 v 0.0924 c -0.55845,0.22826 -1.07069,0.45757 -1.23261,0.53094 -0.0321,0.0148 -0.0526,0.0466 -0.0526,0.0826 v 1.47603 c 0.0106,0.0241 0.0201,0.0444 0.0311,0.0688 l 0.86995,0.76095 c 0.0377,0.0335 0.0416,0.0914 0.008,0.12874 l -0.88193,0.99237 c -0.0236,0.0106 -0.0441,0.0198 -0.0677,0.0307 h -1.68698 c -0.0501,0 -0.0907,0.0406 -0.0907,0.0907 v 1.42909 c 0,0.0346 -0.0199,0.066 -0.0505,0.0815 l -2.25705,1.12853 c -0.0568,0.0282 -0.0681,0.10478 -0.0214,0.14782 l 0.74083,0.68758 0.0268,0.0177 1.38393,0.57645 c 0.0339,0.014 0.0561,0.0473 0.0561,0.084 v 24.58191 c 0,0.0501 -0.0409,0.0907 -0.091,0.0907 h -0.54573 c -0.0501,0 -0.091,0.0409 -0.091,0.091 v 1.65277 c 0,0.0437 -0.0307,0.0808 -0.0737,0.0892 l -1.42841,0.27482 c -0.0427,0.008 -0.0737,0.0455 -0.0737,0.0892 v 1.44496 c 0,0.0342 0.019,0.0656 0.0501,0.0812 l 0.99026,0.4953 c 0.031,0.0151 0.0504,0.0469 0.0501,0.0818 l -0.0508,6.73806 h -16.88711 c -0.12348,0 -0.2233,-0.1002 -0.2233,-0.22331 v -9.91941 c 0,-0.12346 -0.1002,-0.22331 -0.22331,-0.22331 h -0.77825 c -0.12345,0 -0.22331,-0.0998 -0.22331,-0.22331 v -0.68474 c 0,-0.12345 -0.0998,-0.22331 -0.2233,-0.22331 h -0.41556 c -0.12348,0 -0.22331,-0.0998 -0.22331,-0.22331 v -0.68508 c 0,-0.12311 -0.0995,-0.22297 -0.22296,-0.22297 h -0.60643 c -0.12311,0 -0.22296,-0.10017 -0.22296,-0.2233 v -1.39452 c 0,-0.12348 -0.10017,-0.22331 -0.22331,-0.22331 h -0.19542 c -0.12137,0 -0.2205,-0.097 -0.22297,-0.21838 0,0 0.0367,-8.70903 0,-9.87671 0,0 0.007,-0.32174 0.004,-0.4826 -0.01,-0.67839 -0.0262,-1.35679 -0.0423,-2.03518 -0.0209,-0.8763 -0.0423,-1.75294 -0.0663,-2.62924 -0.008,-0.29528 -0.0268,-0.59021 -0.0367,-0.88548 -0.0201,-0.61349 -0.0353,-1.22733 -0.0571,-1.84116 -0.0262,-0.73377 -0.0593,-1.46685 -0.0864,-2.20027 -0.0282,-0.76129 -0.0451,-1.52329 -0.0822,-2.28458 -0.0639,-1.33244 -0.14253,-2.66453 -0.2092,-3.99732 -0.0688,-1.37443 -0.12912,-2.74921 -0.19545,-4.12364 -0.0822,-1.69262 -0.16685,-3.38524 -0.2494,-5.07788 -0.01,-0.19825 -0.0265,-0.39756 -0.0151,-0.59478 0.009,-0.16722 0.0177,-0.35066 0.0907,-0.49425 0.13089,-0.25574 0.3161,-0.48365 0.46673,-0.73059 0.066,-0.10829 0.15063,-0.15346 0.26953,-0.15981 0.29528,-0.0159 0.59018,-0.0342 0.88546,-0.0505 0.17462,-0.0103 0.22613,-0.0681 0.2233,-0.24342 -0.004,-0.3002 -0.0148,-0.60008 -0.004,-0.89958 0.006,-0.16121 -0.0416,-0.28364 -0.14817,-0.39934 -0.27373,-0.29633 -0.54538,-0.5955 -0.81137,-0.89924 -0.22156,-0.25223 -0.42793,-0.51787 -0.65442,-0.76517 -0.061,-0.0674 -0.16721,-0.11676 -0.25823,-0.12769 -0.15769,-0.0183 -0.18696,-0.0272 -0.18733,-0.18381 0,-0.0737 0.009,-0.14745 0.0146,-0.22085 0.0119,-0.15732 -0.0399,-0.28892 -0.15418,-0.39793 -0.0254,-0.0243 -0.0476,-0.055 -0.0649,-0.0864 -0.11819,-0.2145 -0.14851,-0.44593 -0.11925,-0.68474 0.0854,-0.6911 0.17746,-1.38184 0.26035,-2.07328 0.014,-0.11713 0.0169,-0.24484 -0.0145,-0.35597 -0.10549,-0.37322 -0.2205,-0.74401 -0.34785,-1.11019 -0.19579,-0.56478 -0.36089,-1.12959 -0.29562,-1.74236 0.0441,-0.41241 -0.0628,-0.80857 -0.25648,-1.17404 -0.12946,-0.24447 -0.12806,-0.34538 0.0593,-0.53623 0.37926,-0.38663 0.43675,-0.77716 0.18381,-1.26047 -0.0914,-0.17463 -0.19897,-0.34219 -0.27482,-0.52353 -0.0349,-0.0847 -0.054,-0.22895 -0.007,-0.28644 0.19685,-0.24236 0.1831,-0.52142 0.19474,-0.80153 0.0114,-0.26633 0.0515,-0.53303 0.042,-0.79867 -0.01,-0.28469 0.0243,-0.54859 0.17039,-0.79693 0.0381,-0.0653 0.0734,-0.14994 0.066,-0.22084 -0.0251,-0.24625 -0.0646,-0.49142 -0.10867,-0.7352 -0.0177,-0.0988 -0.055,-0.19542 -0.0935,-0.28893 -0.0491,-0.12171 -0.10584,-0.24058 -0.1637,-0.3584 -0.0416,-0.0857 -0.0864,-0.17111 -0.13724,-0.25189 -0.061,-0.0963 -0.11181,-0.2159 -0.20071,-0.27482 -0.15664,-0.10443 -0.2004,-0.25577 -0.24342,-0.41486 -0.10583,-0.39193 0.0345,-0.77365 0.0547,-1.16065 0.003,-0.0525 0.0342,-0.10406 0.0543,-0.15521 0.0712,-0.17957 0.16367,-0.35348 0.21095,-0.5394 0.11041,-0.43569 -0.20603,-0.98354 -0.72848,-0.97333 -0.22368,0.004 -0.44839,0.0462 -0.66923,0.0882 -0.20638,0.0388 -0.40005,0.13157 -0.62336,0.0868 -0.0628,-0.0124 -0.17251,0.0554 -0.20955,0.1171 -0.0321,0.0522 0.0103,0.14889 0.0172,0.2258 0.006,0.0638 0.0296,0.13758 0.007,0.19013 -0.10724,0.25331 -0.18873,0.51154 -0.1933,0.78777 0,0.0804 0,0.1806 0.0441,0.23847 0.10833,0.14322 0.12595,0.30128 0.13724,0.46918 0.0124,0.175 0.0833,0.25366 0.25329,0.27305 0.1115,0.0127 0.17216,0.0667 0.18592,0.16971 0.037,0.28186 0.0536,0.55703 -0.19968,0.77081 -0.0959,0.0808 -0.14639,0.2173 -0.24553,0.2921 -0.18204,0.1383 -0.3443,0.28787 -0.46038,0.48649 -0.0472,0.0808 -0.10054,0.14322 -0.1778,0.0145 -0.0342,-0.0568 -0.0995,-0.0938 -0.15097,-0.14004 -0.2586,-0.23424 -0.54541,-0.4371 -0.75496,-0.72602 -0.13158,-0.18132 -0.28998,-0.34467 -0.44768,-0.50483 -0.21907,-0.22225 -0.50445,-0.23952 -0.66743,-0.0399 -0.079,0.097 -0.16018,0.12102 -0.2766,0.10091 -0.15134,-0.0262 -0.29173,0.049 -0.35946,0.17638 -0.0543,0.10197 -0.0124,0.18203 0.0945,0.17991 0.22543,-0.005 0.25506,0.0314 0.17992,0.24448 -0.0508,0.1443 -0.0642,0.27834 0.0349,0.4064 0.0998,0.13017 0.20531,0.25648 0.29527,0.39301 0.0441,0.067 0.0878,0.15626 0.0797,0.22966 -0.0127,0.11181 -0.0667,0.21942 -0.11075,0.32559 -0.0332,0.079 -0.084,0.13372 -0.18558,0.14007 -0.0547,0.003 -0.11748,0.0487 -0.15732,0.0924 -0.067,0.0741 -0.12349,0.1591 -0.17323,0.24554 -0.0251,0.0427 -0.0497,0.11607 -0.03,0.14605 0.0246,0.0381 0.0942,0.0607 0.14639,0.0645 0.14676,0.0114 0.29985,-0.0148 0.44098,0.0177 0.29668,0.0684 0.59124,0.0776 0.89286,0.06 0.12031,-0.007 0.26353,0.0254 0.36267,0.0907 0.19402,0.12771 0.36301,0.29316 0.54504,0.43886 0.0808,0.0646 0.0801,0.1397 0.0462,0.2226 -0.0204,0.0511 -0.0438,0.10231 -0.0727,0.14922 -0.0765,0.12383 -0.0868,0.2286 0.0339,0.34325 0.11501,0.10937 0.0794,0.22473 -0.0462,0.31787 -0.0381,0.0286 -0.0599,0.12099 -0.0455,0.17145 0.0416,0.14851 0.11006,0.28961 0.1598,0.43637 0.0575,0.16793 -0.007,0.23495 -0.18166,0.20143 -0.13478,-0.0254 -0.27093,-0.0561 -0.40746,-0.0614 -0.11853,-0.005 -0.18909,0.0804 -0.1725,0.18486 0.0167,0.10406 0.0787,0.15452 0.1919,0.15735 0.15134,0.003 0.30302,0.018 0.45331,0.0392 0.18203,0.0254 0.20391,0.0578 0.2205,0.23953 0.0843,0.93345 0.17251,1.8669 0.25363,2.80035 0.0328,0.37711 0.0483,0.75565 0.0773,1.13276 0.0106,0.14112 0.0254,0.284 0.0593,0.42087 0.0487,0.19756 0.0642,0.38841 -0.009,0.5842 -0.19368,0.51858 -0.28787,1.05762 -0.32526,1.60832 -0.0335,0.49953 -0.11149,0.99272 -0.29633,1.46013 -0.055,0.13936 -0.14676,0.28258 -0.26072,0.37571 -0.16544,0.13512 -0.36264,0.23283 -0.55314,0.33374 -0.0893,0.0476 -0.19193,0.0836 -0.29175,0.0935 -0.26636,0.0279 -0.5401,0.0233 -0.76695,0.19296 -0.042,0.0314 -0.079,0.10938 -0.0705,0.15735 0.007,0.0399 0.0808,0.0762 0.13229,0.0967 0.0342,0.0138 0.0811,-0.006 0.1224,-0.006 0.10443,0 0.16335,0.0437 0.1651,0.15697 0.003,0.1704 0.0116,0.34113 0.0193,0.51152 0.0119,0.27305 0.006,0.28012 -0.25823,0.30269 -0.0505,0.004 -0.10126,0.007 -0.15171,0.0108 -0.45577,0.0346 -0.91157,0.0698 -1.36737,0.10441 -0.0952,0.007 -0.17391,0.0279 -0.17039,0.15065 0.0109,0.36899 0.0148,0.73801 0.0311,1.10702 0.003,0.0667 0.036,0.14499 0.0801,0.19614 0.16793,0.19333 0.34079,0.38346 0.52282,0.56443 0.16793,0.16759 0.31398,0.33904 0.38841,0.57399 0.043,0.13546 0.14007,0.25752 0.22685,0.37534 0.19402,0.26177 0.40251,0.51294 0.59267,0.77718 0.0557,0.0776 0.0818,0.18309 0.10017,0.28046 0.0441,0.23424 -0.004,0.4653 -0.0272,0.69956 -0.0413,0.41275 -0.043,0.82936 -0.0596,1.24423 -0.0324,0.81669 -0.0617,1.63338 -0.0956,2.45004 -0.0353,0.84349 -0.0787,1.68735 -0.11078,2.53153 -0.0374,0.99661 -0.0621,1.99322 -0.10123,2.98945 -0.0296,0.75671 -0.078,1.51202 -0.11006,2.26835 -0.0483,1.1483 -0.0974,2.29659 -0.13373,3.44488 -0.0476,1.53212 -0.0832,3.06493 -0.12594,4.59706 -0.0114,0.41097 -0.0377,0.82126 -0.0427,1.23224 -0.0135,1.19028 -0.0183,2.38056 -0.0289,3.57119 -0.004,0.46177 -0.0303,1.38464 -0.0303,1.38464 -0.0572,5.14527 -0.10618,9.87671 -0.10618,9.87671 -0.003,0.12137 -0.10197,0.21839 -0.22331,0.21839 h -0.13583 c -0.12346,0 -0.22331,0.0998 -0.22331,0.22331 v 1.39451 c 0,0.12314 -0.0998,0.22331 -0.22331,0.22331 h -0.60643 c -0.12311,0 -0.2233,0.0999 -0.2233,0.22296 v 0.68509 c 0,0.12348 -0.0998,0.22331 -0.22294,0.22331 h -0.41558 c -0.12348,0 -0.22331,0.0999 -0.22331,0.2233 v 0.68475 c 0,0.12348 -0.0998,0.2233 -0.22331,0.2233 h -0.77822 c -0.12314,0 -0.22331,0.0999 -0.22331,0.22331 v 9.91976 c 0,0.12277 -0.0999,0.22297 -0.22296,0.22297 h -44.44471 c -0.12311,0 -0.22331,-0.1002 -0.22331,-0.22297 v -5.14456 c 0,-0.0525 -0.0182,-0.103 -0.0522,-0.14356 l -3.60857,-4.3099 c -0.0893,-0.10653 -0.25329,-0.10653 -0.34256,0 l -3.60892,4.3099 c -0.0335,0.0406 -0.0518,0.091 -0.0518,0.14356 v 7.73959 7.72795 c 0,0.0593 0.0233,0.11608 0.0653,0.15841 l 3.10197,3.08681 c 0.0557,0.0554 0.0783,0.13616 0.0589,0.21273 l -8.97398,35.6249 c -0.0199,0.078 -0.0801,0.13936 -0.15769,0.16087 0,0 -7.91597,0.67979 -17.88584,3.08716 l -236.814157,-109.1538 -1.64288,-25.17775 c -0.004,-0.0684 -0.0614,-0.12205 -0.13054,-0.12205 h -0.48824 c -0.0691,0 -0.12629,0.0536 -0.13089,0.12205 l -1.6718,25.63212 -159.774823,109.09054 h -32.69404 V 143.0654 c 0,-0.0476 0.031,-0.0896 0.0762,-0.10338 l 2.28107,-0.69744 c 0.0455,-0.0138 0.0765,-0.0557 0.0765,-0.10337 v -1.46791 -10.75796 c 0,-0.0593 -0.0483,-0.10795 -0.1083,-0.10795 h -2.90513 c -0.0596,0 -0.1083,-0.0487 -0.1083,-0.10829 v -3.03107 c 0,-0.0596 -0.0483,-0.10795 -0.10795,-0.10795 h -1.44463 c -0.06,0 -0.1083,0.0483 -0.1083,0.10795 v 3.17783 c 0,0.0476 -0.031,0.0896 -0.0766,0.10335 l -9.66506,2.94677 c -0.0459,0.014 -0.0769,0.0561 -0.0769,0.10372 v 5.63843 c 0,0.06 -0.0483,0.10832 -0.10795,0.10832 h -39.74623 c -0.06,0 -0.1083,-0.0483 -0.1083,-0.10832 v -11.39085 c 0,-0.0596 -0.0483,-0.10829 -0.1083,-0.10829 h -1.35255 c -0.0596,0 -0.10795,-0.0483 -0.10795,-0.10795 v -2.06163 -2.63631 c 0,-0.0596 -0.0487,-0.10795 -0.10831,-0.10795 h -0.36159 c -0.0596,0 -0.10795,0.0483 -0.10795,0.10795 v 2.52801 c 0,0.06 -0.0487,0.1083 -0.10831,0.1083 h -2.16711 c -0.0596,0 -0.10795,0.0487 -0.10795,0.10829 v 1.95334 c 0,0.0596 -0.0483,0.10795 -0.1083,0.10795 h -8.23172 c -0.06,0 -0.1083,0.0487 -0.1083,0.10829 v 4.88387 c 0,0.0596 -0.0483,0.10795 -0.1083,0.10795 h -13.08408 c -0.0596,0 -0.1083,-0.0483 -0.1083,-0.10795 v -10.27676 c 0,-0.0596 0.0487,-0.10832 0.1083,-0.10832 h 3.67806 c 0.0596,0 0.10795,-0.048 0.10795,-0.10795 v -8.47582 c 0,-0.0596 0.0487,-0.10795 0.10831,-0.10795 h 1.03893 c 0.0596,0 0.1083,-0.0483 0.1083,-0.10832 v -2.99085 c 0,-0.06 -0.0487,-0.10795 -0.1083,-0.10795 h -0.86325 c -0.009,0 -0.0177,-0.003 -0.0265,-0.003 l -8.39646,-2.09021 c -0.0483,-0.0116 -0.0822,-0.055 -0.0822,-0.10478 V 95.69669 c 0,-0.0596 -0.0483,-0.10832 -0.10795,-0.10832 h -4.61963 c -0.0554,0 -0.10195,-0.0416 -0.10759,-0.0967 l -0.50942,-4.89056 c -0.006,-0.055 -0.0522,-0.097 -0.10759,-0.097 h -0.22684 c -0.06,0 -0.1083,-0.0483 -0.1083,-0.10829 V 68.22024 c 0,-0.0596 -0.0483,-0.10832 -0.1083,-0.10832 h -0.97332 c -0.06,0 -0.1083,0.0487 -0.1083,0.10832 v 22.17561 c 0,0.06 -0.0483,0.10829 -0.1083,0.10829 h -0.22684 c -0.0554,0 -0.10195,0.042 -0.1076,0.097 l -0.50941,4.89056 c -0.006,0.055 -0.0522,0.0967 -0.1076,0.0967 h -4.61962 c -0.0596,0 -0.10795,0.0487 -0.10795,0.10832 v 11.97256 c 0,0.0497 -0.0339,0.0931 -0.0822,0.10477 l -8.39681,2.09021 c -0.008,0.003 -0.0173,0.003 -0.0261,0.003 h -0.86325 c -0.0596,0 -0.1083,0.048 -0.1083,0.10795 v 2.99085 c 0,0.06 0.0487,0.10832 0.1083,0.10832 h 1.03893 c 0.0596,0 0.10795,0.0483 0.10795,0.10795 v 8.47582 c 0,0.06 0.0487,0.10795 0.1083,0.10795 h 3.67806 c 0.0596,0 0.10831,0.0487 0.10831,0.10832 v 10.27677 c 0,0.0596 0.0483,0.10795 0.10795,0.10795 h 0.27058 c 0.06,0 0.1083,0.0483 0.1083,0.10829 v 17.76801 c 0,0.0596 -0.0483,0.1083 -0.1083,0.1083 h -37.20288 c -0.0596,0 -0.10795,-0.0487 -0.10795,-0.1083 v -11.27865 c 0,-0.0455 -0.0286,-0.0864 -0.0713,-0.10195 l -8.8198,-3.21275 c -0.0123,-0.003 -0.0243,-0.004 -0.0367,-0.006 h -3.97545 c -0.0289,0 -0.0564,0.0114 -0.0769,0.0314 l -1.52435,1.51342 c -0.0113,0.0268 -0.0212,0.0504 -0.0321,0.0769 v 13.81548 c 0,0.0596 0.0483,0.10795 0.1083,0.10795 h 1.34161 c 0.0596,0 0.10831,0.0487 0.10831,0.10832 v 151.7664 c 0,0.06 -0.0487,0.10795 -0.10831,0.10795 h -13.71741 c -0.0603,0 -0.109,0.049 -0.109,0.10935 v 18.98687 c 0,0.0596 0.0483,0.1083 0.10795,0.1083 H 795.98919 v -49.04034 z"
       style="fill:#b3b3b3;fill-opacity:1;fill-rule:nonzero;stroke:none;stroke-width:0.352777"
       id="path853" />
  </g>
</svg>
