<?xml version="1.0" encoding="UTF-8"?>
<svg width="1213.6mm" height="270.62mm" version="1.1" viewBox="0 0 1213.6 270.62" xmlns="http://www.w3.org/2000/svg" xmlns:cc="http://creativecommons.org/ns#" xmlns:dc="http://purl.org/dc/elements/1.1/" xmlns:rdf="http://www.w3.org/1999/02/22-rdf-syntax-ns#">
<metadata>
<rdf:RDF>
<cc:Work rdf:about="">
<dc:format>image/svg+xml</dc:format>
<dc:type rdf:resource="http://purl.org/dc/dcmitype/StillImage"/>
<dc:title/>
</cc:Work>
</rdf:RDF>
</metadata>
<g transform="translate(475.01 30.567)">
<path d="m120.44 191.04h-0.22648l-118.98-55.486 119.96 55.295c-0.2512 0.0624-0.50377 0.1256-0.75743 0.1905m-7.4376 0-227.68-107.65-0.0882-1.3533 233.74 109zm-2.6726 0-116.95-55.982 118.4 55.982zm-9.6121 7.2192c-10.514 5.4681-20.697 15.291-26.679 21.67h-185.52v-15.701l-0.16261-10.048h221.78c-3.2064 1.1596-6.3987 2.509-9.4177 4.0792m-212.46-10.196-1.3084-51.894-0.23673-7.8144 23.587 62.685h-21.994zm23.273 2.9768h-0.67238l-10.826-28.773zm-24.983-68.113 35.56 68.113h-10.014l-25.41-63.58zm36.763 68.113h-0.61278l-15.109-28.94zm-36.893-72.4 47.261 72.4h-9.7723l-37.38-68.809zm48.687 72.4h-0.80116l-22.998-35.231zm-48.782-75.554 58.933 75.554h-9.5186l-49.338-73.038zm60.833 75.554h-1.2368l-34.791-44.604zm-60.916-78.278 70.856 78.278h-9.2678l-61.525-76.169zm72.717 78.278h-1.1546l-39.996-44.184zm-72.788-80.625 82.261 80.625h-8.7581l-73.45-78.866zm84.594 80.625h-1.5847l-52.168-51.131zm-84.663-82.911 93.416 82.911h-7.9939l-85.371-81.206zm95.966 82.911h-1.7611l-60.811-53.972zm-96.034-85.163 105.09 85.163h-8.2568l-96.785-83.483zm107.86 85.163h-1.9336l-69.801-56.564zm-107.92-87.117 116.25 87.117h-7.4852l-108.72-85.727zm119.23 87.117h-2.1086l-78.577-58.887zm-119.29-89.314 127.16 89.314h-6.9815l-120.13-87.676zm130.11 89.314h-2.0352l-84.02-59.012zm-130.18-91.5 138.6 91.5h-7.5004l-131.05-89.868zm141.51 91.5h-1.9586l-89.323-58.968zm-141.57-93.407 149.77 93.407h-7.2404l-142.49-92.049zm152.64 93.407h-1.8828l-94.036-58.646zm-152.71-95.571 161.22 95.571h-7.5085l-153.66-93.953zm164.06 95.571h-1.8101l-98.584-58.44zm-164.12-97.461 172.15 97.461h-6.9896l-165.12-96.114zm174.95 97.461h-1.7399l-102.48-58.017zm-175-99.344 182.56 99.344h-6.4774l-176.04-98.002zm185.33 99.344h-1.6764l-105.92-57.638zm-185.39-101.49 193.51 101.49h-7.003l-186.45-99.883zm196.25 101.49h-1.6143l-109.34-57.348zm-196.3-103.36 203.93 103.36h-6.4827l-197.4-102.03zm206.64 103.36h-1.5544l-112.18-56.861zm-206.69-105.23 214.09 105.23h-6.2272l-207.83-103.9zm216.78 105.23h-1.4986l-114.71-56.384zm-216.82-106.77-0.0222-0.34079 223.76 107.11h-5.7132l-217.99-105.77zm-4.3723-0.38489-152.51 107.15h-5.3033l157.9-108.54zm-0.0712 1.9082-145.21 105.24h-5.3866l150.64-106.6zm-0.0575 1.9008-138.36 103.34h-4.9576l143.36-104.7zm-0.066 2.1738-131.33 101.17h-5.3919l136.77-102.8zm-0.0579 1.918-123.96 99.249h-5.7316l129.73-100.62zm-0.0582 1.9234-116.94 97.326h-5.3827l122.37-98.704zm-0.0589 1.9374-109.58 95.388h-5.727l115.35-96.779zm-0.0667 2.2137-102.38 93.175h-5.5601l107.99-94.839zm-0.0596 1.9646-95.11 91.21h-5.8949l101.05-92.626zm-0.0681 2.2529-87.657 88.957h-6.0692l93.778-90.658zm-0.0688 2.2768-80.296 86.68h-6.2346l86.583-88.406zm-0.0614 2.0327-73.376 84.648h-5.8014l79.222-86.125zm-0.0709 2.329-66.615 82.319h-5.5492l72.218-84.085zm-0.0642 2.1322-59.444 80.186h-5.8829l65.374-81.746zm-0.0748 2.4638-52.432 77.723h-5.8868l58.376-79.611zm-0.085 2.8159-45.644 74.907h-5.485l51.196-77.123zm-0.0977 3.2247-38.871 71.682h-5.4578l44.408-74.285zm-0.12137 4.0079-31.905 67.674h-5.3732l37.379-70.998zm-0.12912 4.2718-24.602 63.402h-5.7912l30.5-66.931zm-0.25823 8.5312-1.3084 51.894-0.048 2.9768h-21.78l23.369-62.565zm-23.783 54.871 2.353-6.0639-2.2652 6.0639zm-7.1557 0 6.8329-14.494-6.6047 14.494zm-6.8284 0 9.7878-18.05-9.5028 18.05zm-105.03 0 7.3865-5.3534-7.33 5.3534zm-7.2041 0 2.7816-1.9547-2.7619 1.9547zm148.43 28.89h-189.18v-25.75h189.34l-0.16264 10.048zm-254.29 0.80716c0 0.06-0.0483 0.10795-0.1083 0.10795h-17.304c-0.06 0-0.10831-0.048-0.10831-0.10795v-149.27c0-0.0498 0.0335-0.0931 0.0815-0.10549 2.8282-0.71189 5.9736-1.1095 9.2883-1.1095 2.8444 0 5.5637 0.29281 8.0652 0.82584 0.0501 0.0106 0.0857 0.0547 0.0857 0.10621zm581.6-149.54c0-0.10723 0.103-0.26069 0.16899-0.23741 0.0564 0.0209 0.0921 0.0991 0.1157 0.12629-0.01 0.14322-0.022 0.23741-0.14676 0.24482-0.0903 6e-3 -0.13793-0.0455-0.13793-0.1337m0.30657 1.6919c0.01-0.0364 0.0487-0.0864 0.0801-0.0903 0.0325-4e-3 0.10197 0.0395 0.10197 0.0621 0 0.14322-0.0124 0.28753-0.0296 0.4304-3e-3 0.0236-0.0519 0.042-0.0794 0.0631-0.0201-0.0279-0.0526-0.0533-0.0579-0.0836-0.0127-0.0716-0.0124-0.14533-0.0188-0.2441 0-0.029-0.0103-0.0864 3e-3 -0.13759m-0.091 8.4194c-0.0106-0.0653-0.043-0.13687-0.0272-0.19508 0.0392-0.14181 0.18486-0.55634 0.24625-0.71966 6e-3 0.20354 0.0702 0.77681 0.073 0.84984-0.0871 0.0156-0.2078 0.0296-0.2921 0.0649m0.79058-2.1251c0.12311-0.14851 0.14393-0.32703 0.14745-0.50729 8e-3 -0.39687 0.0161-0.79375 0.0103-1.1903-5e-3 -0.3175 0.10334-0.60714 0.19367-0.90099 0.0409-0.13335 0.14991-0.13266 0.23424-3e-3 0.0547 0.0847 0.10054 0.1764 0.14147 0.26882 0.0649 0.14745 0.11499 0.30163 0.18555 0.4459 0.0455 0.0935 0.10655 0.18346 0.17746 0.25929 0.13192 0.14042 0.22294 0.3048 0.22505 0.49107 7e-3 0.64558 0.14499 1.2725 0.24308 1.9057 0.0275 0.17745 0.0356 0.35737 0.0529 0.53657 7e-3 3e-3 0.014 3e-3 0.0212 5e-3 -0.0335 0.23638-0.0656 0.47273-0.10089 0.70874-0.0172 0.11676-0.0896 0.15981-0.20603 0.151-0.43145-0.0311-0.99166-0.0752-1.4235-0.10478-0.018-0.09-0.0751-1.0442-0.0981-1.505-0.0106-0.20886 0.0614-0.39865 0.19617-0.56057m-1.3783-9.4178c-0.10017-0.0441-0.19296-0.10371-0.29104-0.15346-0.0723-0.0363-0.10017-0.0832-0.0434-0.15134 0.0935-0.11112 0.0378-0.19579-0.0335-0.2921-0.10092-0.13509-0.19156-0.27903-0.27729-0.42439-0.0212-0.0356-7e-3 -0.0924-9e-3 -0.1397 0.0469 3e-3 0.0991-6e-3 0.13936 0.0116 0.1679 0.0734 0.33512 0.14923 0.49493 0.23744 0.0423 0.0233 0.0582 0.0942 0.072 0.11816-0.0156 0.11573-0.048 0.20146-0.0328 0.27834 0.0235 0.12243 0.0815 0.2385 0.1203 0.35844 0.0204 0.0645 0.0317 0.13157 0.0473 0.1979-0.0624-0.013-0.12948-0.0159-0.18663-0.0409m-0.69779-0.43391c-0.0114-9e-3 -0.0233-0.018-0.0349-0.0268-0.0638 0-0.12946 7e-3 -0.19261-3e-3 -0.0579-7e-3 -0.16158-0.03-0.16193-0.0483-3e-3 -0.0963 0.01-0.19791 0.0434-0.28718 7e-3 -0.0169 0.15312-0.0106 0.20392 0.0268 0.0779 0.0571 0.13441 0.14779 0.18767 0.23177 0.0116 0.0183-0.0289 0.0695-0.0455 0.10546m-0.64101-0.0455c-0.0251 0.0547-0.11641 0.0783-0.1778 0.11608-6e-3 -7e-3 -0.0116-0.0151-0.0172-0.0222-0.0589-8e-3 -0.12454-3e-3 -0.17497-0.0279-0.0406-0.0198-0.0854-0.0766-0.0857-0.11679 0-0.0398 0.0487-0.0847 0.0843-0.11922 0.0204-0.0201 0.0642-0.0161 0.0854-0.0363 0.049-0.0462 0.0931-0.12946 0.16687-0.0624 0.0744 0.0685 0.17285 0.15346 0.11922 0.26881m535.1 121.73c-20.675-4.0654-41.613-6.3274-62.581-6.7888l-0.06-0.14147-4.1585-21.626v-72.578l3.9934-3.2614h0.3471c0.1415 0 0.2636-0.10054 0.29-0.23952l0.9571-4.9946c0.02-0.1016-0.016-0.20603-0.092-0.27517l-0.3602-0.32491c-0.049-0.0445-0.1125-0.0709-0.1785-0.0755l-3.7895-0.24728c-0.1556-0.01-0.2766-0.13901-0.2766-0.29493v-4.9738c0-0.10512 0.056-0.20215 0.146-0.25506l4.2771-2.5058c0.097-0.0571 0.1528-0.16336 0.1453-0.27554l-0.5729-8.34c0-0.0536-0.022-0.10443-0.052-0.14817l-0.7874-1.1342c-0.034-0.0497-0.053-0.10829-0.053-0.16862v-1.9936c0-0.11536-0.067-0.22048-0.1721-0.26882l-1.8377-0.84312c-0.042-9e-3 -0.082-0.018-0.1234-0.0272h-1.7061c0.163 0 0.2953-0.1323 0.2953-0.29528v-4.9297h1.8016c0.1634 0 0.2957-0.13229 0.2957-0.29561v-0.76343c0-0.16333-0.1323-0.29562-0.2957-0.29562h-1.802v-0.01l-0.4236-6.198c-0.011-0.15486-0.139-0.27517-0.295-0.27517h-1.7233v-35.269h0.8894c0.1633 0 0.2956-0.13229 0.2956-0.29562v-1.7798c0-0.16299-0.1323-0.29528-0.2956-0.29528h-0.8894v-1.688c0-0.16333-0.1326-0.29562-0.2956-0.29562h-0.6964v-17.562h0.7927c0.1633 0 0.2956-0.13229 0.2956-0.29562v-1.0541c0-0.16335-0.1323-0.29565-0.2956-0.29565h-0.7927v-0.67204c0-0.14462-0.1044-0.26493-0.2417-0.28998v-16.643c0-0.16298-0.1326-0.29562-0.2956-0.29562h-0.6188c-0.1629 0-0.2952 0.13264-0.2952 0.29562v16.643c-0.138 0.0251-0.2424 0.14536-0.2424 0.28998v0.67204h-0.793c-0.163 0-0.2953 0.1323-0.2953 0.29565v1.0541c0 0.16333 0.1323 0.29562 0.2953 0.29562h0.793v17.562h-0.696c-0.163 0-0.2953 0.13229-0.2953 0.29562v1.688h-0.89c-0.1634 0-0.2957 0.13229-0.2957 0.29528v1.7798c0 0.16333 0.1323 0.29562 0.2957 0.29562h0.89v35.269h-1.7244c-0.1552 0-0.2843 0.12031-0.2945 0.27517l-0.4237 6.198v0.01h-1.8017c-0.1633 0-0.2956 0.13229-0.2956 0.29562v0.76343c0 0.16332 0.1323 0.29561 0.2956 0.29561h1.8013v4.9297c0 0.16298 0.1323 0.29528 0.2953 0.29528h-1.706c-0.041 9e-3 -0.082 0.018-0.1231 0.0272l-1.838 0.84312c-0.1048 0.0483-0.1722 0.15346-0.1722 0.26882v1.9936c0 0.0603-0.018 0.11925-0.053 0.16862l-0.7874 1.1342c-0.031 0.0437-0.048 0.0945-0.052 0.14817l-0.573 8.34c-0.01 0.11218 0.049 0.21839 0.1457 0.27554l4.2764 2.5058c0.091 0.0529 0.1461 0.14994 0.1461 0.25506v4.9738c0 0.15592-0.1211 0.28503-0.2763 0.29493l-3.7895 0.24728c-0.066 5e-3 -0.1295 0.0311-0.1785 0.0755l-0.3605 0.32491c-0.077 0.0691-0.1119 0.17357-0.092 0.2748l0.9567 4.995c0.027 0.13898 0.1485 0.23952 0.2903 0.23952h0.3468l3.9935 3.2614v72.578l-4.1586 21.626-0.06 0.14147c-15.838 0.34854-31.658 1.7261-47.36 4.13v-3.4682h2.5284l-0.8026-14.744h-3.4776l-0.8025-14.744h-3.477l-0.8029-14.744h-3.4774l-0.8025-14.744h-3.4774l-0.8022-14.744h-4.5109v-16.349h-28.059l-0.3439 16.349h-4.7901v71.952h1.2919v5.9253h-1.2919v6.6728c-1.912-0.0384-3.8498-0.0723-5.812-0.10126v-7.9089h-3.1803v-5.3262h0.9367l-0.2678-16.25-0.2674-14.744h-0.1337l-0.2678-14.744-0.267-14.744h-0.4015l-0.2677-14.744h-0.1937v-16.349h-27.734v16.349h-0.32736v74.627h1.2915v5.9256h-1.2915v7.88c-5.6829 0.0741-11.163 0.18804-16.435 0.33515v-6.8778h-1.2918v-5.9253h1.2918v-71.952h-4.79l-0.66849-16.349h-27.734v16.349h-4.511l-0.80221 14.744h-3.4773l-0.80256 14.744h-3.4773l-0.80256 14.744h-3.4773l-0.80256 14.744h-3.4773l-0.80222 14.744h2.528v4.1571h-6.798v-12.015c0-0.0554-0.0445-0.0998-0.0995-0.0998h-1.7293c-0.0554 0-0.10019-0.0448-0.10019-0.0998v-2.5753c0-0.055-0.0445-0.0995-0.0995-0.0995h-0.48154c-0.0469 0-0.0861-0.0331-0.0963-0.079-0.27868-1.2824-1.4545-2.2846-2.9372-2.4896-0.0487-7e-3 -0.0857-0.0476-0.0857-0.0974v-0.3951h-0.27694v-1.814c0-0.0434 0.0279-0.0818 0.0688-0.0952l0.28258-0.091c0.0409-0.0135 0.0688-0.0515 0.0688-0.0949v-0.1411c0-0.0674-0.0656-0.1157-0.13018-0.0945l-0.1598 0.0512c-0.0646 0.0212-0.13018-0.0272-0.13018-0.0945v-0.68546c0-0.0554-0.0448-0.0998-0.0998-0.0998h-0.1951c-0.0547 0-0.0995 0.0444-0.0995 0.0998v0.87702c0 0.0434-0.0279 0.0815-0.0691 0.0949l-0.28223 0.091c-0.0416 0.0135-0.0691 0.0519-0.0691 0.0952v0.14076c0 0.0677 0.066 0.11573 0.13018 0.0952l0.16015-0.0519c0.0642-0.0209 0.13018 0.0272 0.13018 0.0949v1.5226c0 0.055-0.0444 0.0998-0.0995 0.0998h-0.20142c-0.055 0-0.0995 0.0445-0.0995 0.0998v0.3147c0 0.0483-0.0356 0.0885-0.0829 0.0967-1.426 0.2413-2.546 1.2234-2.8173 2.4712-0.01 0.0458-0.0487 0.0787-0.0952 0.0787h-0.22296c-0.0554 0-0.10054-0.0455-0.0995-0.10123l0.0667-4.7258c0.0127-0.0262 0.0236-0.0487 0.036-0.0751l0.84949-0.70765c0.0124-0.0282 0.023-0.0522 0.0356-0.0804l-0.0349-0.91334c-9e-3 -0.022-0.0177-0.042-0.0268-0.0639l-1.5258-1.6372c-0.0209-0.0106-0.0395-0.0204-0.0603-0.031l-1.2979-0.16616c-0.042-5e-3 -0.0755-0.037-0.0836-0.0783-0.6999-3.4858-3.6706-6.3387-7.6186-7.4969-0.042-0.0119-0.0712-0.0508-0.0712-0.0945v-11.043c0-0.0554-0.0445-0.0998-0.0995-0.0998h-0.37748c-0.0547 0-0.0995-0.0448-0.0995-0.0999v-4.7572c0-0.055-0.0448-0.0998-0.0995-0.0998h-0.94543c-0.0455 0-0.0843-0.031-0.0952-0.0752-0.59055-2.376-2.8215-4.1702-5.5291-4.3053-0.0533-3e-3 -0.0949-0.0452-0.0949-0.0984v-2.6494c0-0.055 0.0448-0.0999 0.0998-0.0999h0.13724c0.055 0 0.0995-0.0444 0.0995-0.0995v-0.14568c0-0.0547 0.0448-0.0995 0.0995-0.0995h0.66428c0.0554 0 0.0998-0.0448 0.0998-0.0999v-0.21801c0-0.055-0.0444-0.0998-0.0998-0.0998h-0.66428c-0.0547 0-0.0995-0.0444-0.0995-0.0995v-0.14571c0-0.055-0.0445-0.0995-0.0995-0.0995h-0.13724c-0.055 0-0.0998-0.0448-0.0998-0.10017v-0.62937c0-0.055-0.0445-0.0995-0.0995-0.0995h-0.27022c-0.055 0-0.0998 0.0445-0.0998 0.0995v0.62937c0 0.0554-0.0444 0.10017-0.0995 0.10017h-0.13721c-0.055 0-0.0995 0.0444-0.0995 0.0995v0.14571c0 0.055-0.0448 0.0995-0.0999 0.0995h-0.66392c-0.055 0-0.0998 0.0448-0.0998 0.0998v0.21801c0 0.055 0.0448 0.0999 0.0998 0.0999h0.66392c0.055 0 0.0999 0.0448 0.0999 0.0995v0.14568c0 0.055 0.0444 0.0995 0.0995 0.0995h0.13721c0.055 0 0.0995 0.0448 0.0995 0.0999v2.6494c0 0.0533-0.0416 0.0956-0.0945 0.0984-2.7076 0.13513-4.9385 1.9294-5.5291 4.3053-0.0109 0.0441-0.0497 0.0752-0.0952 0.0752h-1.4732c-0.055 0-0.0995-0.0445-0.0995-0.0998v-7.3596c0-0.0434-0.0282-0.0819-0.0695-0.0952l-1.5447-0.49349c-0.0335-0.0106-0.0586-0.0378-0.0663-0.072-2.4127-10.61-11.632-18.632-22.824-19.229-0.0526-3e-3 -0.0938-0.0458-0.0938-0.0984v-1.4605c0-0.055-0.0444-0.0995-0.0998-0.0995h-0.4745c-0.0554 0-0.0998-0.0448-0.0998-0.0998v-3.5574c0-0.055 0.0444-0.0999 0.0998-0.0999h0.45297c0.0547 0 0.0995-0.0444 0.0995-0.0998v-1.0721c0-0.055 0.0448-0.0998 0.0999-0.0998h1.6256c0.055 0 0.0995-0.0444 0.0995-0.0995v-1.0167c0-0.0547-0.0444-0.0995-0.0995-0.0995h-1.6256c-0.055 0-0.0999-0.0448-0.0999-0.0995v-1.0721c0-0.0554-0.0448-0.1002-0.0995-0.1002h-0.45297c-0.0554 0-0.0998-0.0444-0.0998-0.0995v-1.6129c0-0.055-0.0448-0.0998-0.0998-0.0998h-0.9458c-0.0554 0-0.1002 0.0448-0.1002 0.0998v1.6129c0 0.055-0.0444 0.0995-0.0995 0.0995h-0.45297c-0.055 0-0.0995 0.0448-0.0995 0.1002v1.0721c0 0.055-0.0448 0.0995-0.0998 0.0995h-1.6256c-0.055 0-0.0995 0.0448-0.0995 0.0998v1.0164c0 0.055 0.0444 0.0995 0.0995 0.0995h1.6256c0.055 0 0.0998 0.0448 0.0998 0.0998v1.0721c0 0.0554 0.0444 0.0998 0.0995 0.0998h0.45297c0.055 0 0.0995 0.0448 0.0995 0.0999v3.5574c0 0.055-0.0444 0.0998-0.0995 0.0998h-0.47482c-0.055 0-0.0995 0.0444-0.0995 0.0995v1.4605c0 0.0526-0.0413 0.0956-0.0938 0.0984-11.328 0.60396-20.636 8.8142-22.91 19.617-7e-3 0.0342-0.0328 0.0624-0.0663 0.0734l-0.32737 0.10443c-0.0413 0.0135-0.0691 0.0519-0.0691 0.0952v2.9866 7e-3c-0.0458 0.61526-0.0698 1.2368-0.0698 1.8641 0 0.62723 0.0241 1.2488 0.0698 1.8641v7e-3 0.63076c0 0.0554-0.0448 0.0998-0.1002 0.0998h-1.4725c-0.0459 0-0.0847-0.031-0.0956-0.0751-0.59055-2.376-2.8215-4.1702-5.5291-4.3053-0.0529-3e-3 -0.0945-0.0452-0.0945-0.0984v-2.6494c0-0.055 0.0448-0.0998 0.0998-0.0998h0.13687c0.055 0 0.0998-0.0445 0.0998-0.0995v-0.14568c0-0.0547 0.0444-0.0995 0.0995-0.0995h0.66427c0.055 0 0.0995-0.0448 0.0995-0.0999v-0.21802c0-0.055-0.0444-0.0998-0.0995-0.0998h-0.66427c-0.055 0-0.0995-0.0444-0.0995-0.0995v-0.1457c0-0.055-0.0448-0.0995-0.0998-0.0995h-0.13687c-0.055 0-0.0998-0.0448-0.0998-0.10017v-0.62936c0-0.055-0.0448-0.0995-0.0995-0.0995h-0.27025c-0.055 0-0.0998 0.0445-0.0998 0.0995v0.62936c0 0.0554-0.0444 0.10017-0.0998 0.10017h-0.1369c-0.055 0-0.0998 0.0444-0.0998 0.0995v0.1457c0 0.055-0.0444 0.0995-0.0998 0.0995h-0.66395c-0.0554 0-0.0998 0.0448-0.0998 0.0998v0.21802c0 0.055 0.0444 0.0999 0.0998 0.0999h0.66395c0.0554 0 0.0998 0.0448 0.0998 0.0995v0.14568c0 0.055 0.0448 0.0995 0.0998 0.0995h0.1369c0.0554 0 0.0998 0.0448 0.0998 0.0998v2.6494c0 0.0533-0.0416 0.0956-0.0945 0.0984-2.7079 0.13512-4.9386 1.9293-5.5294 4.3053-0.0109 0.0441-0.0494 0.0751-0.0949 0.0751h-0.94544c-0.055 0-0.0998 0.0448-0.0998 0.0998v4.7572c0 0.055-0.0444 0.0999-0.0995 0.0999h-0.37714c-0.055 0-0.0998 0.0444-0.0998 0.0998v11.043c0 0.0437-0.0289 0.0826-0.0713 0.0945-1.1832 0.34714-2.2761 0.84916-3.2487 1.4722h-17.545v-134.51l-8.9722-7.5607h-14.25v-4.3945c0-0.0603 0.0487-0.10901 0.10901-0.10901h0.56304c0.0603 0 0.109-0.049 0.109-0.10935v-11.867c0-0.0603-0.0487-0.10901-0.109-0.10901h-0.97402c-0.0603 0-0.10937-0.049-0.10937-0.10938v-19.678c0-0.0603-0.0487-0.10935-0.10864-0.10935h-0.60397c-0.0603 0-0.10935 0.049-0.10935 0.10935v19.678c0 0.0603-0.0487 0.10938-0.10901 0.10938h-0.97403c-0.0603 0-0.10936 0.0487-0.10936 0.10901v11.867c0 0.0603 0.049 0.10935 0.10936 0.10935h0.56303c0.0603 0 0.10901 0.0487 0.10901 0.10901v4.3945h-14.25l-8.9722 10.548v110.2h-18.135l-0.0512-6.7381c0-0.0349 0.0193-0.0667 0.0505-0.0818l0.98988-0.4953c0.0307-0.0156 0.0505-0.0469 0.0505-0.0811v-1.445c0-0.0437-0.031-0.0808-0.0737-0.0892l-1.4288-0.27482c-0.0427-8e-3 -0.0737-0.0455-0.0737-0.0892v-1.6528c0-0.0501-0.0406-0.091-0.091-0.091h-0.54541c-0.0504 0-0.091-0.0406-0.091-0.0907v-24.582c0-0.0367 0.022-0.0698 0.0561-0.084l1.384-0.57644 0.0268-0.0177 0.74084-0.68757c0.0462-0.043 0.0353-0.11959-0.0214-0.14783l-2.2571-1.1285c-0.0307-0.0156-0.0504-0.0473-0.0504-0.0818v-1.4288c0-0.0501-0.0406-0.0907-0.091-0.0907h-1.6866c-0.0236-0.0109-0.0441-0.0201-0.0677-0.0307l-0.88193-0.99238c-0.0339-0.0374-0.03-0.0953 8e-3 -0.12874l0.86995-0.76094c0.0108-0.0241 0.0201-0.0445 0.031-0.0688v-1.476c0-0.036-0.0204-0.0677-0.0529-0.0825-0.16192-0.0734-0.67379-0.30268-1.2322-0.53094v-0.0924c0.18169-0.0998 0.3062-0.2907 0.3062-0.51295v-1.5226c-8e-3 -0.0214-0.0169-0.043-0.0257-0.0646-0.51435-0.55034-1.1504-0.19405-1.1504 0.31078v1.2764c0 0.11043 0.0325 0.21238 0.0854 0.30056-0.31221-0.11287-0.59198-0.20036-0.77931-0.23177-0.72742-0.12134-1.0304-2.4246-0.90945-3.7581 0.11819-1.3007 1.101-1.7939 1.1497-1.8182h4e-3c0.0903-0.0212 2.897-0.69744 2.2409-2.6063-0.62513-1.8179-2.8476-1.8256-3.1239-1.8193-0.0198-7e-3 -0.0325-0.0109-0.0515-0.0172-0.21167-0.1651-1.7995-1.4249-1.856-2.1036-0.0586-0.70062 0.27657-0.95144 0.30126-0.96909 3e-3 -3e-3 3e-3 -3e-3 5e-3 -3e-3l0.46427-0.2748c0.0275-0.0161 0.0445-0.0462 0.0445-0.0783v-1.0622c0-0.0526-0.0438-0.0942-0.0963-0.0903-0.19367 0.014-0.63817 0.0381-0.96134-8e-3 -0.39616-0.0564-0.58102-0.74684-0.60393-0.83855-3e-3 -7e-3 -3e-3 -0.0138-3e-3 -0.0209v-3.4244c3e-3 -0.013 6e-3 -0.0257 9e-3 -0.0388l0.51401-1.0852c0.0135-0.0282 0.0388-0.048 0.0699-0.0515 0.18907-0.0193 0.88722-0.16298 1.0439-1.209 0.16298-1.0858-0.45262-1.6372-0.58243-1.7402-0.0193-6e-3 -0.0353-0.0114-0.0543-0.018h-0.92393c-0.0103-3e-3 -0.019-3e-3 -0.0296-5e-3 -0.14005-0.0494-1.2626-0.46498-1.3194-1.1469-0.0501-0.60396 0.27516-0.83185 0.38735-0.89183 0.0254-3e-3 0.0462-3e-3 0.0716-3e-3 0.19722 0.073 1.1779 0.36055 1.1779-1.1659 0-1.2792-0.89535-1.4912-1.3363-1.5176-0.0819-5e-3 -0.11678-0.10546-0.0557-0.15909l0.26954-0.23601c0.0201-0.0172 0.0314-0.042 0.0314-0.0681v-0.5207c-0.0124-0.0251-0.023-0.0466-0.0356-0.0716l-1.2672-0.9793c-0.0124-0.022-0.023-0.0413-0.0349-0.0628l-0.62971-6.1168c-7e-3 -0.0169-0.0137-0.0325-0.0212-0.0494l-0.76235-0.90064c-7e-3 -0.0204-0.014-0.0388-0.0212-0.0589v-1.5554c0-0.0427 0.0303-0.0776 0.072-0.0875 0.5828-0.13407 1.0174-0.65511 1.0174-1.2788 0-0.62302-0.43461-1.1441-1.0174-1.2785-0.0416-0.01-0.072-0.0448-0.072-0.0878v-4.0651c0-0.0596 0.0564-0.10303 0.11395-0.0878l0.57362 0.1524c0.0575 0.0156 0.1143-0.0282 0.1143-0.0878v-0.44593c0-0.0409-0.0279-0.0773-0.0674-0.0878l-0.66709-0.17709c-0.0399-0.0106-0.0674-0.0469-0.0674-0.0882v-1.5656c0-0.0501-0.0409-0.0907-0.091-0.0907h-0.26599c-0.0505 0-0.091 0.0406-0.091 0.0907v1.3981c0 0.06-0.0565 0.10337-0.1143 0.0882l-0.57328-0.1524c-0.0579-0.0156-0.1143 0.0282-0.1143 0.0878v0.44591c0 0.0409 0.0279 0.0772 0.0674 0.0878l0.6671 0.17745c0.0399 0.0106 0.0674 0.0466 0.0674 0.0878v4.2323c0 0.043-0.0303 0.0783-0.072 0.0878-0.5828 0.13441-1.0178 0.65545-1.0178 1.2785 0 0.6237 0.43497 1.1447 1.0178 1.2788 0.0416 0.01 0.072 0.0448 0.072 0.0875v1.5564c0 0.0209-6e-3 0.0399-0.0199 0.0557-0.2681 0.31679-0.67415 0.79693-0.76411 0.90276-0.0119 0.014-0.0191 0.031-0.0209 0.0494l-0.6297 6.1168c-0.0124 0.0214-0.023 0.0409-0.0349 0.0628l-1.2675 0.97895c-0.0124 0.0254-0.023 0.0469-0.0353 0.072v0.5207c0 0.0262 0.0114 0.0508 0.0311 0.0681l0.26916 0.23601c0.0617 0.0536 0.0264 0.1538-0.055 0.15909-0.44098 0.0265-1.3363 0.2385-1.3363 1.5176 0 1.53 0.98462 1.2379 1.1794 1.1652 0.0243 3e-3 0.0441 3e-3 0.0688 3e-3 0.11075 0.0589 0.43883 0.28643 0.38875 0.89251-0.0571 0.68192-1.1797 1.0975-1.3197 1.1469-0.0103 3e-3 -0.019 3e-3 -0.0296 5e-3h-0.92392c-0.0198 0-0.0381 6e-3 -0.054 0.018-0.13017 0.10301-0.74541 0.6544-0.58242 1.7402 0.15592 1.0407 0.84807 1.1882 1.041 1.209 0.0317 3e-3 0.0589 0.0225 0.0727 0.0515l0.514 1.0852c3e-3 0.013 6e-3 0.0257 9e-3 0.0388v3.4244c0 7e-3 -3e-3 0.0127-3e-3 0.0201-0.022 0.0886-0.20675 0.78283-0.60397 0.83926-0.32313 0.0462-0.76729 0.0222-0.96096 8e-3 -0.0529-4e-3 -0.0966 0.0377-0.0966 0.0903v1.0622c0 0.0321 0.0169 0.0621 0.0444 0.0783l0.4646 0.27479c3e-3 0 3e-3 3e-3 5e-3 3e-3 0.0307 0.022 0.35877 0.2748 0.30091 0.96838-0.0568 0.68331-1.6658 1.9554-1.8602 2.1068-0.0159 5e-3 -0.0265 9e-3 -0.0427 0.014-0.25434-6e-3 -2.5001-0.01-3.1288 1.8193-0.64736 1.8835 2.0764 2.5668 2.2359 2.6052 6e-3 3e-3 7e-3 3e-3 0.0127 4e-3 0.0822 0.0409 1.0301 0.54012 1.1462 1.8161 0.12136 1.3335-0.18166 3.6368-0.90911 3.7581-0.18732 0.0314-0.46707 0.1189-0.77962 0.23177 0.0533-0.0882 0.085-0.19013 0.085-0.30056v-1.5226c-8e-3 -0.0214-0.0167-0.043-0.0254-0.0645-0.51435-0.55034-1.1504-0.19405-1.1504 0.31078v1.2764c0 0.22225 0.12488 0.41312 0.30657 0.51294v0.0924c-0.55845 0.22826-1.0707 0.45757-1.2326 0.53094-0.0321 0.0148-0.0526 0.0466-0.0526 0.0826v1.476c0.0106 0.0241 0.0201 0.0444 0.0311 0.0688l0.86995 0.76095c0.0377 0.0335 0.0416 0.0914 8e-3 0.12874l-0.88193 0.99237c-0.0236 0.0106-0.0441 0.0198-0.0677 0.0307h-1.687c-0.0501 0-0.0907 0.0406-0.0907 0.0907v1.4291c0 0.0346-0.0199 0.066-0.0505 0.0815l-2.257 1.1285c-0.0568 0.0282-0.0681 0.10478-0.0214 0.14782l0.74083 0.68758 0.0268 0.0177 1.3839 0.57645c0.0339 0.014 0.0561 0.0473 0.0561 0.084v24.582c0 0.0501-0.0409 0.0907-0.091 0.0907h-0.54573c-0.0501 0-0.091 0.0409-0.091 0.091v1.6528c0 0.0437-0.0307 0.0808-0.0737 0.0892l-1.4284 0.27482c-0.0427 8e-3 -0.0737 0.0455-0.0737 0.0892v1.445c0 0.0342 0.019 0.0656 0.0501 0.0812l0.99026 0.4953c0.031 0.0151 0.0504 0.0469 0.0501 0.0818l-0.0508 6.7381h-16.887c-0.12348 0-0.2233-0.1002-0.2233-0.22331v-9.9194c0-0.12346-0.1002-0.22331-0.22331-0.22331h-0.77825c-0.12345 0-0.22331-0.0998-0.22331-0.22331v-0.68474c0-0.12345-0.0998-0.22331-0.2233-0.22331h-0.41556c-0.12348 0-0.22331-0.0998-0.22331-0.22331v-0.68508c0-0.12311-0.0995-0.22297-0.22296-0.22297h-0.60643c-0.12311 0-0.22296-0.10017-0.22296-0.2233v-1.3945c0-0.12348-0.10017-0.22331-0.22331-0.22331h-0.19542c-0.12137 0-0.2205-0.097-0.22297-0.21838 0 0 0.0367-8.709 0-9.8767 0 0 7e-3 -0.32174 4e-3 -0.4826-0.01-0.67839-0.0262-1.3568-0.0423-2.0352-0.0209-0.8763-0.0423-1.7529-0.0663-2.6292-8e-3 -0.29528-0.0268-0.59021-0.0367-0.88548-0.0201-0.61349-0.0353-1.2273-0.0571-1.8412-0.0262-0.73377-0.0593-1.4668-0.0864-2.2003-0.0282-0.76129-0.0451-1.5233-0.0822-2.2846-0.0639-1.3324-0.14253-2.6645-0.2092-3.9973-0.0688-1.3744-0.12912-2.7492-0.19545-4.1236-0.0822-1.6926-0.16685-3.3852-0.2494-5.0779-0.01-0.19825-0.0265-0.39756-0.0151-0.59478 9e-3 -0.16722 0.0177-0.35066 0.0907-0.49425 0.13089-0.25574 0.3161-0.48365 0.46673-0.73059 0.066-0.10829 0.15063-0.15346 0.26953-0.15981 0.29528-0.0159 0.59018-0.0342 0.88546-0.0505 0.17462-0.0103 0.22613-0.0681 0.2233-0.24342-4e-3 -0.3002-0.0148-0.60008-4e-3 -0.89958 6e-3 -0.16121-0.0416-0.28364-0.14817-0.39934-0.27373-0.29633-0.54538-0.5955-0.81137-0.89924-0.22156-0.25223-0.42793-0.51787-0.65442-0.76517-0.061-0.0674-0.16721-0.11676-0.25823-0.12769-0.15769-0.0183-0.18696-0.0272-0.18733-0.18381 0-0.0737 9e-3 -0.14745 0.0146-0.22085 0.0119-0.15732-0.0399-0.28892-0.15418-0.39793-0.0254-0.0243-0.0476-0.055-0.0649-0.0864-0.11819-0.2145-0.14851-0.44593-0.11925-0.68474 0.0854-0.6911 0.17746-1.3818 0.26035-2.0733 0.014-0.11713 0.0169-0.24484-0.0145-0.35597-0.10549-0.37322-0.2205-0.74401-0.34785-1.1102-0.19579-0.56478-0.36089-1.1296-0.29562-1.7424 0.0441-0.41241-0.0628-0.80857-0.25648-1.174-0.12946-0.24447-0.12806-0.34538 0.0593-0.53623 0.37926-0.38663 0.43675-0.77716 0.18381-1.2605-0.0914-0.17463-0.19897-0.34219-0.27482-0.52353-0.0349-0.0847-0.054-0.22895-7e-3 -0.28644 0.19685-0.24236 0.1831-0.52142 0.19474-0.80153 0.0114-0.26633 0.0515-0.53303 0.042-0.79867-0.01-0.28469 0.0243-0.54859 0.17039-0.79693 0.0381-0.0653 0.0734-0.14994 0.066-0.22084-0.0251-0.24625-0.0646-0.49142-0.10867-0.7352-0.0177-0.0988-0.055-0.19542-0.0935-0.28893-0.0491-0.12171-0.10584-0.24058-0.1637-0.3584-0.0416-0.0857-0.0864-0.17111-0.13724-0.25189-0.061-0.0963-0.11181-0.2159-0.20071-0.27482-0.15664-0.10443-0.2004-0.25577-0.24342-0.41486-0.10583-0.39193 0.0345-0.77365 0.0547-1.1606 3e-3 -0.0525 0.0342-0.10406 0.0543-0.15521 0.0712-0.17957 0.16367-0.35348 0.21095-0.5394 0.11041-0.43569-0.20603-0.98354-0.72848-0.97333-0.22368 4e-3 -0.44839 0.0462-0.66923 0.0882-0.20638 0.0388-0.40005 0.13157-0.62336 0.0868-0.0628-0.0124-0.17251 0.0554-0.20955 0.1171-0.0321 0.0522 0.0103 0.14889 0.0172 0.2258 6e-3 0.0638 0.0296 0.13758 7e-3 0.19013-0.10724 0.25331-0.18873 0.51154-0.1933 0.78777 0 0.0804 0 0.1806 0.0441 0.23847 0.10833 0.14322 0.12595 0.30128 0.13724 0.46918 0.0124 0.175 0.0833 0.25366 0.25329 0.27305 0.1115 0.0127 0.17216 0.0667 0.18592 0.16971 0.037 0.28186 0.0536 0.55703-0.19968 0.77081-0.0959 0.0808-0.14639 0.2173-0.24553 0.2921-0.18204 0.1383-0.3443 0.28787-0.46038 0.48649-0.0472 0.0808-0.10054 0.14322-0.1778 0.0145-0.0342-0.0568-0.0995-0.0938-0.15097-0.14004-0.2586-0.23424-0.54541-0.4371-0.75496-0.72602-0.13158-0.18132-0.28998-0.34467-0.44768-0.50483-0.21907-0.22225-0.50445-0.23952-0.66743-0.0399-0.079 0.097-0.16018 0.12102-0.2766 0.10091-0.15134-0.0262-0.29173 0.049-0.35946 0.17638-0.0543 0.10197-0.0124 0.18203 0.0945 0.17991 0.22543-5e-3 0.25506 0.0314 0.17992 0.24448-0.0508 0.1443-0.0642 0.27834 0.0349 0.4064 0.0998 0.13017 0.20531 0.25648 0.29527 0.39301 0.0441 0.067 0.0878 0.15626 0.0797 0.22966-0.0127 0.11181-0.0667 0.21942-0.11075 0.32559-0.0332 0.079-0.084 0.13372-0.18558 0.14007-0.0547 3e-3 -0.11748 0.0487-0.15732 0.0924-0.067 0.0741-0.12349 0.1591-0.17323 0.24554-0.0251 0.0427-0.0497 0.11607-0.03 0.14605 0.0246 0.0381 0.0942 0.0607 0.14639 0.0645 0.14676 0.0114 0.29985-0.0148 0.44098 0.0177 0.29668 0.0684 0.59124 0.0776 0.89286 0.06 0.12031-7e-3 0.26353 0.0254 0.36267 0.0907 0.19402 0.12771 0.36301 0.29316 0.54504 0.43886 0.0808 0.0646 0.0801 0.1397 0.0462 0.2226-0.0204 0.0511-0.0438 0.10231-0.0727 0.14922-0.0765 0.12383-0.0868 0.2286 0.0339 0.34325 0.11501 0.10937 0.0794 0.22473-0.0462 0.31787-0.0381 0.0286-0.0599 0.12099-0.0455 0.17145 0.0416 0.14851 0.11006 0.28961 0.1598 0.43637 0.0575 0.16793-7e-3 0.23495-0.18166 0.20143-0.13478-0.0254-0.27093-0.0561-0.40746-0.0614-0.11853-5e-3 -0.18909 0.0804-0.1725 0.18486 0.0167 0.10406 0.0787 0.15452 0.1919 0.15735 0.15134 3e-3 0.30302 0.018 0.45331 0.0392 0.18203 0.0254 0.20391 0.0578 0.2205 0.23953 0.0843 0.93345 0.17251 1.8669 0.25363 2.8004 0.0328 0.37711 0.0483 0.75565 0.0773 1.1328 0.0106 0.14112 0.0254 0.284 0.0593 0.42087 0.0487 0.19756 0.0642 0.38841-9e-3 0.5842-0.19368 0.51858-0.28787 1.0576-0.32526 1.6083-0.0335 0.49953-0.11149 0.99272-0.29633 1.4601-0.055 0.13936-0.14676 0.28258-0.26072 0.37571-0.16544 0.13512-0.36264 0.23283-0.55314 0.33374-0.0893 0.0476-0.19193 0.0836-0.29175 0.0935-0.26636 0.0279-0.5401 0.0233-0.76695 0.19296-0.042 0.0314-0.079 0.10938-0.0705 0.15735 7e-3 0.0399 0.0808 0.0762 0.13229 0.0967 0.0342 0.0138 0.0811-6e-3 0.1224-6e-3 0.10443 0 0.16335 0.0437 0.1651 0.15697 3e-3 0.1704 0.0116 0.34113 0.0193 0.51152 0.0119 0.27305 6e-3 0.28012-0.25823 0.30269-0.0505 4e-3 -0.10126 7e-3 -0.15171 0.0108-0.45577 0.0346-0.91157 0.0698-1.3674 0.10441-0.0952 7e-3 -0.17391 0.0279-0.17039 0.15065 0.0109 0.36899 0.0148 0.73801 0.0311 1.107 3e-3 0.0667 0.036 0.14499 0.0801 0.19614 0.16793 0.19333 0.34079 0.38346 0.52282 0.56443 0.16793 0.16759 0.31398 0.33904 0.38841 0.57399 0.043 0.13546 0.14007 0.25752 0.22685 0.37534 0.19402 0.26177 0.40251 0.51294 0.59267 0.77718 0.0557 0.0776 0.0818 0.18309 0.10017 0.28046 0.0441 0.23424-4e-3 0.4653-0.0272 0.69956-0.0413 0.41275-0.043 0.82936-0.0596 1.2442-0.0324 0.81669-0.0617 1.6334-0.0956 2.45-0.0353 0.84349-0.0787 1.6874-0.11078 2.5315-0.0374 0.99661-0.0621 1.9932-0.10123 2.9894-0.0296 0.75671-0.078 1.512-0.11006 2.2684-0.0483 1.1483-0.0974 2.2966-0.13373 3.4449-0.0476 1.5321-0.0832 3.0649-0.12594 4.5971-0.0114 0.41097-0.0377 0.82126-0.0427 1.2322-0.0135 1.1903-0.0183 2.3806-0.0289 3.5712-4e-3 0.46177-0.0303 1.3846-0.0303 1.3846-0.0572 5.1453-0.10618 9.8767-0.10618 9.8767-3e-3 0.12137-0.10197 0.21839-0.22331 0.21839h-0.13583c-0.12346 0-0.22331 0.0998-0.22331 0.22331v1.3945c0 0.12314-0.0998 0.22331-0.22331 0.22331h-0.60643c-0.12311 0-0.2233 0.0999-0.2233 0.22296v0.68509c0 0.12348-0.0998 0.22331-0.22294 0.22331h-0.41558c-0.12348 0-0.22331 0.0999-0.22331 0.2233v0.68475c0 0.12348-0.0998 0.2233-0.22331 0.2233h-0.77822c-0.12314 0-0.22331 0.0999-0.22331 0.22331v9.9198c0 0.12277-0.0999 0.22297-0.22296 0.22297h-44.445c-0.12311 0-0.22331-0.1002-0.22331-0.22297v-5.1446c0-0.0525-0.0182-0.103-0.0522-0.14356l-3.6086-4.3099c-0.0893-0.10653-0.25329-0.10653-0.34256 0l-3.6089 4.3099c-0.0335 0.0406-0.0518 0.091-0.0518 0.14356v15.468c0 0.0593 0.0233 0.11608 0.0653 0.15841l3.102 3.0868c0.0557 0.0554 0.0783 0.13616 0.0589 0.21273l-8.974 35.625c-0.0199 0.078-0.0801 0.13936-0.15769 0.16087 0 0-7.916 0.67979-17.886 3.0872l-236.81-109.15-1.6429-25.178c-4e-3 -0.0684-0.0614-0.12205-0.13054-0.12205h-0.48824c-0.0691 0-0.12629 0.0536-0.13089 0.12205l-1.6718 25.632-159.77 109.09h-32.694v-130.19c0-0.0476 0.031-0.0896 0.0762-0.10338l2.2811-0.69744c0.0455-0.0138 0.0765-0.0557 0.0765-0.10337v-12.226c0-0.0593-0.0483-0.10795-0.1083-0.10795h-2.9051c-0.0596 0-0.1083-0.0487-0.1083-0.10829v-3.0311c0-0.0596-0.0483-0.10795-0.10795-0.10795h-1.4446c-0.06 0-0.1083 0.0483-0.1083 0.10795v3.1778c0 0.0476-0.031 0.0896-0.0766 0.10335l-9.6651 2.9468c-0.0459 0.014-0.0769 0.0561-0.0769 0.10372v5.6384c0 0.06-0.0483 0.10832-0.10795 0.10832h-39.746c-0.06 0-0.1083-0.0483-0.1083-0.10832v-11.391c0-0.0596-0.0483-0.10829-0.1083-0.10829h-1.3526c-0.0596 0-0.10795-0.0483-0.10795-0.10795v-4.6979c0-0.0596-0.0487-0.10795-0.10831-0.10795h-0.36159c-0.0596 0-0.10795 0.0483-0.10795 0.10795v2.528c0 0.06-0.0487 0.1083-0.10831 0.1083h-2.1671c-0.0596 0-0.10795 0.0487-0.10795 0.10829v1.9533c0 0.0596-0.0483 0.10795-0.1083 0.10795h-8.2317c-0.06 0-0.1083 0.0487-0.1083 0.10829v4.8839c0 0.0596-0.0483 0.10795-0.1083 0.10795h-13.084c-0.0596 0-0.1083-0.0483-0.1083-0.10795v-10.277c0-0.0596 0.0487-0.10832 0.1083-0.10832h3.6781c0.0596 0 0.10795-0.048 0.10795-0.10795v-8.4758c0-0.0596 0.0487-0.10795 0.10831-0.10795h1.0389c0.0596 0 0.1083-0.0483 0.1083-0.10832v-2.9908c0-0.06-0.0487-0.10795-0.1083-0.10795h-0.86325c-9e-3 0-0.0177-3e-3 -0.0265-3e-3l-8.3965-2.0902c-0.0483-0.0116-0.0822-0.055-0.0822-0.10478v-11.973c0-0.0596-0.0483-0.10832-0.10795-0.10832h-4.6196c-0.0554 0-0.10195-0.0416-0.10759-0.0967l-0.50942-4.8906c-6e-3 -0.055-0.0522-0.097-0.10759-0.097h-0.22684c-0.06 0-0.1083-0.0483-0.1083-0.10829v-22.176c0-0.0596-0.0483-0.10832-0.1083-0.10832h-0.97332c-0.06 0-0.1083 0.0487-0.1083 0.10832v22.176c0 0.06-0.0483 0.10829-0.1083 0.10829h-0.22684c-0.0554 0-0.10195 0.042-0.1076 0.097l-0.50941 4.8906c-6e-3 0.055-0.0522 0.0967-0.1076 0.0967h-4.6196c-0.0596 0-0.10795 0.0487-0.10795 0.10832v11.973c0 0.0497-0.0339 0.0931-0.0822 0.10477l-8.3968 2.0902c-8e-3 3e-3 -0.0173 3e-3 -0.0261 3e-3h-0.86325c-0.0596 0-0.1083 0.048-0.1083 0.10795v2.9908c0 0.06 0.0487 0.10832 0.1083 0.10832h1.0389c0.0596 0 0.10795 0.0483 0.10795 0.10795v8.4758c0 0.06 0.0487 0.10795 0.1083 0.10795h3.6781c0.0596 0 0.10831 0.0487 0.10831 0.10832v10.277c0 0.0596 0.0483 0.10795 0.10795 0.10795h0.27058c0.06 0 0.1083 0.0483 0.1083 0.10829v17.768c0 0.0596-0.0483 0.1083-0.1083 0.1083h-37.203c-0.0596 0-0.10795-0.0487-0.10795-0.1083v-11.279c0-0.0455-0.0286-0.0864-0.0713-0.10195l-8.8198-3.2128c-0.0123-3e-3 -0.0243-4e-3 -0.0367-6e-3h-3.9754c-0.0289 0-0.0564 0.0114-0.0769 0.0314l-1.5244 1.5134c-0.0113 0.0268-0.0212 0.0504-0.0321 0.0769v13.815c0 0.0596 0.0483 0.10795 0.1083 0.10795h1.3416c0.0596 0 0.10831 0.0487 0.10831 0.10832v151.77c0 0.06-0.0487 0.10795-0.10831 0.10795h-13.717c-0.0603 0-0.109 0.049-0.109 0.10935v18.987c0 0.0596 0.0483 0.1083 0.10795 0.1083h1213.4v-49.04z" fill="#b3b3b3"/>
</g>
</svg>
