<?xml version="1.0" encoding="UTF-8" standalone="no"?>
<svg
   xmlns:dc="http://purl.org/dc/elements/1.1/"
   xmlns:cc="http://creativecommons.org/ns#"
   xmlns:rdf="http://www.w3.org/1999/02/22-rdf-syntax-ns#"
   xmlns:svg="http://www.w3.org/2000/svg"
   xmlns="http://www.w3.org/2000/svg"
   xmlns:sodipodi="http://sodipodi.sourceforge.net/DTD/sodipodi-0.dtd"
   xmlns:inkscape="http://www.inkscape.org/namespaces/inkscape"
   version="1.1"
   viewBox="0 0 911.01 630.97"
   id="svg281"
   sodipodi:docname="hero_main.svg"
   inkscape:version="1.0.1 (1.0.1+r75)">
  <sodipodi:namedview
     pagecolor="#ffffff"
     bordercolor="#666666"
     borderopacity="1"
     objecttolerance="10"
     gridtolerance="10"
     guidetolerance="10"
     inkscape:pageopacity="0"
     inkscape:pageshadow="2"
     inkscape:window-width="2517"
     inkscape:window-height="1376"
     id="namedview283"
     showgrid="false"
     inkscape:zoom="5.7386856"
     inkscape:cx="599.56988"
     inkscape:cy="344.41841"
     inkscape:window-x="1963"
     inkscape:window-y="27"
     inkscape:window-maximized="1"
     inkscape:current-layer="svg281"
     inkscape:document-rotation="0" />
  <metadata
     id="metadata2">
    <rdf:RDF>
      <cc:Work
         rdf:about="">
        <dc:format>image/svg+xml</dc:format>
        <dc:type
           rdf:resource="http://purl.org/dc/dcmitype/StillImage" />
        <dc:title />
      </cc:Work>
    </rdf:RDF>
  </metadata>
  <defs
     id="defs73">
    <clipPath
       id="q">
      <rect
         width="1036"
         height="817"
         id="rect4" />
    </clipPath>
    <clipPath
       id="l">
      <path
         d="m-236-260.5c-46.668 0-84.5 37.832-84.5 84.5s37.832 84.5 84.5 84.5 84.5-37.832 84.5-84.5-37.832-84.5-84.5-84.5"
         fill="#fff"
         id="path7" />
    </clipPath>
    <clipPath
       id="k">
      <path
         d="m-111.5-384.5c-114.32 0-207 92.677-207 207 0 114.32 92.677 207 207 207s207-92.677 207-207c0-114.32-92.677-207-207-207"
         fill="#fff"
         id="path10" />
    </clipPath>
    <clipPath
       id="j">
      <path
         d="m-229.5-215c-33.966 0-61.5 27.534-61.5 61.5s27.534 61.5 61.5 61.5 61.5-27.534 61.5-61.5-27.534-61.5-61.5-61.5"
         fill="#fff"
         id="path13" />
    </clipPath>
    <clipPath
       id="i">
      <path
         d="m-115-392c-118.19 0-214 95.811-214 214 0 118.19 95.811 214 214 214 118.19 0 214-95.811 214-214 0-118.19-95.811-214-214-214"
         fill="#fff"
         id="path16" />
    </clipPath>
    <clipPath
       id="h">
      <path
         d="m-115-392c-118.19 0-214 95.811-214 214 0 118.19 95.811 214 214 214 118.19 0 214-95.811 214-214 0-118.19-95.811-214-214-214"
         fill="#fff"
         id="path19" />
    </clipPath>
    <clipPath
       id="g">
      <path
         d="m-115-295.5c-76.491 0-138.5 62.009-138.5 138.5 0 76.491 62.009 138.5 138.5 138.5 76.491 0 138.5-62.009 138.5-138.5 0-76.491-62.009-138.5-138.5-138.5"
         fill="#fff"
         id="path22" />
    </clipPath>
    <clipPath
       id="f">
      <path
         d="m-235-213.5c-44.459 0-80.5 36.041-80.5 80.5s36.041 80.5 80.5 80.5c44.459 0 80.5-36.041 80.5-80.5s-36.041-80.5-80.5-80.5"
         fill="#fff"
         id="path25" />
    </clipPath>
    <mask
       id="e"
       mask-type="alpha">
      <g
         transform="translate(543.5,334)"
         display="block"
         id="g32">
        <g
           id="g30">
          <path
             d="m-430.62-305.81 806.18-10.051c11.747 0.251 21.923 9.36 23.556 21.044l56.284 539.53c1.821 13.38-7.664 25.189-20.793 25.817l-821.32 44.537c-13.882 0.69101-25.817-9.422-26.885-22.802 0 0-41.71-573.26-41.71-573.26-1.131-13.757 10.176-25.063 24.687-24.812z"
             fill="#fff"
             id="path28" />
        </g>
      </g>
    </mask>
    <mask
       id="d"
       mask-type="alpha">
      <g
         transform="translate(543.5,334)"
         display="block"
         id="g39">
        <g
           id="g37">
          <path
             d="m-430.62-305.81 806.18-10.051c11.747 0.251 21.923 9.36 23.556 21.044l56.284 539.53c1.821 13.38-7.664 25.189-20.793 25.817l-821.32 44.537c-13.882 0.69101-25.817-9.422-26.885-22.802 0 0-41.71-573.26-41.71-573.26-1.131-13.757 10.176-25.063 24.687-24.812z"
             fill="#fff"
             id="path35" />
        </g>
      </g>
    </mask>
    <mask
       id="p">
      <path
         d="m305.59 79.547c-90.022 0-163 72.977-163 163 0 90.023 72.978 163 163 163 90.022 0 163-72.978 163-163 0-90.022-72.978-163-163-163"
         fill="#fff"
         id="path42" />
      <path
         d="m305.59 74.168c-92.993 0-168.38 75.386-168.38 168.38 0 92.994 75.386 168.38 168.38 168.38 92.994 0 168.38-75.386 168.38-168.38 0-92.993-75.386-168.38-168.38-168.38"
         id="path44" />
    </mask>
    <clipPath
       id="o">
      <path
         d="m32.5-313c-114.32 0-207 92.677-207 207s92.677 207 207 207c114.32 0 207-92.677 207-207s-92.677-207-207-207"
         fill="#fff"
         id="path47" />
    </clipPath>
    <clipPath
       id="n">
      <path
         d="m-20.323-317.77c-114.32 0-207 92.677-207 207 0 114.32 92.677 207 207 207s207-92.677 207-207c0-114.32-92.677-207-207-207"
         fill="#fff"
         id="path50" />
    </clipPath>
    <clipPath
       id="m">
      <path
         d="m-10.465-305.24c-114.32 0-207 92.677-207 207 0 114.32 92.677 207 207 207s207-92.677 207-207c0-114.32-92.677-207-207-207"
         fill="#fff"
         id="path53" />
    </clipPath>
    <linearGradient
       id="c"
       x1="98.469"
       x2="95.689"
       y1="161.09"
       y2="158.68"
       gradientUnits="userSpaceOnUse"
       gradientTransform="translate(34.027288,14.684653)">
      <stop
         stop-color="#00aad4"
         offset="0"
         id="stop56" />
      <stop
         stop-color="#5df"
         offset=".52951"
         id="stop58" />
      <stop
         stop-color="#0ff"
         offset="1"
         id="stop60" />
    </linearGradient>
    <linearGradient
       id="b"
       x1="101.63"
       x2="98.137"
       y1="157.35"
       y2="160.86"
       gradientUnits="userSpaceOnUse"
       gradientTransform="translate(34.027288,14.684653)">
      <stop
         stop-color="#caf"
         offset="0"
         id="stop63" />
      <stop
         stop-color="#caf"
         offset="1"
         id="stop65" />
    </linearGradient>
    <linearGradient
       id="a"
       x1="98.832"
       x2="93.165"
       y1="155.66"
       y2="154.68"
       gradientUnits="userSpaceOnUse"
       gradientTransform="translate(34.027288,14.684653)">
      <stop
         stop-color="#f95"
         offset="0"
         id="stop68" />
      <stop
         stop-color="#ff2a2a"
         offset="1"
         id="stop70" />
    </linearGradient>
  </defs>
  <g
     transform="translate(-11.24 -5.8278)"
     id="g229">
    <g
       transform="translate(-.07802 1.7486)"
       id="g175">
      <g
         transform="translate(-88.119 -18.139)"
         clip-path="url(#q)"
         id="g171">
        <g
           transform="translate(543.5,334)"
           display="block"
           id="g75" />
        <g
           transform="translate(543.5,334)"
           display="block"
           id="g77" />
        <g
           transform="translate(543.5,334)"
           display="block"
           id="g79" />
        <g
           transform="translate(543.5,334)"
           display="block"
           id="g81" />
        <g
           transform="translate(543.5,334)"
           display="block"
           id="g85">
          <g
             id="g83" />
        </g>
        <g
           transform="translate(543.5,334)"
           display="block"
           id="g87" />
        <g
           transform="translate(543.5,334)"
           display="block"
           id="g89" />
        <g
           transform="translate(543.5,334)"
           display="block"
           id="g91" />
        <g
           transform="translate(543.5,334)"
           display="block"
           id="g93" />
        <g
           transform="translate(543.5,334)"
           display="block"
           id="g95" />
        <g
           transform="translate(543.5,334)"
           display="block"
           id="g97" />
        <g
           transform="translate(543.5,334)"
           display="block"
           id="g99" />
        <g
           transform="translate(543.5,334)"
           display="block"
           id="g101" />
        <g
           transform="translate(543.5,334)"
           display="block"
           id="g103" />
        <g
           transform="matrix(-1,0,0,1,483,400.5)"
           display="none"
           id="g109">
          <g
             id="g107">
            <path
               d="m-95.71-251.04 229.23 1.661c5.327 0.069 9.271 4.082 8.856 8.994l-15.775 176.02c-0.415 4.913-4.982 8.718-10.241 8.58l-231.93-6.643c-5.12-0.138-8.856-4.289-8.302-9.133l18.404-171.11c0.553-4.705 4.843-8.372 9.756-8.372z"
               fill="#f4f9fe"
               id="path105" />
          </g>
        </g>
        <g
           transform="rotate(-3 7926.9 -8940.7)"
           display="none"
           id="g115">
          <g
             id="g113">
            <path
               d="m36.494-137.57s-16.737-24.214-16.737-24.214c-0.439-0.65899-1.483-0.71399-2.033-0.055l-13.451 12.545c-1.153 1.264-3.186 1.374-4.34 0.22l-4.121-4.066c-0.879-0.82401-2.307-0.93401-3.296-0.16501l-16.715 15.835c-1.099 0.769-0.605 2.362 0.714 2.417l20.081-0.06 38.58-0.314c1.154 0.055 1.978-1.209 1.318-2.143z"
               fill="#dde7f2"
               id="path111" />
          </g>
        </g>
        <g
           transform="rotate(-3 7945 -8931.7)"
           display="none"
           id="g121">
          <g
             id="g119">
            <path
               d="m10.688-167.9c0.197 2.712-1.514 4.964-4.426 4.964-2.912 0-5.713-2.077-5.808-4.9-0.092-2.718 1.829-5.01 4.741-5.01 3.026-0.026 5.29 2.158 5.493 4.946z"
               fill="#dde7f2"
               id="path117" />
          </g>
        </g>
        <g
           transform="matrix(-1,0,0,1,483,400.5)"
           clip-path="url(#o)"
           display="block"
           id="g123" />
        <g
           transform="rotate(-3 7926.9 -8940.7)"
           clip-path="url(#n)"
           display="block"
           id="g125" />
        <g
           transform="rotate(-3 7945 -8931.7)"
           clip-path="url(#m)"
           display="block"
           id="g127" />
        <g
           transform="matrix(-1,0,0,1,754,179.5)"
           display="block"
           id="g129" />
        <g
           transform="matrix(-1,0,0,1,747,179.5)"
           display="block"
           id="g131" />
        <g
           transform="matrix(-1,0,0,1,305,672)"
           display="block"
           id="g137">
          <g
             id="g135">
            <path
               d="m-58.624-293.04c-1.107 10.448-11.278 18.889-22.695 18.889s-19.719-8.372-18.612-18.751c1.107-10.379 11.209-18.82 22.625-18.889 11.347 0 19.72 8.372 18.682 18.751z"
               fill="#f4f9fe"
               id="path133" />
          </g>
        </g>
        <g
           transform="translate(639.5,544)"
           clip-path="url(#l)"
           display="block"
           id="g139" />
        <g
           transform="translate(519.5,562)"
           clip-path="url(#k)"
           display="block"
           id="g141" />
        <g
           transform="translate(715.5,520.5)"
           clip-path="url(#j)"
           display="block"
           id="g143" />
        <g
           transform="translate(739,414)"
           clip-path="url(#i)"
           display="block"
           id="g145" />
        <g
           transform="translate(736.5,394)"
           clip-path="url(#h)"
           display="block"
           id="g147" />
        <g
           transform="translate(739.5,414)"
           clip-path="url(#g)"
           display="block"
           id="g149" />
        <g
           transform="translate(851.5,327)"
           clip-path="url(#f)"
           display="block"
           id="g151" />
        <g
           display="none"
           mask="url(#e)"
           id="g157">
          <g
             transform="matrix(.84 0 0 .84 194.29 91.633)"
             mask="url(#p)"
             opacity=".0095772"
             id="g155">
            <path
               d="m0 0h659v530h-659z"
               fill="#5fe3b2"
               id="path153" />
          </g>
        </g>
        <g
           display="block"
           mask="url(#d)"
           id="g169">
          <g
             transform="translate(439.12 285.53)"
             id="g167">
            <g
               transform="translate(16.391 16.42)"
               id="g161">
              <path
                 d="m122.55 16.038 4.221-2.371c1e-3 0 2e-3 0 2e-3 -1e-3 0.561-0.312 1.164-0.894 1.111-1.74-0.052-0.838-0.715-1.347-1.303-1.594h-1e-3s-18.283-7.742-18.283-7.742l-2e-3 -1e-3c-0.299-0.126-0.629-0.216-0.965-0.215-0.344 2e-3 -0.749 0.103-1.069 0.423-0.32 0.319-0.422 0.725-0.424 1.069-1e-3 0.335 0.089 0.666 0.215 0.965l1e-3 1e-3 7.742 18.284c1e-3 0 0 2e-3 0 2e-3 0.248 0.588 0.756 1.25 1.594 1.303 0.846 0.053 1.428-0.55 1.74-1.111l2e-3 -2e-3 2.354-4.192 5.207 5.206c0.889 0.89 2.227 0.679 3-0.094l0.019-0.018s0.017-0.02 0.017-0.02c0.691-0.767 0.891-2.082 0.011-2.962 0 0-5.189-5.19-5.189-5.19z"
                 fill="#242d70"
                 id="path159" />
            </g>
            <g
               transform="translate(16.391 16.42)"
               id="g165">
              <path
                 d="m122.55 16.038 4.221-2.371c1e-3 0 2e-3 0 2e-3 -1e-3 0.561-0.312 1.164-0.894 1.111-1.74-0.052-0.838-0.715-1.347-1.303-1.594h-1e-3s-18.283-7.742-18.283-7.742l-2e-3 -1e-3c-0.299-0.126-0.629-0.216-0.965-0.215-0.344 2e-3 -0.749 0.103-1.069 0.423-0.32 0.319-0.422 0.725-0.424 1.069-1e-3 0.335 0.089 0.666 0.215 0.965l1e-3 1e-3 7.742 18.284c1e-3 0 0 2e-3 0 2e-3 0.248 0.588 0.756 1.25 1.594 1.303 0.846 0.053 1.428-0.55 1.74-1.111l2e-3 -2e-3s2.354-4.192 2.354-4.192l5.207 5.206c0.889 0.89 2.227 0.679 3-0.094l0.019-0.018s0.017-0.02 0.017-0.02c0.691-0.767 0.891-2.082 0.011-2.962 0 0-5.189-5.19-5.189-5.19z"
                 fill-opacity="0"
                 stroke="#fff"
                 stroke-miterlimit="10"
                 stroke-width="2"
                 id="path163" />
            </g>
          </g>
        </g>
      </g>
      <path
         d="m147.13 63.331 1.2549 13.591c0.41608 5.2259 5.2259 9.2003 10.452 9.2003l612.43-14.22c5.4356-0.20971 9.4099-4.6001 8.9906-9.826l-1.2549-13.8c-0.41606-5.2259-5.0162-9.2003-10.455-9.2003l-612.21 14.01c-5.6453 0.2097-9.8294 4.8065-9.2003 10.245z"
         display="block"
         fill="#d8e1ea"
         fill-opacity="0"
         stroke-width="3.3286"
         id="path173" />
    </g>
    <path
       d="m36.005 15.879 806.18-10.051c11.747 0.251 21.923 9.36 23.556 21.044l56.284 539.53c1.821 13.38-7.664 25.189-20.793 25.817l-821.32 44.537c-13.882 0.69101-25.817-9.422-26.885-22.802 0 0-41.71-573.26-41.71-573.26-1.131-13.757 10.176-25.063 24.687-24.812z"
       display="block"
       fill="#fff"
       id="path177" />
    <g
       transform="translate(0 16.511)"
       id="g185">
      <path
         d="m65.998 41.426c0.063 3.518-2.953 6.282-6.659 6.156-3.706-0.12601-6.784-3.077-6.847-6.658-0.063-3.518 2.953-6.282 6.659-6.156 3.706 0.18799 6.784 3.14 6.847 6.658z"
         display="block"
         fill="#80ebff"
         id="path179" />
      <path
         d="m98.751 41.426c0.063 3.518-2.89 6.282-6.596 6.156-3.706-0.126-6.784-3.078-6.784-6.596-0.063-3.518 2.889-6.282 6.595-6.156 3.643 0.12601 6.722 3.078 6.785 6.596z"
         display="block"
         fill="#fd7a8c"
         id="path181" />
      <path
         d="m131.57 41.457c0.062 3.518-2.89 6.281-6.596 6.093-3.706-0.126-6.721-3.077-6.784-6.595-0.063-3.518 2.889-6.281 6.596-6.093 3.706 0.12601 6.721 3.14 6.784 6.595z"
         display="block"
         fill="#fee895"
         id="path183" />
    </g>
    <g
       transform="translate(-154.63 -20.801)"
       fill="#d8e1ea"
       id="g193">
      <path
         d="m525.47 520.86 0.37699 4.083c0.126 1.57 1.571 2.827 3.204 2.764l64.826-1.445c1.696-0.063 2.953-1.382 2.827-3.015 0 0-0.377-4.209-0.377-4.209-0.126-1.57-1.57-2.827-3.204-2.764l-64.826 1.508c-1.696 0.063-3.015 1.445-2.827 3.078z"
         display="block"
         id="path187" />
      <path
         d="m527.09 536.41s0.377 4.083 0.377 4.083c0.125 1.57 1.57 2.764 3.14 2.764l183.99-4.272c1.633-0.063 2.827-1.382 2.701-2.952 0 0-0.377-4.146-0.377-4.146-0.125-1.57-1.507-2.764-3.141-2.764l-183.92 4.209c-1.696 0.063-2.953 1.444-2.764 3.078z"
         display="block"
         id="path189" />
      <path
         d="m603.17 519.1s0.377 4.083 0.377 4.083c0.126 1.571 1.571 2.827 3.204 2.764 0 0 42.652-0.816 42.652-0.816 1.696-0.063 2.953-1.382 2.827-3.078 0 0-0.377-4.209-0.377-4.209-0.126-1.571-1.57-2.827-3.204-2.764 0 0-42.652 0.87902-42.652 0.87902-1.696 0.063-3.015 1.508-2.827 3.141z"
         display="block"
         id="path191" />
    </g>
    <path
       d="m628.51 247.97s0.377 4.083 0.377 4.083c0.125 1.57 1.57 2.764 3.14 2.764 0 0 183.99-4.272 183.99-4.272 1.633-0.063 2.827-1.382 2.701-2.952 0 0-0.377-4.146-0.377-4.146-0.125-1.57-1.507-2.764-3.141-2.764 0 0-183.92 4.209-183.92 4.209-1.696 0.063-2.953 1.444-2.764 3.078z"
       display="block"
       fill="#d8e1ea"
       id="path195" />
    <path
       d="m626.01 227.97s0.377 4.083 0.377 4.083c0.125 1.57 1.57 2.764 3.14 2.764 0 0 183.99-4.272 183.99-4.272 1.633-0.063 2.827-1.382 2.701-2.952 0 0-0.377-4.146-0.377-4.146-0.125-1.57-1.507-2.764-3.141-2.764 0 0-183.92 4.209-183.92 4.209-1.696 0.063-2.953 1.444-2.764 3.078z"
       display="block"
       fill="#d8e1ea"
       id="path197" />
    <path
       d="m631.33 269.21s0.377 4.083 0.377 4.083c0.126 1.57 1.57 2.764 3.141 2.764l113.13-2.576c1.633-0.063 2.889-1.382 2.764-3.015l-0.377-4.146c-0.126-1.57-1.508-2.764-3.141-2.764l-113.07 2.576c-1.696 0.063-2.953 1.444-2.827 3.078z"
       display="block"
       fill="#d8e1ea"
       id="path199" />
    <path
       d="m622.85 206.64s0.377 4.083 0.377 4.083c0.126 1.571 1.571 2.827 3.204 2.764l56.158-0.817c1.696-0.062 2.952-1.444 2.826-3.078 0 0-0.377-4.208-0.377-4.208-0.125-1.571-1.57-2.827-3.203-2.764 0 0-56.158 0.87902-56.158 0.87902-1.696 0.063-3.015 1.445-2.827 3.141z"
       display="block"
       fill="#d8e1ea"
       id="path201" />
    <path
       d="m 851.25,308.31 -220.73,5.171 c -5.397,0.207 -9.479,4.636 -8.995,9.756 l 3.24675,31.31813 c 1.35949,5.2221 3.64125,9.08887 8.96825,8.88187 l 222.49,-6.763 c 5.12,-0.276 8.927,-4.566 8.373,-9.617 l -3.46,-30.375 c -0.484,-4.843 -4.912,-8.58 -9.894,-8.372 z"
       display="block"
       fill="#80ebff"
       id="path203"
       sodipodi:nodetypes="cccccccccc" />
    <path
       d="m707.84 332.72 0.485 4.705c0.207 1.799 1.868 3.183 3.736 3.114l65.108-2.806c1.938-0.069 3.391-1.73 3.183-3.598l-0.484-4.774c-0.208-1.799-1.868-3.183-3.736-3.113l-64.901 2.667c-1.938 0.138-3.598 1.868-3.391 3.805z"
       display="block"
       fill="#3cbbd2"
       id="path205" />
    <path
       d="m826.55 356.75 4.221-2.371c1e-3 0 0 0 0-1e-3 0.561-0.312 1.164-0.894 1.111-1.74-0.052-0.838-0.715-1.347-1.303-1.594h-1e-3s-18.283-7.742-18.283-7.742v-1e-3c-0.299-0.126-0.629-0.216-0.965-0.215-0.344 2e-3 -0.749 0.103-1.069 0.423-0.32 0.319-0.422 0.725-0.424 1.069-1e-3 0.335 0.089 0.666 0.215 0.965l1e-3 1e-3 7.742 18.284c1e-3 0 0 2e-3 0 2e-3 0.248 0.588 0.756 1.25 1.594 1.303 0.846 0.053 1.428-0.55 1.74-1.111v-2e-3s2.354-4.192 2.354-4.192l5.207 5.206c0.889 0.89 2.227 0.679 3-0.094l0.019-0.018s0.017-0.02 0.017-0.02c0.691-0.767 0.891-2.082 0.011-2.962 0 0-5.189-5.19-5.189-5.19z"
       display="block"
       fill="#242d70"
       id="path207" />
    <path
       d="m571.16 212.87-229.23 1.661c-5.327 0.069-9.271 4.082-8.856 8.994 0 0 15.775 176.02 15.775 176.02 0.415 4.913 4.982 8.718 10.241 8.58 0 0 231.93-6.643 231.93-6.643 5.12-0.138 8.856-4.289 8.302-9.133l-18.404-171.11c-0.553-4.705-4.843-8.372-9.756-8.372z"
       display="block"
       fill="#fffbeb"
       id="path209" />
    <path
       d="m213.84 96.724s-198.19 3.643-198.19 3.643 37.375 513.58 37.375 513.58c1.131 13.443 13.066 23.556 26.886 22.803 0 0 176.01-9.423 176.01-9.423s-42.087-530.61-42.087-530.61z"
       display="block"
       fill="#f4f9fe"
       id="path211" />
    <path
       d="m70.302 170.66s0.37699 4.084 0.37699 4.084c0.126 1.57 1.57 2.826 3.203 2.763l94.036-1.758c1.696-0.063 3.016-1.382 2.827-3.016l-0.314-4.145c-0.126-1.571-1.57-2.827-3.204-2.764l-94.035 1.758c-1.696 0.063-3.016 1.445-2.89 3.078z"
       display="block"
       fill="#956fff"
       id="path213" />
    <path
       d="m72.061 190.7s0.37699 4.083 0.37699 4.083c0.126 1.571 1.571 2.827 3.204 2.764l82.352-1.445c1.696-0.062 3.015-1.381 2.889-3.015 0 0-0.314-4.208-0.314-4.208-0.125-1.571-1.57-2.827-3.203-2.764l-82.352 1.507c-1.822 0-3.141 1.382-2.953 3.078z"
       display="block"
       fill="#d8e1ea"
       id="path215" />
    <path
       d="m73.38 210.92 0.37699 4.083c0.12601 1.571 1.571 2.827 3.204 2.764l105.15-2.324c1.696-0.063 3.015-1.445 2.827-3.078 0 0-0.314-4.209-0.314-4.209-0.126-1.57-1.57-2.826-3.204-2.764l-105.15 2.325c-1.696 0.125-3.016 1.57-2.89 3.203z"
       display="block"
       fill="#d8e1ea"
       id="path217" />
    <path
       d="m74.889 231.15s0.37701 4.146 0.37701 4.146c0.12601 1.571 1.57 2.827 3.203 2.764l100.07-2.324c1.697-0.063 3.016-1.445 2.827-3.078 0 0-0.314-4.209-0.314-4.209-0.126-1.57-1.57-2.826-3.204-2.764l-100.07 2.387c-1.696 0-3.015 1.382-2.889 3.078z"
       display="block"
       fill="#d8e1ea"
       id="path219" />
    <path
       d="m81.421 313s0.37701 4.146 0.37701 4.146c0.12598 1.57 1.571 2.826 3.204 2.764l82.791-3.141c1.697-0.063 3.016-1.445 2.89-3.078 0 0-0.314-4.209-0.314-4.209-0.126-1.57-1.57-2.827-3.204-2.764l-82.791 3.204c-1.759 0-3.079 1.382-2.953 3.078z"
       display="block"
       fill="#d8e1ea"
       id="path221" />
    <path
       d="m79.098 290.76s0.37699 4.146 0.37699 4.146c0.126 1.571 1.57 2.827 3.203 2.764l37.941-1.193c1.696-0.063 3.016-1.445 2.89-3.078 0 0-0.314-4.209-0.314-4.209-0.126-1.57-1.571-2.827-3.204-2.764l-38.004 1.319c-1.696-0.063-3.015 1.319-2.889 3.015z"
       display="block"
       fill="#d8e1ea"
       id="path223" />
    <path
       d="m68.796 149.24s0.31399 4.083 0.31399 4.083c0.12601 1.57 1.57 2.827 3.203 2.764 0 0 37.816-0.87999 37.816-0.87999 1.696-0.062 3.015-1.382 2.889-3.015 0 0-0.314-4.208-0.314-4.208-0.125-1.571-1.57-2.827-3.203-2.764 0 0-37.816 0.942-37.816 0.942-1.696 0.063-3.015 1.445-2.889 3.078z"
       display="block"
       fill="#d8e1ea"
       id="path225" />
    <path
       d="m82.929 334.17s0.37701 4.146 0.37701 4.146c0.12598 1.57 1.571 2.826 3.267 2.763l67.779-1.884c1.696-0.063 3.015-1.445 2.889-3.078 0 0-0.314-4.209-0.314-4.209-0.126-1.57-1.57-2.826-3.204-2.764l-67.778 1.948c-1.822 0-3.142 1.444-3.016 3.078z"
       display="block"
       fill="#d8e1ea"
       id="path227" />
  </g>
  <text
     x="389.88718"
     y="-78.871437"
     font-family="sans-serif"
     font-size="64px"
     font-style="italic"
     font-weight="bold"
     style="line-height:1.25"
     xml:space="preserve"
     id="text233"><tspan
       x="389.88718"
       y="-78.871437"
       id="tspan231" /></text>
  <g
     transform="matrix(14.674,0,3.3052,14.674,-2049.6664,-2221.1068)"
     id="g243">
    <path
       d="m 128.32529,171.07465 2.6541,2.6541 -1.0211,1.0211 -2.6665,-2.6665 z"
       fill="url(#c)"
       id="path235"
       style="fill:url(#c)" />
    <path
       d="m 131.08729,175.83465 4.5847,-4.5847 0.87644,0.87643 -4.5723,4.5723 z"
       fill="url(#b)"
       id="path237"
       style="fill:url(#b)" />
    <path
       d="m 131.91429,167.50465 -2.4681,2.4681 2.683,2.683 2.497,-2.497 z"
       fill="url(#a)"
       id="path239"
       style="fill:url(#a)" />
    <path
       d="m 129.46629,170.62465 v 0.94258 l 2.1663,2.1663 -2.5756,2.5756 0.43822,0.43821 5.0891,-5.0891 v -0.87643 l -2.4915,2.4915 z"
       fill="#a282ff"
       id="path241" />
  </g>
  <g
     transform="matrix(0.83131,0,0.091294,0.83131,84.055682,50.51241)"
     fill="#55ddff"
     aria-label="Univerzitet UNION"
     id="g277">
    <path
       d="m 208.74,60.154 0.38344,29.047 c 0.0383,2.9047 0.72862,5.1282 2.0708,6.6706 1.342,1.5424 3.2918,2.2892 5.8493,2.2404 2.5575,-0.04885 4.5082,-0.87024 5.8521,-2.4642 1.344,-1.594 1.9975,-3.8437 1.9603,-6.7491 l -0.3718,-29.053 10.944,-0.21448 0.36284,28.988 c 0.0543,4.3356 -0.75237,8.0187 -2.4197,11.049 -1.6671,3.0304 -3.9399,5.334 -6.8185,6.9109 -2.8358,1.576 -6.022,2.3975 -9.559,2.4646 -3.5369,0.0671 -6.7214,-0.61048 -9.5535,-2.0325 -2.7903,-1.4688 -5.0154,-3.6861 -6.6751,-6.6519 -1.6606,-3.0117 -2.5203,-6.6842 -2.5787,-11.018 l -0.3906,-28.974 z"
       id="path245" />
    <path
       d="m 264.98,68.605 c 4.1804,-0.0814 7.5246,1.3305 10.033,4.2358 2.5497,2.8586 3.8537,6.8492 3.9121,11.972 l 0.25752,22.567 -10.867,0.20606 -0.24516,-20.972 c -0.0302,-2.584 -0.67197,-4.5793 -1.9254,-5.9859 -1.2535,-1.4065 -2.9251,-2.0895 -5.0147,-2.0491 -2.0896,0.04042 -3.7443,0.78771 -4.9638,2.2418 -1.2195,1.4541 -1.8136,3.4729 -1.7825,6.0564 l 0.25245,20.968 -10.931,0.20727 -0.47567,-38.609 10.941,-0.213 0.0617,5.121 c 1.0884,-1.7285 2.5652,-3.0955 4.4304,-4.1009 1.8648,-1.0516 3.9702,-1.6002 6.3163,-1.6459 z"
       id="path247" />
    <path
       d="m 291.81,64.482 c -1.9197,0.03747 -3.5049,-0.53175 -4.7555,-1.7076 -1.2085,-1.2228 -1.823,-2.7342 -1.8432,-4.5343 -0.0208,-1.8462 0.55951,-3.381 1.7409,-4.6045 1.2236,-1.2706 2.7956,-1.9247 4.7159,-1.9626 1.8777,-0.03697 3.4208,0.55596 4.6293,1.7788 1.2506,1.1759 1.886,2.6871 1.9061,4.5336 0.0196,1.8003 -0.58236,3.3358 -1.806,4.6064 -1.1814,1.2235 -2.7105,1.8536 -4.5876,1.8902 z m 5.4831,3.9099 0.42255,38.637 -10.931,0.20727 -0.4333,-38.632 z"
       id="path249" />
    <path
       d="m 321.58,95.492 7.4575,-27.718 11.645,-0.2267 -12.276,38.9 -13.487,0.25576 -13.075,-38.4 11.709,-0.22795 z"
       id="path251" />
    <path
       d="m 379.11,85.519 c 0.01,1.1091 -0.0439,2.2657 -0.16116,3.4696 l -24.748,0.47462 c 0.19331,2.399 0.91419,4.2334 2.1626,5.5034 1.2905,1.223 2.8522,1.817 4.685,1.782 2.7279,-0.05205 4.6132,-1.3358 5.656,-3.8512 l 11.637,-0.22262 c -0.57421,2.5531 -1.6408,4.8613 -3.1996,6.9246 -1.5161,2.0624 -3.4408,3.6935 -5.7742,4.8932 -2.3333,1.1996 -4.9487,1.8269 -7.8464,1.8818 -3.4943,0.0662 -6.6128,-0.68326 -9.3555,-2.2484 -2.743,-1.565 -4.8962,-3.8342 -6.4597,-6.8074 -1.5637,-2.9731 -2.3653,-6.469 -2.4045,-10.488 -0.0392,-4.0186 0.67273,-7.5435 2.1361,-10.575 1.5062,-3.0322 3.6165,-5.3833 6.3308,-7.0532 2.7145,-1.67 5.8422,-2.5395 9.3826,-2.6085 3.4552,-0.06729 6.5337,0.6584 9.2352,2.1771 2.7014,1.5189 4.8114,3.7195 6.3301,6.6019 1.5611,2.8817 2.3588,6.2635 2.3931,10.145 z m -11.22,-2.9038 c -0.0186,-2.0331 -0.673,-3.6379 -1.9633,-4.8145 -1.2904,-1.1766 -2.8952,-1.7463 -4.8143,-1.7091 -1.8338,0.03549 -3.385,0.6431 -4.6535,1.8228 -1.2258,1.1789 -1.9778,2.8337 -2.2561,4.9645 z"
       id="path253" />
    <path
       d="m 395.69,72.925 c 1.2616,-2.1511 2.8472,-3.8463 4.7566,-5.0855 1.9092,-1.2855 4.0368,-1.9511 6.3829,-1.9968 l 0.10216,12.552 -3.0063,0.05805 c -2.7292,0.0527 -4.7706,0.73938 -6.1243,2.06 -1.354,1.2744 -2.0176,3.5062 -1.9907,6.6956 l 0.15128,17.958 -10.931,0.20727 -0.33669,-38.683 10.941,-0.213 z"
       id="path255" />
    <path
       d="m 422.55,94.881 15.473,-0.29538 0.0719,9.7818 -27.678,0.52484 -0.076,-9.4314 14.684,-19.774 -14.713,0.28454 -0.0787,-9.7782 27.257,-0.53063 0.0694,9.4349 z"
       id="path257" />
    <path
       d="m 449.29,61.408 c -1.9197,0.03747 -3.5025,-0.53303 -4.7483,-1.7115 -1.2036,-1.2255 -1.8119,-2.7402 -1.8249,-4.544 -0.0134,-1.8501 0.57301,-3.3882 1.7592,-4.6143 1.2286,-1.2732 2.8031,-1.9287 4.7234,-1.9665 1.8777,-0.03697 3.4183,0.55729 4.6218,1.7828 1.2458,1.1784 1.8751,2.6929 1.8878,4.5433 0.0124,1.8042 -0.59567,3.3429 -1.8242,4.6161 -1.1862,1.2261 -2.7178,1.8574 -4.5948,1.8941 z m 5.467,3.9185 0.26785,38.72 -10.931,0.20727 -0.27861,-38.714 z"
       id="path259" />
    <path
       d="m 482.77,93.454 0.0625,10.065 -5.5612,0.10545 c -3.9631,0.0751 -7.0594,-0.90733 -9.2892,-2.9474 -2.2303,-2.0862 -3.3614,-5.5119 -3.3932,-10.277 l -0.10279,-15.407 -4.3498,0.08412 -0.0668,-9.8542 4.3509,-0.0847 -0.063,-9.4384 10.944,-0.2144 0.0603,9.4398 7.1662,-0.13951 0.0612,9.8572 -7.1644,0.13855 0.0994,15.548 c 0.007,1.1568 0.26848,1.9849 0.78324,2.4841 0.51475,0.49924 1.3689,0.73747 2.5624,0.71468 z"
       id="path261" />
    <path
       d="m 522.43,82.763 c 0.006,1.1113 -0.0522,2.2701 -0.17379,3.4764 l -24.748,0.47462 c 0.18456,2.4037 0.89871,4.2417 2.1424,5.5141 1.286,1.2254 2.8453,1.8206 4.6782,1.7856 2.7279,-0.05205 4.6178,-1.3382 5.6696,-3.8585 l 11.637,-0.22262 c -0.58346,2.558 -1.6584,4.8707 -3.2246,6.938 -1.5235,2.0664 -3.454,3.7005 -5.7916,4.9024 -2.3375,1.2019 -4.955,1.8302 -7.8528,1.8852 -3.4943,0.0662 -6.6098,-0.68483 -9.3467,-2.2531 -2.7371,-1.5682 -4.8819,-3.8418 -6.4344,-6.8209 -1.5528,-2.979 -2.3416,-6.4816 -2.3662,-10.508 -0.0246,-4.0264 0.70017,-7.5581 2.1745,-10.595 1.5172,-3.0381 3.6359,-5.3936 6.3561,-7.0666 2.7204,-1.6731 5.851,-2.5442 9.3915,-2.6132 3.4552,-0.06729 6.5308,0.65992 9.2266,2.1817 2.6956,1.5219 4.7975,3.7269 6.3056,6.6149 1.5505,2.8873 2.3358,6.2757 2.356,10.165 z m -11.209,-2.9098 c -0.0112,-2.037 -0.6597,-3.645 -1.9457,-4.824 -1.286,-1.1789 -2.8886,-1.7498 -4.8077,-1.7126 -1.8338,0.03548 -3.3871,0.64422 -4.6598,1.8262 -1.23,1.1811 -1.988,2.8391 -2.2741,4.9741 z"
       id="path263" />
    <path
       d="m 548.12,92.206 0.0458,10.074 -5.5612,0.10546 c -3.9631,0.0751 -7.0577,-0.90826 -9.284,-2.9501 -2.2267,-2.0881 -3.3521,-5.5169 -3.376,-10.287 l -0.0772,-15.42 -4.3498,0.08412 -0.0505,-9.8629 4.3509,-0.0847 -0.0473,-9.4467 10.944,-0.2144 0.0447,9.4481 7.1662,-0.13951 0.0449,9.8659 -7.1644,0.13855 0.0736,15.562 c 0.005,1.1579 0.26518,1.9866 0.7791,2.4863 0.5139,0.49969 1.3676,0.73815 2.5611,0.71536 z"
       id="path265" />
    <path
       d="m 578.34,52.911 0.1102,29.193 c 0.011,2.9193 0.68027,5.154 2.0077,6.7042 1.3273,1.5503 3.2697,2.301 5.8272,2.2522 2.5575,-0.04885 4.5156,-0.87417 5.8742,-2.476 1.3588,-1.6019 2.0332,-3.8628 2.0234,-6.7827 l -0.0986,-29.199 10.944,-0.21448 0.0903,29.134 c 0.0135,4.3573 -0.82763,8.0588 -2.5232,11.104 -1.6953,3.0454 -3.9894,5.3604 -6.8823,6.9449 -2.8501,1.5836 -6.0435,2.409 -9.5804,2.476 -3.5369,0.0671 -6.7144,-0.61418 -9.5327,-2.0436 -2.776,-1.4765 -4.9798,-3.7051 -6.6114,-6.6859 -1.632,-3.027 -2.457,-6.718 -2.4746,-11.073 l -0.11801,-29.119 z"
       id="path267" />
    <path
       d="m 652.99,100.29 -10.931,0.20727 -18.361,-29.768 0.0791,30.115 -10.931,0.20727 -0.14172,-48.816 10.944,-0.21448 18.37,29.903 -0.0654,-30.261 10.944,-0.21448 z"
       id="path269" />
    <path
       d="m 671.78,51.08 0.0687,48.855 -10.931,0.20727 -0.0823,-48.848 z"
       id="path271" />
    <path
       d="m 701,99.869 c -4.2188,0.07997 -8.0975,-0.91394 -11.637,-2.9816 -3.4968,-2.0682 -6.2918,-4.9849 -8.3847,-8.7501 -2.0508,-3.8121 -3.0794,-8.1077 -3.0854,-12.887 -0.006,-4.7792 1.0122,-9.0911 3.055,-12.936 2.0858,-3.8457 4.8768,-6.8701 8.373,-9.0732 3.5393,-2.2041 7.4211,-3.3477 11.645,-3.4305 4.2241,-0.08282 8.086,0.90912 11.585,2.976 3.5417,2.0662 6.3154,4.9833 8.321,8.7512 2.0478,3.7673 3.0718,8.0421 3.0723,12.824 4.1e-4,4.7822 -1.0224,9.1197 -3.068,13.012 -2.0452,3.846 -4.8149,6.87 -8.3089,9.0718 -3.4936,2.2017 -7.3496,3.3424 -11.568,3.4224 z m -0.007,-10.861 c 3.5805,-0.06838 6.4358,-1.4226 8.566,-4.0629 2.1731,-2.6412 3.2589,-6.0973 3.2574,-10.368 -0.002,-4.3172 -1.0904,-7.7314 -3.2667,-10.242 -2.1339,-2.558 -4.9925,-3.8021 -8.5756,-3.7324 -3.6258,0.07058 -6.5253,1.4033 -8.6984,3.9981 -2.1302,2.5938 -3.1931,6.0718 -3.1888,10.434 0.004,4.3159 1.0734,7.7527 3.2073,10.311 2.1762,2.5109 5.0758,3.7319 8.699,3.6627 z"
       id="path273" />
    <path
       d="m 770.16,98.071 -10.931,0.20727 -18.271,-29.816 -0.0103,30.162 -10.931,0.20727 0.003,-48.894 10.944,-0.21448 18.28,29.951 0.0244,-30.309 10.944,-0.21448 z"
       id="path275" />
  </g>
</svg>
