<?xml version="1.0" encoding="UTF-8" standalone="no"?>
<svg
   xmlns:dc="http://purl.org/dc/elements/1.1/"
   xmlns:cc="http://creativecommons.org/ns#"
   xmlns:rdf="http://www.w3.org/1999/02/22-rdf-syntax-ns#"
   xmlns:svg="http://www.w3.org/2000/svg"
   xmlns="http://www.w3.org/2000/svg"
   xmlns:sodipodi="http://sodipodi.sourceforge.net/DTD/sodipodi-0.dtd"
   xmlns:inkscape="http://www.inkscape.org/namespaces/inkscape"
   width="364.45294mm"
   height="80.308754mm"
   viewBox="0 0 364.45294 80.308754"
   version="1.1"
   id="svg8"
   inkscape:version="1.0.1 (3bc2e813f5, 2020-09-07)"
   sodipodi:docname="lazar_vrkatic_white_font.svg">
  <defs
     id="defs2" />
  <sodipodi:namedview
     id="base"
     pagecolor="#ffffff"
     bordercolor="#666666"
     borderopacity="1.0"
     inkscape:pageopacity="0.0"
     inkscape:pageshadow="2"
     inkscape:zoom="0.83334723"
     inkscape:cx="550.93901"
     inkscape:cy="-49.021201"
     inkscape:document-units="mm"
     inkscape:current-layer="layer1"
     inkscape:document-rotation="0"
     showgrid="false"
     inkscape:window-width="2560"
     inkscape:window-height="1377"
     inkscape:window-x="1912"
     inkscape:window-y="-8"
     inkscape:window-maximized="1" />
  <metadata
     id="metadata5">
    <rdf:RDF>
      <cc:Work
         rdf:about="">
        <dc:format>image/svg+xml</dc:format>
        <dc:type
           rdf:resource="http://purl.org/dc/dcmitype/StillImage" />
        <dc:title />
      </cc:Work>
    </rdf:RDF>
  </metadata>
  <g
     inkscape:label="Layer 1"
     inkscape:groupmode="layer"
     id="layer1"
     transform="translate(-3.8199829,-89.496514)">
    <path
       d="m 84.128733,89.496514 v 17.846396 c -9.840241,0 -17.846389,-8.006141 -17.846389,-17.846396 z m -12.028383,4.85444 c 1.312157,3.239316 3.890839,5.828926 7.122865,7.155706 V 94.350954 Z M 84.128733,112.1361 v 14.83256 c -20.665446,0 -37.477414,-16.81021 -37.477414,-37.472146 h 14.836054 c 0,12.484256 10.157087,22.639586 22.64136,22.639586 z m -4.72112,9.80409 v -5.53607 C 68.10186,114.42466 59.168966,105.47949 57.210611,94.168434 H 51.674534 C 53.729486,108.50043 65.08266,119.86592 79.407613,121.94019 Z M 3.8199829,141.25106 c 15.7443751,0 28.5542261,12.80797 28.5542261,28.55052 H 16.873921 c 0,-7.19587 -5.856195,-13.05206 -13.0539381,-13.05206 z m 17.2676061,23.66886 h 5.881889 c -1.923312,-9.1339 -9.132064,-16.34084 -18.2678001,-18.26416 v 5.88006 c 5.9773181,1.69207 10.6938371,6.40862 12.3859111,12.3841 z m -10.127265,4.88535 H 3.8199829 v -7.13856 c 3.9369147,0 7.1403411,3.20164 7.1403411,7.13856 z m 42.356863,-22.65576 c 2.084816,1.10721 4.243702,2.0953 6.456783,2.9768 7.528101,3.0017 15.744513,4.6705 24.354763,4.6705 v 15.00846 H 37.549189 c 0,-18.29451 -15.130266,-33.1768 -33.7292061,-33.1768 v -15.00845 c 25.3899441,0 46.3266211,19.09957 48.7492741,43.45788 h 5.642004 c -0.352296,-3.93647 -1.129123,-7.7539 -2.2998,-11.40252 -0.720831,-2.24283 -1.593416,-4.4199 -2.594274,-6.52587 z m 25.955407,17.92839 v -5.72081 c -6.16773,-0.41787 -12.122279,-1.61543 -17.749835,-3.51527 0.747931,2.99633 1.262813,6.08156 1.522963,9.23608 h 0.666635 z m -37.214131,0 h 5.665492 C 45.492809,144.89246 29.148503,128.81588 8.6255372,126.62107 v 5.5733 C 26.044766,134.33592 39.881511,147.94571 42.058463,165.0779 Z M 39.959194,89.496514 c 0,24.351136 19.814776,44.164106 44.169539,44.164106 v 15.25673 c -31.149379,0 -56.759731,-24.09278 -59.216702,-54.617078 h -5.636592 c 0.507657,6.863238 2.073979,13.435658 4.550822,19.547378 0.89788,2.21308 1.902349,4.37016 3.02786,6.455 -2.140816,-0.99906 -4.353902,-1.87167 -6.635638,-2.59249 -5.179517,-1.63314 -10.6860309,-2.51838 -16.3985001,-2.51838 V 89.496514 Z m 39.3134,54.375016 v -5.63476 C 56.111993,135.94599 37.644941,117.4645 35.379466,94.300272 h -5.636593 c 2.301612,26.264318 23.270806,47.244368 49.529721,49.571258 z M 8.6255372,110.57591 c 3.2067138,0.26205 6.3447758,0.77505 9.3888958,1.52295 -1.934868,-5.64199 -3.152515,-11.61282 -3.577067,-17.798588 H 8.6255372 Z"
       id="Combined-Shape"
       style="fill:#dc1e35;fill-rule:evenodd;stroke:none;stroke-width:1.33848" />
    <g
       id="Logo_typo"
       transform="matrix(0.96931314,0,0,0.96931314,102.87524,117.37734)"
       style="fill:#000000;fill-rule:evenodd;stroke:none;stroke-width:1">
      <polygon
         id="Fill-15"
         points="125.28413,1.076 121.46013,1.076 121.46013,2.9106667 124.85213,2.9106667 124.85213,3.9866667 121.46013,3.9866667 121.46013,6.724 120.2788,6.724 120.2788,0 125.28413,0 "
         style="fill:#000000" />
      <path
         d="M 130.09053,4.1013333 128.92787,1.412 l -1.152,2.6893333 z M 128.39987,0 h 1.09466 l 2.95867,6.772 h -1.24933 l -0.68134,-1.624 h -3.18 l -0.69066,1.624 h -1.21067 z"
         id="Fill-17"
         style="fill:#000000" />
      <polygon
         id="Fill-19"
         points="134.9936,6.724 133.81227,6.724 133.81227,0 134.9936,0 134.9936,3.3813333 138.19227,0 139.64293,0 136.84693,2.892 139.76827,6.724 138.33627,6.724 136.04027,3.6986667 134.9936,4.7746667 "
         style="fill:#000000" />
      <path
         d="M 140.73227,3.8706667 V 0 h 1.18133 v 3.8226667 c 0,1.2493333 0.644,1.9213333 1.70133,1.9213333 1.04667,0 1.69067,-0.6333333 1.69067,-1.8733333 V 0 h 1.18133 v 3.8133333 c 0,2.008 -1.13466,3.016 -2.892,3.016 -1.748,0 -2.86266,-1.008 -2.86266,-2.9586666"
         id="Fill-21"
         style="fill:#000000" />
      <polygon
         id="Fill-23"
         points="153.0316,6.724 148.3156,6.724 148.3156,0 149.49693,0 149.49693,5.648 153.0316,5.648 "
         style="fill:#000000" />
      <polygon
         id="Fill-25"
         points="156.3488,6.724 155.15813,6.724 155.15813,1.0946667 153.02613,1.0946667 153.02613,0 158.48213,0 158.48213,1.0946667 156.3488,1.0946667 "
         style="fill:#000000" />
      <polygon
         id="Fill-27"
         points="164.9704,6.724 159.93573,6.724 159.93573,0 164.92107,0 164.92107,1.0573333 161.11707,1.0573333 161.11707,2.8053333 164.48907,2.8053333 164.48907,3.8613333 161.11707,3.8613333 161.11707,5.668 164.9704,5.668 "
         style="fill:#000000" />
      <polygon
         id="Fill-29"
         points="169.4208,6.724 168.23013,6.724 168.23013,1.0946667 166.0968,1.0946667 166.0968,0 171.55413,0 171.55413,1.0946667 169.4208,1.0946667 "
         style="fill:#000000" />
      <polygon
         id="Fill-31"
         points="175.97733,1.0466667 175.97733,0 181.35733,0 181.35733,0.87333333 177.38933,5.676 181.35733,5.676 181.35733,6.724 175.85333,6.724 175.85333,5.8493333 179.82,1.0466667 "
         style="fill:#000000" />
      <path
         d="M 187.11533,4.1013333 185.95267,1.412 l -1.152,2.6893333 z M 185.42467,0 h 1.09466 l 2.95867,6.772 h -1.24933 l -0.68134,-1.624 h -3.18 l -0.69066,1.624 H 182.466 Z"
         id="Fill-33"
         style="fill:#000000" />
      <path
         d="m 122.83413,16.883867 c 0.89467,0 1.45067,-0.498667 1.45067,-1.2 v -0.02 c 0,-0.786667 -0.56667,-1.2 -1.45067,-1.2 h -1.37333 v 2.42 z m -2.556,-3.496 h 2.652 c 1.56667,0 2.556,0.893333 2.556,2.248 v 0.01867 c 0,1.508 -1.21066,2.296 -2.69066,2.296 h -1.33467 v 2.161334 h -1.18267 z"
         id="Fill-35"
         style="fill:#000000" />
      <path
         d="m 129.81213,16.7212 c 0.84534,0 1.38267,-0.441333 1.38267,-1.124 v -0.02 c 0,-0.72 -0.51733,-1.113333 -1.392,-1.113333 h -1.71867 V 16.7212 Z m -2.91066,-3.333333 h 2.99733 c 0.84533,0 1.508,0.249333 1.94133,0.672 0.35467,0.365333 0.556,0.864 0.556,1.450666 v 0.02 c 0,1.104 -0.66266,1.766667 -1.60533,2.036 l 1.81733,2.545334 h -1.39333 l -1.65333,-2.344 h -1.47734 v 2.344 h -1.18266 z"
         id="Fill-37"
         style="fill:#000000" />
      <path
         d="m 138.1252,17.4416 -1.16267,-2.689333 -1.152,2.689333 z m -1.69067,-4.101333 h 1.09467 l 2.95867,6.772 h -1.24934 l -0.68133,-1.624 h -3.17867 l -0.692,1.624 h -1.21066 z"
         id="Fill-39"
         style="fill:#000000" />
      <polygon
         id="Fill-41"
         points="141.61653,13.387467 143.6432,18.555467 145.66053,13.387467 146.93787,13.387467 144.1432,20.159467 143.10587,20.159467 140.30987,13.387467 "
         style="fill:#000000" />
      <polygon
         id="Fill-43"
         points="152.99413,18.0368 152.99413,13.387467 154.1568,13.387467 154.1568,20.111467 153.16613,20.111467 149.45947,15.327467 149.45947,20.111467 148.2968,20.111467 148.2968,13.387467 149.39147,13.387467 "
         style="fill:#000000" />
      <polygon
         id="Fill-45"
         points="161.12413,20.111467 156.09213,20.111467 156.09213,13.387467 161.07747,13.387467 161.07747,14.4448 157.27347,14.4448 157.27347,16.1928 160.64413,16.1928 160.64413,17.2488 157.27347,17.2488 157.27347,19.055467 161.12413,19.055467 "
         style="fill:#000000" />
      <polygon
         id="Fill-47"
         points="167.06667,13.386933 165.88533,13.386933 165.88533,20.110933 167.06667,20.110933 "
         style="fill:#000000" />
      <path
         d="m 174.70667,16.883867 c 0.89466,0 1.45066,-0.498667 1.45066,-1.2 v -0.02 c 0,-0.786667 -0.56666,-1.2 -1.45066,-1.2 h -1.37334 v 2.42 z m -2.55467,-3.496 h 2.652 c 1.56533,0 2.55467,0.893333 2.55467,2.248 0,1.526666 -1.21067,2.314666 -2.68934,2.314666 h -1.336 v 2.161334 H 172.152 Z"
         id="Fill-49"
         style="fill:#000000" />
      <path
         d="m 184.26893,16.768933 v -0.01867 c 0,-1.306667 -0.95066,-2.392 -2.28666,-2.392 -1.33467,0 -2.26667,1.066666 -2.26667,2.372 v 0.02 c 0,1.306666 0.952,2.392 2.28667,2.392 1.33466,0 2.26666,-1.066667 2.26666,-2.373334 m -5.792,0 v -0.01867 c 0,-1.893334 1.46,-3.477334 3.52534,-3.477334 2.06533,0 3.50666,1.565334 3.50666,3.457334 v 0.02 c 0,1.892 -1.46133,3.477333 -3.52666,3.477333 -2.064,0 -3.50534,-1.565333 -3.50534,-3.458667"
         id="Fill-50"
         style="fill:#000000" />
      <path
         d="m 186.646,19.131867 0.712,-0.845334 c 0.64267,0.557334 1.28667,0.874667 2.12267,0.874667 0.72933,0 1.19066,-0.337333 1.19066,-0.845333 v -0.02 c 0,-0.48 -0.26933,-0.738667 -1.51733,-1.026667 -1.432,-0.346667 -2.23867,-0.769333 -2.23867,-2.008 v -0.02 c 0,-1.152 0.96,-1.949333 2.296,-1.949333 0.98,0 1.75734,0.297333 2.44,0.845333 l -0.63466,0.893333 c -0.604,-0.452 -1.20934,-0.692 -1.824,-0.692 -0.692,0 -1.096,0.354667 -1.096,0.797334 v 0.02 c 0,0.517333 0.308,0.749333 1.59466,1.056 1.42267,0.345333 2.16134,0.854666 2.16134,1.969333 v 0.01867 c 0,1.258666 -0.98934,2.008 -2.40134,2.008 -1.028,0 -1.99866,-0.356 -2.80533,-1.076"
         id="Fill-51"
         style="fill:#000000" />
      <polygon
         id="Fill-52"
         points="198.16693,20.111467 193.45093,20.111467 193.45093,13.387467 194.63227,13.387467 194.63227,19.0368 198.16693,19.0368 "
         style="fill:#000000" />
      <path
         d="m 204.71293,16.768933 v -0.01867 c 0,-1.306667 -0.95066,-2.392 -2.28666,-2.392 -1.33467,0 -2.26667,1.066666 -2.26667,2.372 v 0.02 c 0,1.306666 0.95067,2.392 2.28667,2.392 1.33466,0 2.26666,-1.066667 2.26666,-2.373334 m -5.79333,0 v -0.01867 c 0,-1.893334 1.46133,-3.477334 3.52667,-3.477334 2.06533,0 3.50533,1.565334 3.50533,3.457334 v 0.02 c 0,1.892 -1.46,3.477333 -3.52533,3.477333 -2.06534,0 -3.50667,-1.565333 -3.50667,-3.458667"
         id="Fill-53"
         style="fill:#000000" />
      <polygon
         id="Fill-54"
         points="207.90627,13.387467 209.93293,18.555467 211.95027,13.387467 213.2276,13.387467 210.43293,20.159467 209.3956,20.159467 206.5996,13.387467 "
         style="fill:#000000" />
      <polygon
         id="Fill-55"
         points="219.28467,18.0368 219.28467,13.387467 220.44733,13.387467 220.44733,20.111467 219.45667,20.111467 215.75,15.327467 215.75,20.111467 214.58733,20.111467 214.58733,13.387467 215.682,13.387467 "
         style="fill:#000000" />
      <polygon
         id="Fill-56"
         points="227.4152,20.111467 222.38187,20.111467 222.38187,13.387467 227.3672,13.387467 227.3672,14.4448 223.5632,14.4448 223.5632,16.1928 226.9352,16.1928 226.9352,17.2488 223.5632,17.2488 223.5632,19.055467 227.4152,19.055467 "
         style="fill:#000000" />
      <path
         d="m 231.65707,19.131867 0.71066,-0.845334 c 0.644,0.557334 1.288,0.874667 2.12267,0.874667 0.73067,0 1.192,-0.337333 1.192,-0.845333 v -0.02 c 0,-0.48 -0.26933,-0.738667 -1.51867,-1.026667 -1.43066,-0.346667 -2.23733,-0.769333 -2.23733,-2.008 v -0.02 c 0,-1.152 0.96,-1.949333 2.296,-1.949333 0.98,0 1.75733,0.297333 2.44,0.845333 l -0.63467,0.893333 c -0.604,-0.452 -1.20933,-0.692 -1.824,-0.692 -0.692,0 -1.096,0.354667 -1.096,0.797334 v 0.02 c 0,0.517333 0.30667,0.749333 1.59467,1.056 1.42133,0.345333 2.16133,0.854666 2.16133,1.969333 v 0.01867 c 0,1.258666 -0.98933,2.008 -2.40133,2.008 -1.028,0 -1.99867,-0.356 -2.80533,-1.076"
         id="Fill-57"
         style="fill:#000000" />
      <polygon
         id="Fill-58"
         points="241.16133,20.111867 239.96933,20.111867 239.96933,14.482533 237.83733,14.482533 237.83733,13.387867 243.29333,13.387867 243.29333,14.482533 241.16133,14.482533 "
         style="fill:#000000" />
      <path
         d="m 244.64213,17.258533 v -3.870666 h 1.18134 v 3.822666 c 0,1.249334 0.644,1.921334 1.7,1.921334 1.048,0 1.692,-0.633334 1.692,-1.873334 v -3.870666 h 1.18 V 17.2012 c 0,2.008 -1.13334,3.016 -2.89067,3.016 -1.74933,0 -2.86267,-1.008 -2.86267,-2.958667"
         id="Fill-59"
         style="fill:#000000" />
      <path
         d="m 254.7324,19.0364 c 1.412,0 2.33467,-0.950667 2.33467,-2.268 v -0.01867 c 0,-1.316 -0.92267,-2.286666 -2.33467,-2.286666 h -1.32533 V 19.0364 Z m -2.50667,-5.649333 h 2.50667 c 2.11333,0 3.57333,1.450666 3.57333,3.344 v 0.01867 c 0,1.892 -1.46,3.362667 -3.57333,3.362667 h -2.50667 z"
         id="Fill-60"
         style="fill:#000000" />
      <polygon
         id="Fill-61"
         points="261.192,13.386933 260.01067,13.386933 260.01067,20.110933 261.192,20.110933 "
         style="fill:#000000" />
      <path
         d="m 262.5292,19.122533 0.77733,-0.797333 c 0.39467,0.498667 0.788,0.788 1.35467,0.788 0.63467,0 1.06667,-0.422667 1.06667,-1.316 v -4.409333 h 1.21066 V 17.8252 c 0,0.797333 -0.23066,1.393333 -0.62533,1.786667 -0.39333,0.394666 -0.96,0.596 -1.632,0.596 -1.03867,0 -1.71067,-0.48 -2.152,-1.085334"
         id="Fill-62"
         style="fill:#000000" />
      <polygon
         id="Fill-63"
         points="273.79973,20.111467 268.7664,20.111467 268.7664,13.387467 273.75173,13.387467 273.75173,14.4448 269.94773,14.4448 269.94773,16.1928 273.31973,16.1928 273.31973,17.2488 269.94773,17.2488 269.94773,19.055467 273.79973,19.055467 "
         style="fill:#000000" />
      <path
         d="m 122.78653,32.314667 c 1.412,0 2.33467,-0.950667 2.33467,-2.266667 v -0.01867 c 0,-1.316 -0.92267,-2.286666 -2.33467,-2.286666 h -1.32533 v 4.572 z m -2.508,-5.648 h 2.508 c 2.11334,0 3.57334,1.450666 3.57334,3.342666 v 0.02 c 0,1.892 -1.46,3.361334 -3.57334,3.361334 h -2.508 z"
         id="Fill-64"
         style="fill:#000000" />
      <path
         d="m 130.90933,30 c 0.84667,0 1.384,-0.441333 1.384,-1.124 v -0.02 c 0,-0.72 -0.51866,-1.113333 -1.39333,-1.113333 h -1.71867 V 30 Z M 128,26.666667 h 2.996 c 0.84533,0 1.508,0.249333 1.94133,0.672 0.35467,0.365333 0.556,0.864 0.556,1.450666 v 0.02 c 0,1.104 -0.66266,1.766667 -1.604,2.036 l 1.816,2.545334 H 132.312 l -1.652,-2.344 h -1.47867 v 2.344 H 128 Z"
         id="Fill-65"
         style="fill:#000000" />
      <polygon
         id="Fill-66"
         points="142.9492,33.390667 138.2332,33.390667 138.2332,26.666667 139.41453,26.666667 139.41453,32.314667 142.9492,32.314667 "
         style="fill:#000000" />
      <path
         d="m 148.45787,30.768 -1.16267,-2.689333 -1.152,2.689333 z m -1.69067,-4.101333 h 1.09467 l 2.95866,6.772 h -1.24933 l -0.68133,-1.624 h -3.18 l -0.69067,1.624 h -1.21067 z"
         id="Fill-67"
         style="fill:#000000" />
      <polygon
         id="Fill-68"
         points="152.06347,27.713333 152.06347,26.666667 157.44347,26.666667 157.44347,27.54 153.4768,32.342667 157.44347,32.342667 157.44347,33.390667 151.93947,33.390667 151.93947,32.516 155.90613,27.713333 "
         style="fill:#000000" />
      <path
         d="m 163.20133,30.768 -1.16266,-2.689333 -1.152,2.689333 z m -1.69066,-4.101333 h 1.096 l 2.95733,6.772 h -1.248 l -0.68267,-1.624 h -3.18 l -0.69066,1.624 H 158.552 Z"
         id="Fill-69"
         style="fill:#000000" />
      <path
         d="m 169.8336,30 c 0.84667,0 1.384,-0.441333 1.384,-1.124 v -0.02 c 0,-0.72 -0.51867,-1.113333 -1.39333,-1.113333 H 168.1056 V 30 Z m -2.90933,-3.333333 h 2.996 c 0.84533,0 1.508,0.249333 1.94133,0.672 0.35467,0.365333 0.556,0.864 0.556,1.450666 v 0.02 c 0,1.104 -0.66267,1.766667 -1.604,2.036 l 1.816,2.545334 h -1.39333 l -1.652,-2.344 h -1.47867 v 2.344 h -1.18133 z"
         id="Fill-70"
         style="fill:#000000" />
      <polygon
         id="Fill-71"
         points="177.88973,26.666667 179.9164,31.834667 181.93373,26.666667 183.21107,26.666667 180.4164,33.438667 179.37907,33.438667 176.58307,26.666667 "
         style="fill:#000000" />
      <path
         d="m 187.48053,30 c 0.84534,0 1.384,-0.441333 1.384,-1.124 v -0.02 c 0,-0.72 -0.52,-1.113333 -1.39333,-1.113333 h -1.72 V 30 Z m -2.91066,-3.333333 h 2.99733 c 0.84533,0 1.508,0.249333 1.94,0.672 0.356,0.365333 0.55733,0.864 0.55733,1.450666 v 0.02 c 0,1.104 -0.66266,1.766667 -1.604,2.036 l 1.816,2.545334 h -1.39333 l -1.652,-2.344 h -1.48 v 2.344 h -1.18133 z"
         id="Fill-72"
         style="fill:#000000" />
      <polygon
         id="Fill-73"
         points="192.90213,33.390667 191.7208,33.390667 191.7208,26.666667 192.90213,26.666667 192.90213,30.048 196.1008,26.666667 197.55147,26.666667 194.75547,29.558667 197.6768,33.390667 196.2448,33.390667 193.9488,30.365333 192.90213,31.441333 "
         style="fill:#000000" />
      <path
         d="m 202.82947,30.768 -1.16267,-2.689333 -1.152,2.689333 z m -1.69067,-4.101333 h 1.09467 l 2.95866,6.772 h -1.24933 l -0.68133,-1.624 h -3.17867 l -0.692,1.624 h -1.21067 z"
         id="Fill-74"
         style="fill:#000000" />
      <polygon
         id="Fill-75"
         points="208.53,33.390667 207.338,33.390667 207.338,27.761333 205.206,27.761333 205.206,26.666667 210.662,26.666667 210.662,27.761333 208.53,27.761333 "
         style="fill:#000000" />
      <polygon
         id="Fill-76"
         points="213.36533,26.666667 212.184,26.666667 212.184,33.390667 213.36533,33.390667 "
         style="fill:#000000" />
      <path
         d="m 219.02547,24.533333 1.056,0.461333 -1.22934,0.932 h -0.90266 z m -3.95734,5.428 v -0.01867 c 0,-1.912 1.43067,-3.478667 3.46667,-3.478667 1.24,0 1.98933,0.432 2.632,1.046667 l -0.75867,0.874667 c -0.53733,-0.5 -1.11333,-0.834667 -1.88266,-0.834667 -1.28667,0 -2.21867,1.056 -2.21867,2.372 v 0.02 c 0,1.314667 0.932,2.392 2.21867,2.392 0.82666,0 1.35466,-0.337333 1.932,-0.874667 l 0.75866,0.768001 c -0.70266,0.730666 -1.47066,1.190666 -2.72933,1.190666 -1.96,0 -3.41867,-1.526667 -3.41867,-3.457333 z"
         id="Fill-77"
         style="fill:#000000" />
      <polygon
         id="Fill-78"
         points="104.93693,0 102.66667,0 102.66667,33.333333 104.93693,33.333333 "
         style="fill:#000000" />
      <polygon
         id="Fill-79"
         points="25.380845,6.6669309 7.3328313,6.6669309 7.3328313,13.761941 23.23913,13.761941 23.23913,20.428871 7.3328313,20.428871 7.3328313,33.333333 0,33.333333 0,0 25.380845,0 "
         style="fill:#000000" />
      <polygon
         id="Fill-80"
         points="55.952594,33.333333 32,33.333333 32,0 39.332831,0 39.332831,26.666402 55.952594,26.666402 "
         style="fill:#000000" />
      <polygon
         id="Fill-81"
         points="86.810887,0 78.894666,0 70.167374,23.509176 61.441406,0 53.333333,0 66.714034,33.333333 73.430186,33.333333 "
         style="fill:#000000" />
    </g>
  </g>
</svg>
