<?xml version="1.0" encoding="UTF-8"?>
<svg width="126.52mm" height="37.189mm" version="1.1" viewBox="0 0 126.52 37.189" xmlns="http://www.w3.org/2000/svg" xmlns:cc="http://creativecommons.org/ns#" xmlns:dc="http://purl.org/dc/elements/1.1/" xmlns:rdf="http://www.w3.org/1999/02/22-rdf-syntax-ns#">
<metadata>
<rdf:RDF>
<cc:Work rdf:about="">
<dc:format>image/svg+xml</dc:format>
<dc:type rdf:resource="http://purl.org/dc/dcmitype/StillImage"/>
<dc:title/>
</cc:Work>
</rdf:RDF>
</metadata>
<g transform="translate(21.709,-242.32)">
<path d="m38.755 245.99v10.321h2.1699v-4.1498h1.3143l2.595 4.1498h2.627l-2.7514-4.254c0.26683-0.0638 0.51735-0.15547 0.74961-0.279 0.48548-0.25538 0.86054-0.61556 1.1244-1.079 0.26385-0.46821 0.39497-1.0087 0.39497-1.6236 0-0.61482-0.13113-1.155-0.39497-1.6185-0.26385-0.4682-0.63581-0.8287-1.116-1.0841-0.4802-0.25538-1.0375-0.38321-1.6707-0.38321h-2.8724zm-9.8136 7e-3v10.314h2.1698v-4.0019h2.4455c0.71766 0 1.3473-0.12982 1.8909-0.38993 0.5488-0.26012 0.9749-0.62626 1.2757-1.0992 0.30078-0.47767 0.45044-1.0315 0.45044-1.6606 0-0.62906-0.14966-1.1812-0.45044-1.6589-0.30078-0.47766-0.72688-0.84748-1.2757-1.1076-0.54352-0.26484-1.1732-0.39665-1.8909-0.39665h-2.4455zm23.157 0-4.4002 10.314h2.3346l0.64708-1.6539h4.2153l0.64708 1.6539h2.3346l-4.4002-10.315zm5.1834 0 3.8321 10.314h1.6925l3.8321-10.315h-2.2321l-2.4472 6.881-2.4455-6.881zm10.661 0v10.308h2.0741v-7.4356l4.0758 7.4356h2.6673v-10.308h-2.0741v7.5516l-4.0909-7.5516zm11.071 0v10.314h2.2488v-10.315zm-38.089 1.8656h2.6976c0.22691 0 0.42612 0.0503 0.59498 0.14959 0.16886 0.0993 0.29686 0.24078 0.38657 0.42522 0.09499 0.18445 0.14287 0.39749 0.14287 0.63868-0.0052 0.24121-0.0546 0.45256-0.14959 0.637-0.08971 0.18446-0.21939 0.32759-0.38825 0.42691-0.16886 0.0993-0.36495 0.14791-0.58658 0.14791h-2.6976zm-9.8136 7e-3h2.5009c0.26385 0 0.49385 0.0542 0.6891 0.16303 0.20052 0.10405 0.3533 0.25518 0.45884 0.45381 0.11081 0.1939 0.16639 0.41859 0.16639 0.67397 0 0.25066-0.05558 0.47335-0.16639 0.66726-0.11082 0.1939-0.26672 0.34502-0.46725 0.4538-0.19525 0.10404-0.42213 0.15631-0.6807 0.15631h-2.5009zm21.676 1.3984 1.3765 3.5178h-2.753zm-19.488 8.3516c-0.69656 0-1.2136 0.16444-1.5513 0.49077-0.33244 0.3216-0.4975 0.80791-0.4975 1.4606v1h-0.87233v1.6606h0.87233v5.7028h2.1681v-5.7028h1.385v-1.6606h-1.385v-0.65884c0-0.16553 0.04017-0.30101 0.11933-0.40506 0.07915-0.10405 0.19488-0.15631 0.34792-0.15631h0.91768v-1.7311zm11.238 0v10.314h2.1681v-1.5244l1.2404-1.4555 1.6253 2.98h2.5093l-2.7211-4.6406 2.3178-2.7228h-2.2959l-2.6758 3.2892v-6.2406zm17.347 0v8.365c0 0.61955 0.18213 1.0982 0.54624 1.4387 0.36411 0.34051 0.87655 0.51095 1.5362 0.51095h1.1076v-1.8724h-0.36304c-0.21107 0-0.37636-0.0466-0.49246-0.14118-0.11082-0.0993-0.16472-0.23879-0.16472-0.4185v-7.8827zm4.7885 0.80843v2.1429h-0.8471v1.6606h0.8471v3.7884c0 0.64319 0.16505 1.1296 0.4975 1.4606 0.33772 0.32632 0.86562 0.49078 1.5832 0.49078h1.0925v-1.874h-0.53784c-0.15303 0-0.26876-0.0466-0.34792-0.14118-0.07915-0.0993-0.11933-0.23878-0.11933-0.4185v-3.306h1.0051v-1.6606h-1.0051v-2.1429zm13.737 0v2.1429h-0.8471v1.6606h0.8471v3.7884c0 0.64319 0.16674 1.1296 0.49918 1.4606 0.33772 0.32632 0.86562 0.49078 1.5832 0.49078h1.0925v-1.874h-0.53784c-0.15303 0-0.27044-0.0466-0.34959-0.14118-0.07915-0.0993-0.11765-0.23878-0.11765-0.4185v-3.306h1.0051v-1.6606h-1.0051v-2.1429zm-41.284 2.0371c-0.65434 0-1.2517 0.0949-1.79 0.28405-0.53825 0.18444-0.97034 0.44407-1.2975 0.77986l1.3446 1.185c0.23218-0.1608 0.49925-0.28663 0.80004-0.37649 0.30078-0.0899 0.6049-0.13446 0.91097-0.13446 0.46437 0 0.82238 0.0912 1.0757 0.27564 0.25329 0.18446 0.37985 0.44777 0.37985 0.78828v0.31261h-1.9866c-0.9762 0-1.7094 0.18207-2.2001 0.54624-0.48548 0.36417-0.72776 0.91037-0.72776 1.6387 0 0.76616 0.21606 1.3377 0.64877 1.716 0.43798 0.37362 1.097 0.56137 1.9782 0.56137 0.40105 0 0.78071-0.0463 1.1395-0.13614 0.3641-0.0946 0.66509-0.23406 0.90253-0.4185 0.10177-0.0774 0.18072-0.16234 0.24539-0.2538v0.70087h1.9715v-4.7312c0-0.577-0.13425-1.069-0.40338-1.4756-0.26384-0.41146-0.64976-0.72335-1.1564-0.93618-0.50658-0.21756-1.1177-0.32607-1.8354-0.32607zm35.88 0c-0.76516 0-1.4195 0.1338-1.9631 0.40339-0.53825 0.26956-0.95038 0.66269-1.2353 1.1782-0.27968 0.5155-0.41851 1.1373-0.41851 1.8656v0.83028c0 0.69522 0.14652 1.2918 0.44203 1.7883 0.29551 0.49185 0.72305 0.86768 1.2824 1.1278 0.56463 0.25539 1.2438 0.38321 2.0353 0.38321 0.54352 0 1.0806-0.0949 1.6135-0.28405 0.53297-0.19391 1.0129-0.46518 1.4404-0.81516l-1.4169-1.1295c-0.23218 0.17025-0.48987 0.30374-0.77482 0.39833-0.28495 0.0899-0.57199 0.13446-0.86226 0.13446-0.56463 0-1.0061-0.13747-1.3227-0.41178-0.2512-0.22131-0.39856-0.51833-0.44708-0.88738h5.0389v-0.48238c0-0.86544-0.13593-1.6034-0.40506-2.2136-0.26384-0.61483-0.6512-1.0818-1.1631-1.4035-0.51187-0.32159-1.1261-0.48237-1.8438-0.48237zm-22.016 0.10589v4.5481c0 0.9317 0.23916 1.6523 0.71936 2.1631 0.4802 0.50603 1.1609 0.7597 2.0421 0.7597 0.51187 0 0.94565-0.13748 1.2992-0.41179 0.28484-0.21774 0.50201-0.4783 0.65717-0.7765v1.0808h2.1598v-7.3633h-2.1598v4.4338c0 0.37362-0.11116 0.66222-0.33279 0.86562-0.21636 0.19862-0.52816 0.29748-0.93446 0.29748-0.40632 0-0.72271-0.0969-0.9496-0.29076-0.22163-0.19863-0.33279-0.47558-0.33279-0.83029v-4.4758zm22.016 1.6606c0.40105 0 0.72056 0.11618 0.95804 0.34791 0.24274 0.23175 0.39239 0.55928 0.45044 0.98489l0.02353 0.17145h-3.0757c0.01774-0.46229 0.15759-0.82534 0.42355-1.0858 0.29023-0.27902 0.6978-0.41849 1.2202-0.41849zm-36.435 2.8304h1.9782v0.6807c0 0.25065-0.14195 0.43473-0.4269 0.55297-0.27968 0.11824-0.71035 0.17815-1.2908 0.17815-0.41688 0-0.72701-0.0562-0.93282-0.16975-0.2058-0.11823-0.30926-0.29832-0.30926-0.53952 0-0.23647 0.0818-0.41257 0.24539-0.52606 0.16359-0.11825 0.409-0.17648 0.73617-0.17648zm43.627 6.059c-0.40518 0-0.77975 0.0606-1.1244 0.1832-0.34204 0.12261-0.629 0.29836-0.86054 0.52945-0.24205 0.24288-0.425 0.53544-0.55128 0.87732-0.12629 0.33956-0.18992 0.72552-0.18992 1.1547 0 0.43624 0.06364 0.82351 0.18992 1.1631 0.12892 0.33956 0.31113 0.62541 0.54792 0.85886 0.23679 0.23344 0.52377 0.41185 0.86054 0.53447 0.3394 0.12262 0.7147 0.1832 1.1277 0.1832 0.4236 0 0.80058-0.0596 1.1295-0.17983 0.33151-0.12026 0.61849-0.29968 0.86054-0.53784 0.23416-0.22874 0.41564-0.51359 0.54456-0.8555 0.13155-0.34429 0.19665-0.73256 0.19665-1.1665 0-0.43392-0.06437-0.82283-0.19329-1.1647-0.12629-0.34191-0.3085-0.63146-0.54792-0.86725-0.23416-0.22873-0.5204-0.40346-0.85717-0.52607-0.33414-0.12498-0.71186-0.18658-1.1328-0.18658zm-51.975 0.0739v0.68911h0.83701v-0.68911zm18.84 0v0.68911h0.83701v-0.68911zm-29.618 0.0353v3.1514c0 0.39851 0.04574 0.73492 0.13782 1.0085 0.09472 0.27354 0.24909 0.50583 0.4622 0.69918 0.18681 0.16979 0.41716 0.29933 0.69078 0.38657 0.27363 0.0872 0.59472 0.12942 0.96303 0.12942 0.36045 0 0.67694-0.0402 0.94797-0.12268 0.271-0.0825 0.50669-0.21409 0.70927-0.39331 0.21311-0.18862 0.36675-0.42462 0.45884-0.70758 0.09472-0.28533 0.14118-0.61803 0.14118-1v-3.1514h-0.78154v3.2034c0 0.25702-0.0225 0.47259-0.06723 0.64709-0.0421 0.17213-0.1142 0.32611-0.21681 0.46052-0.11839 0.15563-0.27664 0.27177-0.47397 0.34959-0.19733 0.0755-0.43616 0.11429-0.71767 0.11429-0.27889 0-0.51772-0.0398-0.71767-0.11765-0.19733-0.0778-0.35484-0.19295-0.47061-0.34623-0.10261-0.13441-0.17545-0.2837-0.22018-0.44876-0.0421-0.16506-0.06387-0.39034-0.06387-0.67566v-3.1867zm45.272 0v3.1514c0 0.39851 0.04741 0.73492 0.1395 1.0085 0.09472 0.27354 0.2474 0.50583 0.46053 0.69918 0.18681 0.16979 0.41716 0.29933 0.69078 0.38657 0.27363 0.0872 0.59472 0.12942 0.96303 0.12942 0.36045 0 0.67526-0.0402 0.94625-0.12268 0.271-0.0825 0.50836-0.21409 0.71095-0.39331 0.21311-0.18862 0.36675-0.42462 0.45884-0.70758 0.09472-0.28533 0.14118-0.61803 0.14118-1v-3.1514h-0.78154v3.2034c0 0.25702-0.02251 0.47259-0.06723 0.64709-0.0421 0.17213-0.11421 0.32611-0.21681 0.46052-0.1184 0.15563-0.27665 0.27177-0.47397 0.34959-0.19733 0.0755-0.43616 0.11429-0.71767 0.11429-0.27889 0-0.51772-0.0398-0.71767-0.11765-0.19733-0.0778-0.35484-0.19295-0.47061-0.34623-0.10261-0.13441-0.17545-0.2837-0.22018-0.44876-0.0421-0.16506-0.06387-0.39034-0.06387-0.67566v-3.1867zm5.8826 0v5.2657h0.73112v-4.7113l2.785 4.7111h0.96811v-5.2657h-0.73112v4.301l-2.5413-4.301zm5.6776 0v0.53783h0.76978v4.1901h-0.76978v0.53783h2.3211v-0.53783h-0.76978v-4.1901h0.76978v-0.53783zm9.7714 0v5.2657h0.73112v-4.7113l2.785 4.7111h0.9681v-5.2657h-0.73112v4.301l-2.5413-4.301zm-34.834 0.17983v1.1362h-0.50086v0.55801h0.50086v2.1009c0 0.47869 0.11711 0.8268 0.35127 1.0438 0.23416 0.21694 0.57703 0.32606 1.027 0.32606 0.12893 0 0.27387-0.0107 0.43699-0.0319 0.16576-0.0213 0.3194-0.0493 0.45884-0.0824v-0.59666h-0.04034c-0.05788 0.0213-0.15249 0.0477-0.28405 0.0806-0.13155 0.0306-0.25714 0.0454-0.37816 0.0454-0.20785 0-0.36464-0.0214-0.46725-0.0639-0.09998-0.0448-0.17742-0.1141-0.23531-0.20842-0.06314-0.1014-0.1004-0.20883-0.11093-0.32438-0.01052-0.1179-0.01513-0.28158-0.01513-0.48909v-1.8001h1.5312v-0.55801h-1.5312v-1.1362zm7.76 0v1.1362h-0.50086v0.55801h0.50086v2.1009c0 0.47869 0.11543 0.8268 0.3496 1.0438 0.23416 0.21694 0.57703 0.32606 1.027 0.32606 0.12893 0 0.27554-0.0107 0.43868-0.0319 0.16576-0.0213 0.31771-0.0493 0.45716-0.0824v-0.59666h-0.03865c-0.05788 0.0213-0.1525 0.0477-0.28405 0.0806-0.13155 0.0306-0.25882 0.0454-0.37985 0.0454-0.20786 0-0.36296-0.0214-0.46557-0.0639-0.09998-0.0448-0.1791-0.1141-0.23698-0.20842-0.06314-0.1014-0.09872-0.20883-0.10924-0.32438-0.01052-0.1179-0.01681-0.28158-0.01681-0.48909v-1.8003h1.5312v-0.55801h-1.5312v-1.1362zm23.228 0.3143c0.59198 0 1.058 0.1871 1.4001 0.55969 0.34204 0.37021 0.51431 0.89772 0.51431 1.5816 0 0.69091-0.17373 1.2188-0.52103 1.5867-0.34466 0.36549-0.80924 0.5496-1.3933 0.5496-0.58409 0-1.0494-0.18411-1.3967-0.5496-0.3473-0.36786-0.52103-0.89574-0.52103-1.5867 0-0.68383 0.16818-1.2114 0.50758-1.5816 0.34203-0.37258 0.81289-0.55969 1.4102-0.55969zm-54.713 0.71096c-0.26048 0-0.51406 0.0478-0.76137 0.14453-0.24732 0.0967-0.48782 0.23124-0.71936 0.40339v-0.437h-0.74121v3.9497h0.74121v-2.9497c0.20259-0.13912 0.41432-0.25326 0.63532-0.34287 0.221-0.0896 0.43441-0.13446 0.637-0.13446 0.19733 0 0.35703 0.0244 0.48069 0.0739 0.12366 0.0472 0.21827 0.12114 0.28405 0.22018 0.06315 0.0896 0.10573 0.21446 0.12942 0.37481 0.02368 0.15798 0.03698 0.32769 0.03698 0.50926v2.2488h0.74121v-2.5648c0-0.4834-0.12486-0.85227-0.37481-1.1093-0.24995-0.25702-0.6129-0.38657-1.0891-0.38657zm11.293 0c-0.64197 0-1.16 0.19012-1.5547 0.56977-0.39203 0.37964-0.58826 0.89341-0.58826 1.5396 0 0.65318 0.2047 1.1566 0.61515 1.5127 0.41044 0.3537 0.98291 0.53111 1.7144 0.53111 0.28678 0 0.55973-0.0321 0.8202-0.0958 0.26048-0.0637 0.51647-0.14266 0.76641-0.23698v-0.72441h-0.04033c-0.12892 0.10376-0.34525 0.20919-0.65045 0.31766-0.30257 0.10612-0.6043 0.15968-0.90426 0.15968-0.22627 0-0.43412-0.0291-0.62356-0.0857-0.1868-0.0566-0.34891-0.14062-0.48573-0.25379-0.14208-0.11555-0.2529-0.26282-0.33447-0.44204-0.08156-0.18156-0.1227-0.39412-0.1227-0.637h3.2472v-0.36136c0-0.57301-0.16212-1.0148-0.48573-1.3261-0.32099-0.31125-0.77855-0.46724-1.3732-0.46724zm17.313 0c-0.64197 0-1.16 0.19012-1.5546 0.56977-0.39203 0.37964-0.58826 0.89341-0.58826 1.5396 0 0.65318 0.2047 1.1566 0.61515 1.5127 0.41044 0.3537 0.98127 0.53111 1.7126 0.53111 0.28678 0 0.55973-0.0321 0.8202-0.0958 0.26048-0.0637 0.51647-0.14266 0.76641-0.23698v-0.72441h-0.04033c-0.12893 0.10376-0.34525 0.20919-0.65045 0.31766-0.30256 0.10612-0.6043 0.15968-0.90425 0.15968-0.22627 0-0.43412-0.0291-0.62356-0.0857-0.18681-0.0566-0.34891-0.14062-0.48573-0.25379-0.14208-0.11555-0.2529-0.26282-0.33447-0.44204-0.08156-0.18156-0.1227-0.39412-0.1227-0.637h3.2472v-0.36136c0-0.57301-0.16044-1.0148-0.48405-1.3261-0.32099-0.31125-0.77855-0.46724-1.3732-0.46724zm-25.827 0.11092v3.9497h0.74289v-3.9497zm1.6001 0 1.7731 3.9497h0.74625l1.7833-3.9497h-0.77819l-1.353 3.143-1.3647-3.143zm9.7766 0v3.9497h0.74121v-2.8052c0.19733-0.14384 0.40371-0.25999 0.61684-0.3496 0.21311-0.092 0.43332-0.13782 0.66221-0.13782 0.14208 0 0.26548 5e-3 0.36809 0.0168 0.10524 9e-3 0.2122 0.0269 0.3227 0.0504h0.03866v-0.68239c-0.11577-0.0161-0.20095-0.0268-0.25883-0.0319-0.05788-7e-3 -0.15176-0.0101-0.28068-0.0101-0.23416 0-0.46452 0.0431-0.69079 0.13278-0.22364 0.0872-0.4835 0.23822-0.77819 0.45044v-0.58321zm3.022 0v0.55464h2.5127l-2.5698 2.9043v0.49077h3.5598v-0.56137h-2.6472l2.5816-2.9144v-0.47397zm4.4406 0v3.9497h0.74289v-3.9497zm-10.365 0.437c0.39466 0 0.68696 0.0964 0.87904 0.2874 0.19475 0.19101 0.29491 0.46114 0.29749 0.81012h-2.5261c0.03157-0.31125 0.16417-0.57169 0.39834-0.78155 0.2368-0.20986 0.55402-0.31598 0.95133-0.31597zm17.311 0c0.39466 0 0.68864 0.0964 0.88068 0.2874 0.19475 0.19101 0.29323 0.46114 0.29581 0.81012h-2.5261c0.03157-0.31125 0.16417-0.57169 0.39834-0.78155 0.23679-0.20986 0.55402-0.31598 0.95133-0.31597z" stroke-width=".86054"/>
<text font-family="sans-serif" font-size="9.8778px" font-weight="bold" style="line-height:1.25;shape-inside:url(#rect1679);white-space:pre" xml:space="preserve"/>
<text font-family="sans-serif" font-size="9.8778px" font-weight="bold" style="line-height:1.25;shape-inside:url(#rect896);white-space:pre" xml:space="preserve"/>
<text font-family="sans-serif" font-size="9.8778px" font-weight="bold" style="line-height:1.25;shape-inside:url(#rect855);white-space:pre" xml:space="preserve"/>
<text font-family="sans-serif" font-size="16.933px" font-weight="bold" style="line-height:1.25;shape-inside:url(#rect863);white-space:pre" xml:space="preserve"/>
<text font-family="sans-serif" font-size="16.933px" font-weight="bold" style="line-height:1.25;shape-inside:url(#rect869);white-space:pre" xml:space="preserve"/>
<text font-family="sans-serif" font-size="16.933px" font-weight="bold" style="line-height:1.25;shape-inside:url(#rect907);white-space:pre" xml:space="preserve"/>
<path d="m-1.7667 278.61-0.0067-23.035-19.936-11.529 0.0067 23.035z" fill="#f6b73e"/>
<path d="m-1.7429 278.58 0.0067-23.035 19.936-11.529-0.0068 23.035z"/>
<path d="m-21.709 244.04 19.973 11.502 19.936-11.529z" fill="#fff"/>
<path d="m31.822 265.36v-2.8544h-0.86496v-1.6434h0.86168l0.0084-0.6963c0.0091-0.7602 0.01818-0.84811 0.11788-1.1457 0.20506-0.61206 0.67041-0.96371 1.4189-1.0722 0.147-0.0213 0.36463-0.0266 1.0855-0.0266h0.90166v1.7126h-1.0312l-0.09148 0.0456c-0.05535 0.0276-0.11141 0.0731-0.14196 0.11527-0.09353 0.12911-0.10699 0.20591-0.11512 0.65653l-0.0074 0.41086h1.3871v1.6434h-1.3839v5.7087h-2.1452z" fill="#f6b73e" stroke="#ff7f2a" stroke-width=".017299"/>
</g>
</svg>
